<?xml version="1.0" encoding="utf-8"?>
<!-- Generator: Adobe Illustrator 25.3.1, SVG Export Plug-In . SVG Version: 6.00 Build 0)  -->
<svg version="1.1" id="Layer_1" xmlns:v="https://vecta.io/nano"
	 xmlns="http://www.w3.org/2000/svg" xmlns:xlink="http://www.w3.org/1999/xlink" x="0px" y="0px" viewBox="0 0 355 386"
	 style="enable-background:new 0 0 355 386;" xml:space="preserve">
<style type="text/css">
	.st0{fill:#3264AE;}
	.st1{opacity:0.47;fill:#60BFEE;}
	.st2{opacity:0.3;fill:#60BFEE;}
	.st3{opacity:0.26;fill:#60BFEE;}
	.st4{opacity:0.47;fill:#329693;}
	.st5{opacity:0.3;fill:#F3C4A7;}
	.st6{opacity:0.5;fill:#F3C4A7;}
	.st7{fill:#F3C4A7;}
	.st8{fill:#562B2A;}
	.st9{fill:#FFFFFF;}
	.st10{fill:url(#SVGID_1_);}
	.st11{fill:url(#SVGID_2_);}
	.st12{opacity:0.5;fill:url(#SVGID_3_);}
	.st13{opacity:0.5;fill:url(#SVGID_4_);}
	.st14{opacity:0.5;fill:url(#SVGID_5_);}
	.st15{opacity:0.5;fill:url(#SVGID_6_);}
	.st16{opacity:0.5;fill:url(#SVGID_7_);}
	.st17{opacity:0.5;fill:url(#SVGID_8_);}
	.st18{opacity:0.5;fill:url(#SVGID_9_);}
	.st19{opacity:0.5;fill:url(#SVGID_10_);}
	.st20{opacity:0.5;fill:url(#SVGID_11_);}
	.st21{fill:url(#SVGID_12_);}
	.st22{opacity:0.5;fill:url(#SVGID_13_);}
	.st23{opacity:0.5;fill:url(#SVGID_14_);}
	.st24{opacity:0.5;fill:url(#SVGID_15_);}
	.st25{fill:#B91318;}
	.st26{opacity:0.5;fill:#B91318;}
	.st27{opacity:0.5;fill:url(#SVGID_16_);}
	.st28{opacity:0.5;fill:url(#SVGID_17_);}
	.st29{fill:url(#SVGID_18_);}
	.st30{opacity:0.5;fill:url(#SVGID_19_);}
	.st31{fill:url(#SVGID_20_);}
	.st32{opacity:0.5;fill:url(#SVGID_21_);}
	.st33{fill:url(#SVGID_22_);}
	.st34{fill:url(#SVGID_23_);}
	.st35{fill:url(#SVGID_24_);}
	.st36{fill:url(#SVGID_25_);}
	.st37{fill:url(#SVGID_26_);}
	.st38{fill:url(#SVGID_27_);}
	.st39{fill:url(#SVGID_28_);}
	.st40{opacity:0.5;fill:url(#SVGID_29_);}
	.st41{fill:url(#SVGID_30_);}
	.st42{fill:url(#SVGID_31_);}
	.st43{opacity:0.5;fill:url(#SVGID_32_);}
	.st44{opacity:0.5;fill:url(#SVGID_33_);}
</style>
<g>
	
		<image style="overflow:visible;opacity:0.45;" width="352" height="394" xlink:href="FAF8711C.png"  transform="matrix(1 0 0 1 1 0)">
	</image>
	<g>
		<g>
			<g>
				<g>
					<g>
						<g>
							<g>
								<g>
									
										<ellipse transform="matrix(0.2797 -0.9601 0.9601 0.2797 -37.8876 266.6157)" class="st0" cx="158.7" cy="158.6" rx="96.7" ry="96.7"/>
									<path class="st0" d="M131.5,110.4c10.8,1.6,21.6,4.2,32.6,4.4c11.1,0.3,20.5-2.8,30.8-6.6c5.1-1.9,10.4-3.7,15.9-4.1
										c6.6-0.5,12.2,2.1,18.1,4.7c5,2.2,9.8,3.4,14.7,3.3c-0.1-0.2-0.3-0.5-0.4-0.7c-2.4,0.1-4.7-0.2-6.9-0.7
										c-7.7-2-14.2-7.1-22.4-7.4c-8.8-0.3-17.2,3.5-25.3,6.5c-10.5,3.9-21,4.9-32.2,3.8c-9.5-1-18.8-3.5-28.3-4.4
										c-12.8-1.1-25.7,4.7-37.5,8.7c-6.9,2.3-14.4,4.6-21.8,5.3c-0.2,0.4-0.3,0.8-0.5,1.2C88.9,122.8,112.2,107.6,131.5,110.4z"
										/>
									<path class="st0" d="M88.1,224.6c8.4-0.2,16.8-1.2,25-2.6c5.6-0.9,11.2-2.4,16.8-3c8.4-0.9,15.9,2.3,23.6,5.3
										c16.5,6.4,32.7,4.8,49.7,1.2c10.4-2.2,20.9-4.2,31.2-6.7c0.3-0.4,0.7-0.9,1-1.3c-7.4,1.8-14.8,3.4-22.2,5
										c-18.1,3.7-36.7,8.7-54.8,2.6c-6.6-2.2-12.9-5.5-19.9-6.7c-5.7-1-11.1,0-16.6,1.1c-11.4,2.2-22.9,4-34.5,4.3
										C87.6,224,87.9,224.3,88.1,224.6z"/>
									<path class="st1" d="M204,193.1c-1.7,0.3-1,2.8,0.5,2.9c9,0.1,18.1-1.1,27,0.2c-4.5,3.2-11.6,2.7-16.8,4.3
										c-8.2,2.6-14.8,6.9-23.8,5.6c-5.3-0.8-9.6-1.6-15-0.6c-8.8,1.6-13.4,3.1-21.7-0.9c-10.8-5.2-22.5-2.9-33.9-1.8
										c-1.9,0.2-21.7,0-21.4,2.7c0,0.2,0.1,0.5,0.1,0.7c0.1,0.7,0.4,1.5,1.2,1.8c10.9,4.6,23.4,2,34.8,1.9
										c11.3-0.1,22.4,6.5,33.4,3.8c3.1-0.8,6.1-2.3,9.3-3c5.2-1.1,9.5,0.3,14.5,0.7c5.6,0.5,10.3-0.8,15.4-2.9
										c7.1-2.9,13.2-4.5,20.5-6.3c4.3-1,6.9-2.8,9.3-6.4c0.8-1.1-0.2-2.7-1.4-3C225.8,190.4,214.5,191.1,204,193.1z"/>
									<path class="st1" d="M195.5,120.7c-10,2.6-19.7,0.2-29.7,1.7c-8.8,1.3-15.2,10.2-24.2,9.3c-6.7-0.7-13.3-2.8-20.2-3.4
										c-7.4-0.6-15.2-0.8-22.6,0.4c-9.4,1.5-28.6,6-29.8,17.9c-0.2,1.5,1.1,3.2,2.8,2.6c4.8-1.9,8.8-5.2,13.7-7.1
										c6-2.3,12.4-3.2,18.7-4.4c6.5-1.3,12.9-2.5,19.5-3.2c6.9-0.7,13.4,2.1,20.1,1.2c5.6-0.7,8.5-4,12.9-7
										c8.6-5.8,18.3-3.7,28-3.9c16.6-0.4,32.3-12.8,47.8-1.4c1.1,0.8,2.5-0.6,1.5-1.6C223.2,111,208.1,117.5,195.5,120.7z"/>
									<path class="st1" d="M206.6,155.2c-7.1,1.5-12.1,6.2-19.7,6.9c-7.5,0.7-15.3-0.6-22.8-0.6c-15.5,0.1-30,4.2-45,7.6
										c-16.7,3.9-33.3,5.5-50.4,7.3c-3.2,0.3-4,5.4-0.5,6c16.7,2.8,33.8-0.9,49.7-6c18-5.8,34.2-11.4,53.4-11.1
										c7.4,0.1,15.2,1.1,22.4-1.3c8.3-2.8,13.9-7.6,23.4-6.1c11.5,1.9,22.7,6.2,32.2-3.1c0.8-0.8-0.4-2.2-1.3-1.5
										C234,164.5,221.4,152.2,206.6,155.2z"/>
									<path class="st1" d="M166.8,87.4c-5.5,0.9-8.4,5.1-12.8,8.1c-11.2,7.6-22.8,1.8-34.8,0.8c-9-0.8-17.5,0.7-25.9,3.7
										c-0.1,0-0.1,0.2,0.1,0.2c13.1-4.5,24.7-3.7,38.1-1.3c7.2,1.3,14.2,2.1,20.8-1.8c3.1-1.9,5.3-4.8,8.3-6.7
										c5.3-3.5,11-3.1,16.8-1.3c7.7,2.4,13.2,4.6,20-0.8c0.1-0.1,0-0.2-0.1-0.1C187.2,97.1,177.6,85.7,166.8,87.4z"/>
									<path class="st1" d="M209.1,230.4c-4.3,9.4-12.1,6.4-20,7.6c-7,1.1-11.6,6.9-18.3,8.8c-10.1,2.8-18.4-3.3-28.2-4.8
										c-7.2-1.1-14.6-1.2-21.8-0.5c-0.1,0-0.1,0.2,0,0.2c12.1-1.1,23,0.7,34.4,4.5c6.2,2,12.2,3.2,18.3,0.4
										c4-1.9,7.2-5.2,11.3-6.8c4.6-1.9,8.8-1.1,13.7-1.5c5.6-0.4,8.5-2.6,10.7-7.7C209.3,230.3,209.1,230.3,209.1,230.4z"/>
									<path class="st2" d="M88.5,148.4c-2.8,1.1-4.1,3.9-3.2,6.6c0.1,1.8,1.1,3.7,2.7,4.8c3.4,2.3,8,3.8,12.3,3.7
										c4.8,1.1,9.8,0.2,12.9-4c1.7-2.3,1.7-5-0.3-7.2C106.7,146,96.4,145.3,88.5,148.4z"/>
									<path class="st2" d="M126.8,154.2c0.1,3,4.8,2.8,4.7-0.2C131.4,151,126.7,151.2,126.8,154.2z"/>
									<path class="st2" d="M205,131.4c-7.2-2.9-18.6-2-16.9,7.4c1.6,8.9,13.2,8.6,21.2,6.3c9,7.2,26.5,5.8,23.9-8.7
										C230.6,122.8,211.5,121.4,205,131.4z"/>
									<path class="st2" d="M203.5,122.9c-1,0.5-1.1,1.7-0.7,2.6c0.5,1.2,2.3,1.2,2.5-0.1c0,0,0,0,0,0c0,0,0-0.1,0.1-0.1
										c0.1-0.1,0.2-0.1,0.2-0.2c0.2-0.1,0.3-0.3,0.4-0.5c0.2-0.3,0.2-0.8-0.1-1.2C205.4,122.6,204.4,122.5,203.5,122.9z"/>
									<path class="st2" d="M170.6,178.1c-0.6,0.4-1.1,0.9-1.5,1.4c-2.1,0.9-3.9,2.2-5.5,3.9c-0.5,0.6-0.9,1.2-1,1.9
										c-0.3,0.2-0.7,0.4-1,0.6c-0.3,0.2-0.5,0.5-0.5,0.9c0.8,5.7,7.8,10.1,13.4,10.9c6.1,0.9,13.1-3.9,13.8-10.3
										c0.6-5.4-4.3-8.7-9-9.3c-0.5-0.1-1-0.1-1.5-0.1C175.4,177,172.9,176.7,170.6,178.1z"/>
									<path class="st2" d="M227.5,172c0.1,1.4,0.4,2.6,1.1,3.9c0.2,0.3,0.3,0.6,0.5,0.9c0.1,0.2,0.2,0.4,0.3,0.6
										c0.1,0.2,0.5,0.9,0.1,0.2c0.8,1.7,2.7,3.3,4.8,2.4c1.8-0.8,3.3-2,4.3-3.7c0.7-1.2,0.4-2.9-0.5-3.9
										c-0.7-0.8-1.5-1.1-2.4-1.2c-0.7-1.6-2.5-2.4-4.2-2.6C229.5,168.2,227.4,169.6,227.5,172z"/>
									<path class="st2" d="M80.1,204.5c0.1,1.5,0.5,2.9,0.9,4.2c0.6,4.2,3.8,7.6,8.1,8.8c0.1,0,0.2,0,0.3,0
										c1.7,0.6,3.6,0.6,5.4-0.3c2.1-1,1.7-3.8,0.4-5.3c-0.6-0.6-1.3-1.1-2.1-1.4c-0.8-4.2-3.4-7.8-7.6-9.7
										C83.1,199.9,79.8,201.5,80.1,204.5z"/>
									<path class="st2" d="M138.8,75.6c-1.6,0.5-2.9,1.7-4.3,2.7c-1.8,1.2-2.3,4.1-0.4,5.5c1.4,1.1,2.9,2,4.7,1.9
										c1.4-0.1,2.5-0.7,3.7-1.4c0.8-0.5,1.3-1.2,1.4-2.1c1.3-0.1,2.4-0.8,2.8-2c0.5-1.3,0-3.3-1.5-3.9
										C143.2,75.5,141,74.9,138.8,75.6z"/>
									<path class="st2" d="M164.6,140.7c0.1,2.7,4.3,2.5,4.2-0.2C168.6,137.8,164.4,138,164.6,140.7z"/>
									<path class="st2" d="M203,82.9l0.2,0.6c1.1,2.6,4.6,2.4,5.4-0.3l0.2-0.6c0.6-1.9-1.2-3.8-3.1-3.7
										C203.9,79,202.2,81.1,203,82.9z"/>
									<path class="st2" d="M174.1,75.4c-0.8,0.6-1.4,1.5-1.1,2.5c0.3,1,1.4,1.5,2.4,1.3c1.5-0.2,2-1.7,1.3-2.7
										c0-0.3-0.1-0.6-0.4-0.8C175.8,75.1,174.8,74.9,174.1,75.4z"/>
									<path class="st2" d="M138.8,228.4c10.6,5.6,28,11.4,39.8,7.2c1.8-0.6,1.6-3.1-0.2-3.6c-6.3-1.7-13.1-0.7-19.6-1.9
										c-6.4-1.1-12.6-3.2-18.9-4.9C138.1,224.8,137.2,227.6,138.8,228.4z"/>
									<path class="st3" d="M208.5,75.7C192.7,66.1,173.9,61,154,62c-53.3,2.6-94.5,47.9-91.9,101.3c0.5,9.5,2.3,18.6,5.3,27.2
										c21.1,11.2,48.1,11.8,71.4,5C195.9,178.8,226.6,120,208.5,75.7z"/>
									<path class="st4" d="M233.1,96.8c-0.2,0.4-0.4,0.8-0.6,1.2c-4.8,11.1-3.8,26.5-9,38.7c-9.6,22.8-23.5,42.8-45.8,54.7
										c-36.4,19.5-70.7,22.7-103.7,13.8c17.3,31.3,51.3,51.7,89.4,49.8c53.3-2.6,94.5-47.9,91.9-101.3
										C254.3,132.1,246.1,112.3,233.1,96.8z"/>
									<path class="st4" d="M255.3,153.9c-0.6-11.6-3.2-22.7-7.5-32.9c-3.9,12.5-5.1,25.8-10,38c-7.2,18.1-18.7,32.3-34.1,44.1
										c-17.7,13.6-42.4,21.7-63.9,27c-16.2,4-29.9,4.3-43.2,2.5c3.1,2.6,6.3,4.9,9.7,7.1c27.4,5.3,56.2,2.8,81.7-8.1
										c26.7-11.4,48.1-25.8,60.4-53.2c1.5-3.2,4.2-10.2,6.9-18.5C255.4,158,255.4,156,255.3,153.9z"/>
									<path class="st3" d="M156.8,76.8c-13-9.8-38.3,3.9-49.4,11.6c-17.8,12.3-38,41.2-25.9,63.9c10.8,20.1,37.6,19.3,55.1,11
										c17.2-8.1,31.3-18.5,39.7-36.3C185.3,108.1,183.5,80.7,156.8,76.8z"/>
									<path class="st3" d="M113.8,86c-20.6,6-41.2,53.6-5.3,50.6C144.7,133.5,140.4,74,113.8,86z"/>
								</g>
								<path class="st5" d="M259.6,173.8c1.2-1.4,2.5-3.1,3.8-5c3.2-4.7,4.6-9.8,4.8-14.6c-1.6,1.6-3.8,2.4-4.8-0.8
									c-1.7-5.5-3.8-13.3-10.1-11.9c-6.4,1.4-3.3,9.5,0.7,11.8c3.9,2.3,1.7,8.4,1.7,8.4C254.4,163.9,256.4,169.6,259.6,173.8z"/>
								<g>
									<path class="st6" d="M175.8,210.4c4.9-23.2-50.1-20.3-44.6-5.5c5.5,14.8,26.7,5.8,17.1,14.2c-9.6,8.4-23.8-7.8-23.8-7.8
										s-0.9,8.1,5.6,20.2c3.6,0.3,7.3,0.5,11.1,0.6c7.1,0.1,14.7-0.2,22.5-1.2C169.4,225.6,174.1,218.5,175.8,210.4z"/>
									<ellipse class="st7" cx="142" cy="217.1" rx="3.6" ry="1.7"/>
								</g>
								<g>
									<path class="st6" d="M125.6,160.9c0,0-3.1,5.2,0.2,6s6.6,2.1,12,4.8c5.4,2.7,8.1-3.9,14.7-3.7c6.6,0.2,10.7-1.4,10.1-5
										c0,0,4.2,2.3,2.8,5.3c-1.5,3-3.4,6.5-10.2,8.3c-6.8,1.7-24.5-0.6-27.6-3.1C124.4,171,119.4,167.3,125.6,160.9z"/>
									<g>
										<g>
											<path class="st7" d="M129.1,173.2c0,0.1-0.7-0.1-1.7-0.4c-0.5-0.2-1-0.5-1.7-0.8c-0.3-0.2-0.6-0.4-0.9-0.6l-0.4-0.3
												l-0.4-0.4c-0.5-0.5-0.9-1.2-1.2-1.9c-0.1-0.4-0.2-0.7-0.3-1c-0.1-0.3,0-0.7-0.1-0.9c-0.1-0.6,0.1-1.1,0.1-1.4
												c0-0.3,0.1-0.5,0.1-0.5s0.1-0.2,0.2-0.5c0.1-0.2,0.1-0.3,0.2-0.6c0.1-0.2,0.2-0.4,0.4-0.7c0.5-1,1.5-2.1,2.6-3.1
												c1.1-1,2.3-1.8,3.2-2.3c1-0.5,1.6-0.7,1.7-0.7c0,0.1-0.5,0.5-1.4,1.1c-0.8,0.7-1.9,1.5-2.8,2.5c-0.9,1-1.7,2.1-2.1,3
												c-0.1,0.2-0.2,0.4-0.3,0.6c-0.1,0.2-0.1,0.3-0.2,0.5c-0.1,0.3-0.1,0.4-0.1,0.4s-0.1,0.1-0.1,0.4c0,0.3-0.2,0.6-0.2,1.1
												c-0.1,0.9,0.2,2.2,1,3.2l0.3,0.4l0.4,0.3c0.2,0.2,0.5,0.5,0.7,0.7c0.5,0.3,1,0.7,1.4,1
												C128.5,172.8,129.1,173.1,129.1,173.2z"/>
										</g>
										<g>
											<path class="st7" d="M134.8,172.9c-0.2,0.1-1-0.4-1.8-0.8c-0.9-0.4-1.8-0.6-1.8-0.6s-0.9-0.4-1.8-0.7
												c-0.9-0.3-1.9-0.4-1.9-0.7c0-0.2,1-0.4,2.1-0.4c1.1,0,2.1,0.3,2.1,0.3s1,0.4,1.8,1.1C134.4,171.9,135,172.7,134.8,172.9z
												"/>
										</g>
										<g>
											<path class="st7" d="M154.5,171.3c0,0.2-1.3,0.1-2.5,0.2c-0.6,0.1-1.2,0.1-1.6,0.2c-0.4,0.1-0.7,0.2-0.7,0.2
												c0,0-1.1,0.2-2.1,0.7c-1,0.6-1.8,1.5-2,1.4c-0.1-0.1,0.4-1.3,1.4-2.2c1-0.9,2.4-1.3,2.4-1.3s1.4-0.2,2.7,0
												C153.4,170.7,154.6,171.1,154.5,171.3z"/>
										</g>
										<g>
											<path class="st7" d="M162.7,172.1c-0.1-0.1,0.3-0.5,0.7-1.2c0.4-0.7,0.8-1.7,0.9-2.7c0-1-0.2-2.1-0.5-2.8
												c-0.1-0.4-0.3-0.7-0.4-0.9c-0.1-0.2-0.2-0.3-0.2-0.3s-0.1-0.1-0.2-0.3c-0.1-0.2-0.2-0.5-0.5-0.8
												c-0.4-0.7-1.1-1.6-1.8-2.4c-0.8-0.8-1.6-1.5-2.3-2c-0.7-0.5-1.2-0.8-1.1-0.9c0-0.1,0.6,0,1.4,0.4c0.8,0.3,1.8,1,2.7,1.7
												c0.9,0.8,1.7,1.6,2.2,2.4c0.3,0.3,0.5,0.7,0.6,0.9c0.1,0.2,0.2,0.4,0.2,0.4s0.1,0.1,0.2,0.4c0.1,0.3,0.3,0.6,0.4,1
												c0.3,0.9,0.5,2.1,0.3,3.3c-0.2,1.2-0.8,2.3-1.5,3C163.2,171.8,162.7,172.2,162.7,172.1z"/>
										</g>
									</g>
									<path class="st7" d="M150.3,165.1c0.2,0.9-1,2-2.9,2.5c-1.8,0.5-3.5,0.3-3.8-0.6c-0.2-0.8,1-2,2.9-2.5
										C148.4,164,150,164.3,150.3,165.1z"/>
								</g>
								<path class="st5" d="M120.7,178.8c0,7.7-9.8,13.9-21.8,13.9c-12.1,0-21.8-6.2-21.8-13.9c0-7.7,9.8-13.9,21.8-13.9
									C111,165,120.7,171.2,120.7,178.8z"/>
								<ellipse class="st5" cx="190.9" cy="180" rx="22.4" ry="14.3"/>
								<g>
									<g>
										<g>
											<path class="st8" d="M208.5,154.9c0.2,0.1-0.3,1-1.4,2.2c-0.6,0.6-1.3,1.3-2.1,2.2c-0.3,0.3-1,1.1-1.7,1.9
												c-0.3,0.5-0.7,1-1.1,1.5c-0.4,0.5-0.7,1.1-1.1,1.6c-0.4-0.8-0.8-2.3-1.4-3.6c-0.1-0.3-0.3-0.7-0.5-1
												c-0.1-0.2-0.2-0.4-0.3-0.5l-0.2-0.3c-0.2-0.4-0.4-0.8-0.7-1.2c-1-1.5-2.1-3-3.2-4.2c-1.1-1.2-2.2-2-3-2.5
												c-0.8-0.5-1.3-0.7-1.3-0.7s-0.3-0.2-0.8-0.3c-0.3-0.1-0.6-0.2-0.9-0.2c-0.4-0.1-0.8,0-1.3-0.1c-1,0.1-2.2,0.3-3.4,0.9
												c-1.2,0.6-2.5,1.5-3.7,2.5c-2.4,2.1-4.4,4.7-5.8,6.7c-1.4,2-2.1,3.6-2.4,3.5c-0.3-0.1-0.1-1.8,0.9-4.3
												c1-2.4,2.7-5.5,5.1-8.2c1.2-1.3,2.6-2.5,4.1-3.5c1.5-0.9,3.2-1.5,4.7-1.7c0.8,0,1.5-0.1,2.1-0.1c0.7,0.1,1.3,0.1,1.7,0.3
												c0.9,0.2,1.4,0.5,1.4,0.5s0.8,0.4,1.9,1.1c1.1,0.8,2.4,2,3.5,3.6c1.2,1.5,2.2,3.3,3.1,5.2c0.2,0.5,0.4,0.9,0.6,1.4
												l0.1,0.3l0,0.1l0.1,0.3c0,0.2,0.1,0.4,0.1,0.6c0,0.1,0,0.2,0.1,0.3l0,0.2c0,0,0,0.2,0,0.1c0.2-0.2,0.4-0.4,0.7-0.6
												c0.4-0.3,0.8-0.6,1.1-0.9c1-0.7,1.8-1.3,2.5-1.7C207.6,155.2,208.3,154.7,208.5,154.9z"/>
										</g>
									</g>
									<g>
										<g>
											<path class="st8" d="M85.4,151.2c-0.2,0.1,0.3,1,1.4,2.2c0.6,0.6,1.3,1.3,2.1,2.2c0.3,0.3,1,1.1,1.7,1.9
												c0.3,0.5,0.7,1,1.1,1.5c0.4,0.5,0.7,1.1,1.1,1.6c0.4-0.8,0.8-2.3,1.4-3.6c0.1-0.3,0.3-0.7,0.5-1c0.1-0.2,0.2-0.4,0.3-0.5
												l0.2-0.3c0.2-0.4,0.4-0.8,0.7-1.2c1-1.5,2.1-3,3.2-4.2c1.1-1.2,2.2-2,3-2.5c0.8-0.5,1.3-0.7,1.3-0.7s0.3-0.2,0.8-0.3
												c0.3-0.1,0.6-0.2,0.9-0.2c0.4-0.1,0.8,0,1.3-0.1c1,0.1,2.2,0.3,3.4,0.9c1.2,0.6,2.5,1.5,3.7,2.5c2.4,2.1,4.4,4.7,5.8,6.7
												c1.4,2,2.1,3.6,2.4,3.5c0.3-0.1,0.1-1.8-0.9-4.3c-1-2.4-2.7-5.5-5.1-8.2c-1.2-1.3-2.6-2.5-4.1-3.5
												c-1.5-0.9-3.2-1.5-4.7-1.7c-0.8,0-1.5-0.1-2.1-0.1c-0.7,0.1-1.3,0.1-1.7,0.3c-0.9,0.2-1.4,0.5-1.4,0.5s-0.8,0.4-1.9,1.1
												c-1.1,0.8-2.4,2-3.5,3.6c-1.2,1.5-2.2,3.3-3.1,5.2c-0.2,0.5-0.4,0.9-0.6,1.4l-0.1,0.3l0,0.1l-0.1,0.3
												c0,0.2-0.1,0.4-0.1,0.6c0,0.1,0,0.2-0.1,0.3l0,0.2c0,0,0,0.2,0,0.1c-0.2-0.2-0.4-0.4-0.7-0.6c-0.4-0.3-0.8-0.6-1.1-0.9
												c-1-0.7-1.8-1.3-2.5-1.7C86.3,151.5,85.6,151,85.4,151.2z"/>
										</g>
									</g>
									<g>
										<g>
											<path class="st7" d="M177.8,144.9c0.1,0.1-0.8,1.7-1.7,3.3c-0.9,1.6-1.6,3.3-1.6,3.3s-0.8,1.7-1.4,3.4
												c-0.6,1.7-0.9,3.6-1,3.6c-0.1,0,0.1-1.9,0.5-3.7c0.5-1.8,1.3-3.6,1.3-3.6s0.8-1.7,1.8-3.3
												C176.7,146.4,177.7,144.9,177.8,144.9z"/>
										</g>
										<g>
											<path class="st7" d="M176.1,143.8c0.1,0.1-0.7,1.1-1.5,2.2c-0.7,1.1-1.3,2.2-1.3,2.2s-0.1,0.3-0.4,0.7
												c-0.3,0.4-0.4,1-0.7,1.6c-0.4,1.2-0.3,2.5-0.5,2.6c-0.1,0-0.3-1.3,0-2.7c0.2-0.6,0.3-1.3,0.6-1.8
												c0.2-0.5,0.3-0.8,0.3-0.8s0.7-1.2,1.6-2.2C175.1,144.6,176,143.7,176.1,143.8z"/>
										</g>
										<g>
											<path class="st7" d="M122.2,158.3c-0.1,0-0.4-2.4-1-4.7c-0.4-1.1-0.7-2.3-1-3.1c-0.3-0.8-0.6-1.4-0.6-1.4
												c0,0-0.9-2.2-2-4.3c-1.1-2.1-2.4-4.2-2.3-4.2c0,0,0.4,0.5,0.9,1.2c0.5,0.7,1.2,1.8,1.8,2.8c1.3,2.1,2.3,4.3,2.3,4.3
												s0.2,0.6,0.5,1.4c0.3,0.8,0.6,2,0.9,3.2c0.2,1.2,0.5,2.4,0.5,3.3C122.2,157.7,122.2,158.3,122.2,158.3z"/>
										</g>
										<g>
											<path class="st7" d="M123.1,151.6c-0.2,0.1-2.1-5.1-2.1-5.1s-1.8-5.2-1.6-5.3c0.2-0.1,2.3,5.1,2.3,5.1
												S123.3,151.5,123.1,151.6z"/>
										</g>
									</g>
								</g>
								<g>
									<path class="st7" d="M257,171.1c0,0-0.4-0.2-1.1-0.4c-0.6-0.2-1.7-0.5-2.4-1.3c-0.3-0.4-0.6-1-0.5-1.6c0-0.6,0.3-1.3,0.5-2
										c0.6-1.3,1.4-2.7,2.2-4.2c0.7-1.5,1.5-3.1,1.1-4.9c-0.2-0.9-0.8-1.6-1.3-2.1c-0.5-0.5-1.1-0.9-1.5-1.3
										c-1.8-1.5-2.6-2.8-2.6-2.8c0,0-0.2-0.3-0.5-0.9c-0.3-0.6-0.7-1.4-0.8-2.5c-0.1-1.1,0-2.4,0.8-3.5c0.3-0.6,0.9-1,1.5-1.4
										c0.6-0.3,1.3-0.4,2.1-0.3c0.4,0,0.7,0.1,1.1,0.2c0.3,0.2,0.7,0.3,1,0.5c0.3,0.2,0.6,0.4,0.9,0.6c0.3,0.3,0.5,0.5,0.8,0.8
										c1,1.1,1.7,2.3,2.1,3.4c1,2.2,0.9,3.9,1.1,3.8c0,0,0.1-0.4,0.1-1.1c-0.1-0.7-0.2-1.7-0.6-2.9c-0.4-1.2-1-2.5-2-3.7
										c-0.3-0.3-0.6-0.6-0.8-0.9c-0.3-0.3-0.7-0.5-1-0.7c-0.4-0.2-0.8-0.4-1.1-0.6c-0.4-0.1-0.8-0.3-1.3-0.3
										c-0.9-0.1-1.8,0-2.7,0.4c-0.8,0.4-1.5,1-2,1.7c-1,1.4-1.2,3-1.2,4.3c0.1,1.3,0.5,2.4,0.8,3.1c0.1,0.4,0.3,0.6,0.4,0.8
										c0.1,0.2,0.2,0.3,0.2,0.3s0.2,0.4,0.7,1c0.5,0.6,1.2,1.4,2.2,2.1c0.9,0.8,2.2,1.6,2.5,2.7c0.4,1.2-0.2,2.7-0.8,4.2
										c-0.6,1.5-1.4,2.9-2,4.3c-0.3,0.7-0.5,1.5-0.5,2.3c0,0.8,0.4,1.5,0.8,2c1,0.9,2.1,1,2.8,1.2
										C256.5,171.1,257,171.2,257,171.1z"/>
								</g>
								<path class="st5" d="M223.1,96.2c-23.2-24-115.9-32.5-139.1,8.5c0,0-1.9,4.3-3.5,11.1c12.2-5.8,31.7-13.5,47-16.2
									c27.8-5,58-1.7,90.5,19.9c7.5,5,14.5,8.6,20.2,11.7C239.1,123.6,237.4,110.9,223.1,96.2z"/>
								<g>
									<path class="st5" d="M264.7,147.2c0.7-0.5,1.4-1,2.2-1.7c-3.2-9.7-12.4-16-23.5-11.3c2,1.2,3.6,2.4,4.9,3.6
										c0.4-0.1,0.7-0.2,1.1-0.2c2.2-0.9,4.4-0.6,6.4,0.5C259.8,139.6,262.6,143.1,264.7,147.2z"/>
								</g>
								<g>
									<g>
										<g>
											<path class="st6" d="M133.3,126.7c0.1-0.1,0.1-0.2,0.2-0.2c0-0.1,0.1-0.1,0.1-0.2c0.1-0.1,0.1-0.2,0.2-0.3
												c0-0.1,0.1-0.1,0.1-0.2c0.1-0.1,0.1-0.2,0.2-0.3c0-0.1,0.1-0.2,0.1-0.3c0.1-0.1,0.1-0.2,0.2-0.4c0-0.1,0.1-0.2,0.1-0.3
												c0.1-0.1,0.1-0.3,0.2-0.4c0-0.1,0.1-0.2,0.1-0.3c0.1-0.1,0.1-0.3,0.2-0.4c0-0.1,0.1-0.2,0.1-0.3c0.1-0.1,0.1-0.3,0.2-0.4
												c0.1-0.1,0.1-0.3,0.2-0.4c0.1-0.1,0.1-0.3,0.2-0.4c0-0.1,0.1-0.3,0.2-0.4c0.1-0.1,0.1-0.3,0.2-0.4
												c0.1-0.1,0.1-0.3,0.2-0.4c0-0.1,0.1-0.3,0.1-0.4c0.1-0.2,0.1-0.3,0.2-0.5c0-0.1,0.1-0.3,0.1-0.4c0.1-0.2,0.1-0.4,0.2-0.5
												c0-0.1,0.1-0.2,0.1-0.4c0.1-0.2,0.1-0.4,0.2-0.6c0-0.1,0-0.2,0.1-0.3c0.1-0.2,0.1-0.4,0.2-0.7c0-0.1,0-0.1,0-0.2
												c0.1-0.3,0.1-0.5,0.2-0.7c0,0,0-0.1,0-0.1c0.8-3.7,1.2-7.2,0.5-8.7v0l0,0c-0.1-0.2-0.1-0.3-0.2-0.5
												c-2.3-3.1-11.2,2.7-11.2,2.7s-8.9-1.9-25.1,5.4c-13,5.9-17,9.8-18.2,13.4c0,0,0,0,0,0c0,0,0,0,0,0
												c-0.6,1.9-0.4,3.7-0.3,5.6c0,0.3,0,0.5,0,0.8c0,0.1,0,0.2,0,0.3c0,0.3,0,0.7,0,1c0,0.1,0,0.1,0,0.2c0,0.4,0,0.8-0.1,1.2
												c-1.5,13.1,37.9-7.3,41.7-8.5c0.3-0.1,0.6-0.2,0.9-0.3c0.1,0,0.1-0.1,0.2-0.1c0.2-0.1,0.5-0.3,0.7-0.4c0,0,0,0,0,0
												c0.2-0.2,0.4-0.3,0.6-0.5c0,0,0.1-0.1,0.1-0.1c0.2-0.2,0.3-0.3,0.4-0.5c0,0,0,0,0,0c0.1-0.2,0.2-0.4,0.3-0.6
												c0,0,0-0.1,0.1-0.1c0.1-0.2,0.2-0.3,0.2-0.5c0,0,0,0,0,0c0.1-0.2,0.1-0.3,0.2-0.5c0,0,0-0.1,0-0.1c0-0.1,0.1-0.3,0.1-0.4
												c0,0,0,0,0,0c0,0.2,0.1,0.4,0.1,0.6c0,0,0,0,0,0.1c0,0.1,0.1,0.2,0.1,0.3c0,0,0,0.1,0.1,0.1c0.1,0.1,0.1,0.2,0.2,0.3
												c0,0,0,0.1,0.1,0.1c0.1,0.1,0.2,0.3,0.3,0.4c0,0,0.1,0.1,0.1,0.1c0.1,0.1,0.2,0.2,0.3,0.3c0.1,0,0.1,0.1,0.2,0.1
												c0.1,0.1,0.3,0.2,0.4,0.3c0.1,0,0.1,0.1,0.2,0.1c0.2,0.1,0.4,0.3,0.7,0.4c0.1,0.1,0.2,0.1,0.3,0.1c0,0,0.1,0,0.1,0
												c0.1,0,0.1,0,0.2,0c0,0,0.1,0,0.1,0c0.1,0,0.1,0,0.2-0.1c0,0,0.1-0.1,0.1-0.1c0.1,0,0.1-0.1,0.2-0.1c0,0,0.1-0.1,0.1-0.1
												c0.1-0.1,0.1-0.1,0.2-0.2C133.2,126.9,133.2,126.8,133.3,126.7z"/>
											<g>
												<path class="st9" d="M84,134.2c0.9-7.7-5-11.8,18.5-22.4c16.2-7.3,25.1-5.4,25.1-5.4s8.9-5.8,11.2-2.7
													c2.3,3.1-3.1,22.8-6.6,20.9c-3.5-1.9-2.7-3.9-2.7-3.9s0,3.9-3.9,5C121.8,126.8,82.4,147.3,84,134.2z"/>
												<linearGradient id="SVGID_1_" gradientUnits="userSpaceOnUse" x1="83.9397" y1="121.3307" x2="139.4035" y2="121.3307">
													<stop  offset="0" style="stop-color:#D6C8CD"/>
													<stop  offset="1" style="stop-color:#F0D6CD"/>
												</linearGradient>
												<path class="st10" d="M132.6,117c-2.2-1.2-2.7-2.5-2.8-3.2c-0.2,1.2-0.9,3.5-3.8,4.4c-3.9,1.2-43.3,21.6-41.7,8.5
													c0.1-0.5,0.1-1,0.1-1.5c-0.9,2.9,0,5.6-0.4,9.1c-1.5,13.1,37.9-7.3,41.7-8.5c2.9-0.9,3.6-3.2,3.8-4.4
													c0.1,0.7,0.5,2,2.8,3.2c3.3,1.9,8.4-16.2,6.8-20.4C137.8,110.6,134.8,118.2,132.6,117z"/>
											</g>
										</g>
										<g>
											<g>
												<path class="st6" d="M221.7,141.6c-0.9-7.7,5-11.8-18.5-22.4c-16.2-7.3-25.1-5.4-25.1-5.4s-8.9-5.8-11.2-2.7
													s3.1,22.8,6.6,20.9c3.5-1.9,2.7-3.9,2.7-3.9s0,3.9,3.9,5C183.9,134.2,223.3,154.7,221.7,141.6z"/>
												<path class="st9" d="M220.6,138.7c-0.9-7.7,5-11.8-18.5-22.4c-16.2-7.3-25.1-5.4-25.1-5.4s-8.9-5.8-11.2-2.7
													c-2.3,3.1,3.1,22.8,6.6,20.9c3.5-1.9,2.7-3.9,2.7-3.9s0,3.9,3.9,5C182.7,131.3,222.1,151.8,220.6,138.7z"/>
											</g>
											<linearGradient id="SVGID_2_" gradientUnits="userSpaceOnUse" x1="151.9832" y1="75.0293" x2="201.0497" y2="136.0737">
												<stop  offset="0" style="stop-color:#D6C8CD"/>
												<stop  offset="1" style="stop-color:#F0D6CD"/>
											</linearGradient>
											<path class="st11" d="M220.1,129.3c0,0.8,0,1.6,0.1,2.4c1.5,13.1-37.9-7.3-41.7-8.5c-2.9-0.9-3.6-3.2-3.8-4.4
												c-0.1,0.7-0.5,2-2.8,3.2c-2.2,1.2-5.3-6.5-6.6-13c-1.2,4.8,3.7,21.8,6.9,20c2.2-1.2,2.7-2.5,2.8-3.2
												c0.2,1.1,0.9,3.5,3.8,4.4c3.9,1.2,43.3,21.6,41.7,8.5C220.1,135.1,221.2,132.3,220.1,129.3z"/>
										</g>
									</g>
									
										<linearGradient id="SVGID_3_" gradientUnits="userSpaceOnUse" x1="1404.1969" y1="286.804" x2="1415.0002" y2="286.804" gradientTransform="matrix(-0.8929 0.4503 -0.4503 -0.8929 1483.8918 -258.3428)">
										<stop  offset="0" style="stop-color:#D6C8CD"/>
										<stop  offset="1" style="stop-color:#F0D6CD"/>
									</linearGradient>
									<path class="st12" d="M95,117.7c-2.7,1.2-4.4,3.4-3.8,4.8c0.6,1.4,3.4,1.6,6.1,0.4c2.7-1.2,4.4-3.4,3.8-4.8
										C100.4,116.7,97.7,116.5,95,117.7z"/>
								</g>
							</g>
							<g>
								<g>
									<g>
										<g>
											<path class="st9" d="M295.3,186.8c0.3-1.2-1.1-2.3-2.1-1.5c-2.8,2-7.7,3.8-14.4-1c-10.8-7.7,4.8-23.1-10.7-30.1
												c-5.8-2.6-2.7-23.6,1.6-29.3c2.5-3.3-20,7.3-15.2,8.4c1,0.2,1.9-0.8,1.5-1.8c-1.1-3.2-3.1-7.3-4.6-9.1
												c-1.6-1.8-4.6-2.5-6.6-3.7c-2.1-1.3-3.7-3.3-5.8-4.7c-2.4-1.6-5.2-2-7.9-2.9c-0.9-0.3-1.8,0.3-1.8,1.2
												c-0.3,4.6-0.5,8.6-1.7,13.2c-1.2,4.5-2.4,8.9-3.4,13.5c-2,9.3-4.8,20.3-2.6,29.8c0.7,2.9,1.6,5.7,2.2,8.5
												c0.1,0.1,0.2,0.2,0.2,0.4c2.4,5.6,5,13.3,1,18.8c-4.8,6.6-12.2,8.8-20,7.2c-0.3-0.1-0.5-0.1-0.7-0.2
												c-0.3-0.2-0.7-0.2-1.1,0c-3.8,1.7-8.2,3.4-13.3,5.1c-7.9,2.7-3.9-8.1-20.1,3.9c-29.6,21.9-40.6,6.2-45.2-4.2
												c-2.8-6.3-20.3-4.8-32.9-8.3c-0.2-0.1-0.4-0.1-0.6,0c-8.9,1.9-22.6-3.2-20.1-14c0.1-0.4,0.2-0.7,0.4-1
												c-0.2-0.9-0.4-1.9-0.5-2.9c-0.6-9.1,0.4-19.6,5-27.7c1.8-3.1,4.6-4.8,5.8-8.4c1.4-3.9,1.1-8.6,0.7-12.6
												c-0.6-6.4,0.1-10.7,1.4-16.8c3-14.3-12-5.4-15.5,2.3c-0.3,0.7,0,1.5,0.7,1.8c3.8,1.6-11.3-3.6-9.4,0.7
												c1.9,4.4,5.5,2.5,3.5,6.7c-0.7,1.4-6.7-4.6-7.2,1.2c-0.6,7,3.7,22.9,1.6,26.2c-5.3,8-17.2,27.4-29.3,17.1
												c-1-0.9-2.5,0-2.3,1.3c0.8,3.7,2.6,8.9,6.3,11.7c0.7,0.5,0.8,1.5,0.2,2.2c-5.2,4.8-23.6,23.8-20.3,49
												c3.7,28.2,15.9,51.3,35.3,64.1c1,0.7,2.3-0.2,2.1-1.3l-0.4-3.1c-0.2-1.4,1.5-2.1,2.4-1.1c4.5,5.5,14.1,14.3,29.3,14.8
												c22.4,0.8,45.6,3.9,47.1,21.6c1.5,17.8-35.5,26.3-35.5,9.3c0-15,12-9.6,14.3-3.3c0.4,1,1.8,1.2,2.4,0.3
												c1.5-2.2,2.8-5.9-0.5-10.1c-5.4-7-31.7,1.5-21.6,27c10,25.4,60.8,26.3,101.7-3.7c0.2-0.1,0.4-0.2,0.6-0.2
												c4.1-0.6,47.7-8.3,70.6-52.9c0.1-0.2,0.3-0.4,0.5-0.5c4.2-2.7,51.3-34.7,21.6-101.1c-0.4-0.9,0.3-2,1.3-2
												C286.9,194.7,293.5,194,295.3,186.8z"/>
										</g>
										<g>
											<g>
												<linearGradient id="SVGID_4_" gradientUnits="userSpaceOnUse" x1="34.2176" y1="197.2049" x2="57.7825" y2="213.9069">
													<stop  offset="0" style="stop-color:#D6C8CD"/>
													<stop  offset="1" style="stop-color:#F0D6CD"/>
												</linearGradient>
												<path class="st13" d="M63.7,190.8c0.6-0.2,1-0.3,1-0.4c0,0-0.4,0-1.1,0.1c-0.7,0.1-1.6,0.2-2.8,0.5
													c-2.3,0.5-5.1,1.8-7.8,3.4c-2.7,1.6-5.1,3.6-6.8,5.1c-0.9,0.8-1.5,1.5-2,2c-0.5,0.5-0.8,0.8-0.8,0.8s-0.3,0.3-0.7,0.8
													c-0.4,0.5-1.1,1.2-1.8,2.2c-1.4,1.8-3.2,4.4-4.7,7.1c-1.5,2.7-2.9,5.5-3.6,7.7c-0.4,1.1-0.7,2-0.9,2.7
													c-0.2,0.6-0.3,1-0.2,1c0.1,0,0.7-1.4,1.6-3.5c0.9-2.1,2.4-4.8,4-7.4c1.6-2.6,3.5-5,4.9-6.8c0.7-0.9,1.4-1.6,1.8-2.1
													c0.4-0.5,0.7-0.8,0.7-0.8s0.3-0.3,0.7-0.8c0.5-0.5,1.1-1.2,1.9-2c1.6-1.6,3.9-3.6,6.5-5.2c2.5-1.6,5.3-3,7.4-3.7
													C62.1,191.1,63.1,191,63.7,190.8z"/>
												
													<linearGradient id="SVGID_5_" gradientUnits="userSpaceOnUse" x1="115.2709" y1="223.7166" x2="178.5975" y2="268.6002">
													<stop  offset="0" style="stop-color:#D6C8CD"/>
													<stop  offset="1" style="stop-color:#F0D6CD"/>
												</linearGradient>
												<path class="st14" d="M141.6,243.4c0.7,1.9,1.7,3.8,2.6,5.1c0.4,0.7,0.8,1.2,1.1,1.5c0.3,0.4,0.4,0.6,0.4,0.6
													c0,0,0.2,0.2,0.5,0.5c0.3,0.3,0.7,0.8,1.3,1.4c1.1,1.1,2.7,2.4,4.5,3.5c1.8,1,3.7,1.9,5.2,2.2c1.5,0.4,2.5,0.4,2.5,0.3
													c0-0.1-1-0.3-2.4-0.9c-1.4-0.5-3.2-1.4-4.9-2.5c-1.7-1.1-3.1-2.5-4.1-3.5c-0.5-0.5-0.9-1-1.2-1.3
													c-0.3-0.3-0.4-0.5-0.4-0.5c0,0-0.2-0.2-0.4-0.5c-0.3-0.3-0.7-0.8-1.1-1.4c-0.9-1.2-1.9-2.9-2.7-4.7
													c-0.8-1.8-1.3-3.8-1.6-5.2c-0.3-1.5-0.3-2.5-0.5-2.5c-0.1,0-0.2,1-0.1,2.6C140.4,239.4,140.9,241.4,141.6,243.4z"/>
												<linearGradient id="SVGID_6_" gradientUnits="userSpaceOnUse" x1="182.6884" y1="193.782" x2="265.0326" y2="252.1445">
													<stop  offset="0" style="stop-color:#D6C8CD"/>
													<stop  offset="1" style="stop-color:#F0D6CD"/>
												</linearGradient>
												<path class="st15" d="M232.5,248.7c-0.2,0.6-0.4,1.1-0.5,1.5c-0.3,0.8-0.4,1.3-0.4,1.3c0,0,0.3-0.4,0.6-1.2
													c0.2-0.4,0.4-0.9,0.6-1.4c0.2-0.6,0.5-1.2,0.7-1.9c1-2.8,1.8-6.8,2-10.8c0.1-4-0.3-8-0.9-11c-0.2-1.5-0.6-2.7-0.8-3.5
													c-0.2-0.7-0.3-1.1-0.3-1.3c0,0,0-0.1,0-0.1c0-0.1-0.2-0.6-0.4-1.3c-0.3-0.8-0.7-2-1.3-3.4c-1.1-2.8-2.9-6.4-4.9-9.8
													c-1.4-2.3-2.9-4.6-4.2-6.6c-0.4,0.4-0.8,0.7-1.2,1c1.5,1.8,3.2,3.6,4.5,6.1c1.8,3.5,3.5,7.1,4.5,9.8
													c0.6,1.4,0.9,2.6,1.2,3.4c0.3,0.8,0.4,1.3,0.4,1.3s0.1,0.5,0.4,1.3c0.2,0.8,0.6,2,0.9,3.4c0.7,2.9,1.2,6.8,1.2,10.7
													c0,3.9-0.7,7.8-1.5,10.7C232.9,247.5,232.7,248.1,232.5,248.7z"/>
												<linearGradient id="SVGID_7_" gradientUnits="userSpaceOnUse" x1="93.4491" y1="206.2319" x2="168.5092" y2="259.4317">
													<stop  offset="0" style="stop-color:#D6C8CD"/>
													<stop  offset="1" style="stop-color:#F0D6CD"/>
												</linearGradient>
												<path class="st16" d="M136,255.1c0.4,0.4,0.8,0.8,1.1,1.1c0.4,0.3,0.7,0.6,0.9,0.8c0.5,0.4,0.8,0.7,0.9,0.6
													c0,0-0.2-0.3-0.7-0.8c-0.2-0.2-0.5-0.5-0.8-0.9c-0.3-0.3-0.7-0.7-1-1.2c-1.5-1.7-3.2-4.3-4.6-7c-1.3-2.7-2.4-5.6-3-7.8
													c-0.4-1.1-0.5-2-0.6-2.7c-0.1-0.6-0.2-1-0.2-1s-0.1-0.4-0.2-1c-0.1-0.7-0.3-1.6-0.5-2.7c-0.3-2.3-0.5-5.3-0.4-8.4
													c0.2-3,0.6-6.1,1.1-8.3c0.5-2.2,1-3.7,0.9-3.8c0,0-0.2,0.3-0.5,1c-0.2,0.6-0.7,1.5-0.9,2.7c-0.7,2.2-1.3,5.3-1.6,8.4
													c-0.2,3.1-0.1,6.2,0.1,8.6c0.1,1.2,0.3,2.1,0.4,2.8c0.1,0.7,0.2,1.1,0.2,1.1s0.1,0.4,0.3,1c0.2,0.7,0.4,1.6,0.7,2.7
													c0.7,2.3,1.9,5.2,3.3,7.9C132.5,250.9,134.3,253.5,136,255.1z"/>
												<linearGradient id="SVGID_8_" gradientUnits="userSpaceOnUse" x1="38.84" y1="212.3322" x2="48.6772" y2="219.3045">
													<stop  offset="0" style="stop-color:#D6C8CD"/>
													<stop  offset="1" style="stop-color:#F0D6CD"/>
												</linearGradient>
												<path class="st17" d="M40.3,222.3c0.8-1.6,1.4-3.3,2.1-4.5c0.6-1.2,1.1-2,1.1-2s0.1-0.2,0.3-0.5
													c0.2-0.3,0.5-0.8,0.8-1.4c0.6-1.2,1.7-2.6,2.7-4.1c2.2-2.9,5.1-5.1,5-5.3c-0.1-0.1-3.2,1.9-5.7,4.7
													c-1.2,1.4-2.4,2.9-3.1,4.1c-0.4,0.6-0.7,1.1-0.9,1.4c-0.2,0.3-0.3,0.5-0.3,0.5c0,0-0.4,0.8-1,2.1
													c-0.6,1.2-1.2,3-1.9,4.7c0,0,0,0,0,0.1c-1.2,3.5-1.9,7.1-1.7,7.1C37.9,229.1,39,225.6,40.3,222.3z"/>
												<linearGradient id="SVGID_9_" gradientUnits="userSpaceOnUse" x1="52.5194" y1="132.7146" x2="88.2621" y2="158.0477">
													<stop  offset="0" style="stop-color:#D6C8CD"/>
													<stop  offset="1" style="stop-color:#F0D6CD"/>
												</linearGradient>
												<path class="st18" d="M59.5,162.2c-0.2,0.3-0.3,0.6-0.5,0.8c0,0,0,0,0,0.1c-0.4,0.6-0.9,1.3-1.4,2
													c2.8-2.1,5.5-3.9,8-5.4c1.3-0.8,2.7,0.7,1.8,2c0,0,0,0,0,0c-1.3,1.9-1.9,3.2-1.8,3.3c0.1,0.1,0.9-1.2,2.3-2.9
													c1.4-1.7,3.4-3.9,5.4-6.1c0.2-0.2,0.4-0.5,0.6-0.7c0.6-0.3,1.2-0.6,1.7-0.8c0.3-0.1,0.5-0.3,0.6-0.6
													c0.2-0.3,0.4-0.6,0.6-0.8c0.1-0.2,0.3-0.3,0.4-0.5c0.2-0.2,0.3-0.4,0.5-0.6c0.6-0.7,1.3-1.5,1.9-2.2
													c0.1-0.1,0.2-0.3,0.3-0.5c0.4-1.2,0.7-2.6,0.8-4.1v0c0.1-0.2,0.1-0.3,0.2-0.5c0-0.1,0.1-0.2,0.1-0.3
													c0.1-0.2,0-0.3,0.1-0.4c0.1-0.5,0.1-1,0.2-1.6c0-0.3,0.1-0.6,0.1-0.9c0-0.3,0-0.6,0-1c0-0.7,0-1.3,0-2.1
													c-0.1-1.4-0.3-3-0.6-4.5c-0.1-0.4-0.1-0.8-0.2-1.2c-0.1-1.1-0.2-1.8-0.2-1.8c0,0-0.1,0-0.1,0c-0.3-1.8-0.7-3.4-0.9-4.8
													c-0.2-1.1-0.3-2-0.3-2.7c-0.1-0.6-0.1-1-0.2-1s-0.1,0.4-0.1,1c0,0.7,0,1.6,0.1,2.7c0.1,0.9,0.2,2,0.3,3.1
													c0,0,0,0.1,0,0.1c0.7,3.2,0.3,6.7-0.8,9.8c0,0,0,0.1,0,0.1c-0.1,0.3-0.2,0.6-0.3,0.9c0,0.1-0.1,0.2-0.1,0.3
													c-0.1,0.3-0.3,0.7-0.4,1c-0.7,1.4-1.6,2.8-3,4c-5.2,4.8-10.9,9.2-14.2,15.6c-0.2,0.3-0.3,0.6-0.5,0.9
													C59.6,162.1,59.5,162.1,59.5,162.2z"/>
												
													<linearGradient id="SVGID_10_" gradientUnits="userSpaceOnUse" x1="223.0643" y1="216.6332" x2="252.6321" y2="237.5898">
													<stop  offset="0" style="stop-color:#D6C8CD"/>
													<stop  offset="1" style="stop-color:#F0D6CD"/>
												</linearGradient>
												<path class="st19" d="M239.4,239.1c0.2,0.1,1.3-2.6,1.8-5.5c0.2-1.4,0.5-2.9,0.5-4c0-0.5,0-1,0.1-1.3c0-0.3,0-0.5,0-0.5
													s-0.1-0.7-0.2-1.8c-0.1-1.1-0.4-2.5-0.7-3.9c0,0,0-0.1,0-0.1c-0.8-2.8-2.1-5.4-2.2-5.3c-0.2,0.1,0.8,2.7,1.2,5.5
													c0,0,0,0.1,0,0.1c0.1,1.4,0.4,2.7,0.4,3.8c0,1.1,0.1,1.8,0.1,1.8s0,0.2,0,0.5c0,0.3,0,0.7,0,1.3
													c0.1,1.1-0.1,2.5-0.1,3.9C239.9,236.3,239.2,239,239.4,239.1z"/>
												
													<linearGradient id="SVGID_11_" gradientUnits="userSpaceOnUse" x1="251.1508" y1="188.9944" x2="275.803" y2="206.4669">
													<stop  offset="0" style="stop-color:#D6C8CD"/>
													<stop  offset="1" style="stop-color:#F0D6CD"/>
												</linearGradient>
												<path class="st20" d="M260.4,194.3c0.9,0.9,1.8,1.8,2.7,2.7c1.9,1.9,3.8,3.9,5.3,5.6
													C265.8,198.7,263.4,196.4,260.4,194.3z"/>
												
													<linearGradient id="SVGID_12_" gradientUnits="userSpaceOnUse" x1="210.3856" y1="292.2634" x2="214.2811" y2="295.0243">
													<stop  offset="0" style="stop-color:#D6C8CD"/>
													<stop  offset="1" style="stop-color:#F0D6CD"/>
												</linearGradient>
												<path class="st21" d="M212.7,295.1c-0.1-1.7-0.3-2.6-0.3-2.6S212.5,293.4,212.7,295.1z"/>
												
													<linearGradient id="SVGID_13_" gradientUnits="userSpaceOnUse" x1="43.8674" y1="152.0092" x2="342.0212" y2="363.3296">
													<stop  offset="0" style="stop-color:#D6C8CD"/>
													<stop  offset="1" style="stop-color:#F0D6CD"/>
												</linearGradient>
												<path class="st22" d="M295.3,186.8c0.3-1.2-1.1-2.3-2.1-1.5c-2.8,2-7.7,3.8-14.4-1c-10.8-7.7,4.8-23.1-10.7-30.1
													c-5.8-2.6-6.9-15.5-2.6-21.3c2.5-3.3-15.8-0.7-11,0.4c1,0.2,1.9-0.8,1.5-1.8c-1.1-3.2-3.1-7.3-4.6-9.1
													c-1.6-1.8-4.6-2.5-6.6-3.7c-2.1-1.3-3.7-3.3-5.8-4.7c-2.4-1.6-5.2-2-7.9-2.9c-0.9-0.3-1.8,0.3-1.8,1.2
													c-0.3,4.8-0.5,9-1.9,13.9c-1.2,4.3-2.2,8.6-3.2,13c-0.2,0.8-0.4,1.7-0.6,2.5c-0.2,0.9-0.4,1.7-0.6,2.6
													c4.1-9.1,8.7-15.1,7-4.2c-1.5,9.8,1.4,19.1,5.7,27.8c3.8,7.7,9.1,14.9,12.4,22.8c3.1,7.4,4.3,15.3,5.8,23.1
													c0.7,3.7,1.7,7.3,2.1,10.9c0.3,3.1,1.3,9.7,0.3,12.6c3.8-11.5,0.8-26.7-2-38.1c-1.1-4.3-1.8-8.7-2.9-13
													c-0.3-1.3,1.2-2.2,2.3-1.4c3.1,2.7,6.8,4.6,9.7,7.7c5.1,5.3,9.5,12.4,11.1,19.7c3.8,16.7-2.4,34-10.2,48.7
													c-0.5,0.9-1.8,1-2.4,0.1l-0.4-0.6c-0.8-1.2-2.6-0.6-2.5,0.8c0.8,29.3-26.6,52.6-36,59.7c-1,0.8-2.5-0.2-2.2-1.4l2.1-8.6
													c0.4-1.4-1.5-2.4-2.4-1.2l-8.8,11.2c0.2-0.6,0.5-1.2,0.6-1.8c1-3.1,1.5-5.2,1.4-5.2c-0.2-0.1-0.9,2-2.1,4.9
													c-0.7,1.7-1.6,3.6-2.7,5.7c0,0.1-0.1,0.2-0.1,0.2l-1.2,1.5c3.6-5.5,5-12.7,5.3-19.1c0.1-1.6-2.1-2-2.7-0.6
													c-3.9,10.1-14,25-39,43.6c-34.5,25.6-65.4,19.1-82,8.9c0.3,0.4,0.6,0.8,0.9,1.2c0.2,0.2,0.3,0.4,0.5,0.7
													c0.3,0.4,0.6,0.7,0.9,1.1c0.2,0.2,0.4,0.4,0.6,0.7c0.3,0.3,0.7,0.7,1,1c0.2,0.2,0.4,0.4,0.7,0.6c0.4,0.3,0.7,0.6,1.1,1
													c0.2,0.2,0.4,0.3,0.6,0.5c1.4,1.1,3,2,4.7,2.9c0.2,0.1,0.5,0.3,0.7,0.4c0.5,0.2,1,0.5,1.5,0.7c0.3,0.1,0.6,0.2,0.9,0.4
													c0.5,0.2,1,0.4,1.6,0.6c0.3,0.1,0.6,0.2,0.9,0.3c0.6,0.2,1.1,0.4,1.7,0.6c0.2,0.1,0.4,0.1,0.6,0.2
													c2.1,0.6,4.3,1.1,6.7,1.4c0.2,0,0.4,0.1,0.7,0.1c0.7,0.1,1.4,0.2,2.1,0.2c0.3,0,0.6,0.1,0.8,0.1
													c0.7,0.1,1.4,0.1,2.2,0.2c0.3,0,0.5,0,0.8,0c0.8,0,1.6,0.1,2.4,0.1c0.1,0,0.2,0,0.3,0c2.8,0,5.7-0.1,8.7-0.4
													c0.1,0,0.1,0,0.2,0c0.9-0.1,1.8-0.2,2.8-0.3c0.2,0,0.4,0,0.5-0.1c0.9-0.1,1.9-0.3,2.8-0.4c0.1,0,0.3,0,0.4-0.1
													c5.2-0.9,10.5-2.2,16-4c0.1,0,0.2-0.1,0.3-0.1c1-0.3,2.1-0.7,3.1-1.1c0.1,0,0.2-0.1,0.3-0.1c5.4-2,10.9-4.5,16.3-7.5
													c4.6-2.6,9.2-5.5,13.7-8.7c0,0,0.2,0,0.6-0.1l0,0c0.4-0.1,1-0.2,1.8-0.3c0,0,0,0,0,0c0.5-0.1,1.1-0.2,1.8-0.4
													c0,0,0,0,0,0c0.7-0.2,1.4-0.3,2.2-0.5c0,0,0,0,0,0c3.7-0.9,8.7-2.5,14.4-5c0,0,0,0,0,0c12.3-5.3,27.9-14.8,40.6-31.5
													c0.9-1.1,1.7-2.3,2.6-3.5c0,0,0,0,0,0c0.8-1.2,1.7-2.5,2.5-3.7c0,0,0,0,0,0c0.8-1.3,1.6-2.6,2.4-3.9c0,0,0,0,0-0.1
													c0.7-1.2,1.4-2.5,2.1-3.8c0.1-0.2,0.3-0.4,0.5-0.5c4.2-2.7,51.3-34.7,21.6-101.1c-0.4-0.9,0.3-2,1.3-2
													C286.9,194.7,293.5,194,295.3,186.8z"/>
											</g>
											<linearGradient id="SVGID_14_" gradientUnits="userSpaceOnUse" x1="11.7764" y1="266.139" x2="155.9378" y2="266.139">
												<stop  offset="0" style="stop-color:#D6C8CD"/>
												<stop  offset="1" style="stop-color:#F0D6CD"/>
											</linearGradient>
											<path class="st23" d="M154.6,302.6c-0.2-0.3-0.5-0.6-0.7-0.9c-0.3-0.3-0.6-0.7-1-1c-0.7-0.7-1.5-1.6-2.4-2.3
												c-0.5-0.4-1-0.8-1.5-1.3c-0.5-0.4-1.1-0.8-1.7-1.2c-1.1-0.9-2.4-1.5-3.8-2.3c0,0-0.1,0-0.1,0c-2.7-1.4-5.8-2.7-9-3.6
												c-3.2-0.9-6.4-1.6-9.5-2.1c-3-0.5-5.9-0.9-8.4-1.1c-4.9-0.5-8.1-0.8-8.1-0.8s-0.8-0.1-2.2-0.2c-1.4-0.1-3.5-0.3-5.9-0.6
												c-4.4-0.5-10.2-1.3-15.8-3.1c0,0-0.1,0-0.1-0.1c-9.5-3.9-15.2-9.1-16.4-10.2c0-0.1-0.1-0.2-0.1-0.3
												c-0.1-0.4-0.2-0.6-0.3-0.6c0,0,0,0.2,0.1,0.7c0,0,0,0,0,0.1c-0.1-0.1-0.2-0.2-0.2-0.2c-0.2-0.2-0.4-0.4-0.6-0.6
												c-0.4-0.4-0.7-0.8-1-1.2c-0.7-0.7-1.2-1.4-1.6-2c-0.8-1.1-1.4-1.8-1.4-1.7c-0.1,0,0.3,0.8,1.1,2c0.4,0.6,0.8,1.4,1.4,2.2
												c0.3,0.4,0.6,0.8,1,1.3c0.2,0.2,0.3,0.5,0.5,0.7c0.2,0.2,0.4,0.4,0.6,0.7c0.1,0.2,0.3,0.3,0.5,0.5
												c2,11.8,10.4,19.3,16.8,23.3c1.3,0.8,0.5,2.9-1,2.5c-8.5-1.9-21.4-6.3-30-16.4c-10-11.7-15.6-28.2-18-36.5
												c-0.4-1.4-2.3-1.3-2.7,0l-2,7.8c-0.4-1.7-0.7-3.2-1-4.6c-0.3-1.6-0.6-3-0.8-4c-0.2-1-0.3-1.5-0.4-1.5c0,0,0,0.6,0.1,1.5
												c0.1,1,0.3,2.4,0.5,4c0.3,1.8,0.6,4,1.1,6.3l-0.1,0.6c0,0-10.8-25.5-0.8-54.9c2.5-7.2,6-13.5,10.2-19
												c0.1-0.2,0.3-0.3,0.4-0.4c0.6-0.4,1.3-0.7,2.1-1c1.6-0.7,3.3-1.2,4.5-1.5c1.3-0.3,2.2-0.4,2.1-0.5c0-0.1-0.9-0.1-2.2,0
												c-1.3,0.2-3.1,0.4-4.8,1.1c-0.1,0-0.2,0.1-0.4,0.1c0.6-0.7,1.1-1.4,1.7-2c0.9-1,0-2.6-1.3-2.3c-4.6,1.2-9.5,0.6-14-3.2
												c-1-0.9-2.5,0-2.3,1.3c0.8,3.6,2.4,8.5,5.9,11.4c0.6,0.5,0.7,1.4,0.2,2c-0.4,0.4-0.7,0.8-1.1,1.3c-1,1.2-1.8,2.4-2.6,3.4
												c0,0-0.1,0.1-0.1,0.1c-7.3,8-18.8,24.3-16.1,44.8c3.7,28.2,15.9,51.3,35.3,64.1c1,0.7,2.3-0.2,2.1-1.3l-0.2-1.3
												c-0.2-1.3,1.5-2.1,2.4-1.1c1.7,1.8,3.4,3.5,4.8,4.8c1.2,1.1,2.3,2.1,3,2.7c0.7,0.6,1.2,1,1.2,0.9s-0.3-0.5-1-1.2
												c-0.7-0.7-1.6-1.7-2.8-2.9c-2.3-2.4-5.3-5.7-8-9.2c-0.1-0.2-0.3-0.4-0.4-0.5l-0.1-0.9c0,0,10,18.5,32.5,19.3
												c22.4,0.8,45.6,3.9,47.1,21.6c1.5,17.8-35.5,26.3-35.5,9.3c0-13.1,9.2-10.6,13-5.6c0.1,0.3,0.2,0.6,0.3,0.9
												c0.4,1.5,0.5,2.4,0.6,2.3c0,0,0-0.2,0-0.6c0-0.3,0-0.8-0.1-1.4c0.6,1.2,1,2.4,0.9,3.6c0,0,0.3-0.2,0.7-0.6
												c0.5-0.5,0.5-1.2,0.2-1.7c-0.6-0.9-1.3-1.9-2-2.9c-0.1-0.1-0.1-0.2-0.2-0.4c-0.1-0.4-0.3-0.8-0.5-1.2
												c-0.5-1-1.3-2-2.5-2.8c-0.7-0.5-1.6-0.8-2.6-0.9c-3.4-1.7-7.2-1.2-10.9,5c0,0.1-0.1,0.1-0.1,0.2c-1,1.3-1.9,2.8-2.4,4.4
												c-0.5,1.8-0.7,3.8-0.3,5.6c0.4,1.8,1.1,3.5,2.1,5c2,2.9,4.6,4.9,6.8,6.4c2.4,1.5,4.6,2.2,6.1,2.6
												c0.8,0.2,1.4,0.4,1.8,0.4c0.4,0.1,0.6,0.1,0.6,0.1s0.9,0.2,2.5,0.3c1.6,0.1,3.9,0.1,6.6-0.2c5.4-0.6,12.3-2.7,18.6-6.1
												c6.3-3.4,11.9-7.9,15.4-12c1.7-2,3-3.9,3.7-5.3c0.7-1.4,1-2.2,1-2.2c-0.2-0.1-1.7,3.2-5.3,7c-3.6,3.8-9.2,8.1-15.5,11.2
												c-6.2,3.1-13,5-18.2,5.5c-2.6,0.3-4.7,0.2-6.2,0c-1.5-0.1-2.3-0.3-2.3-0.3c0,0-0.8-0.1-2.3-0.5c-1.4-0.4-3.5-1-5.6-2.3
												c-0.1-0.1-0.3-0.2-0.4-0.3c6.9,2.4,16.8,1.9,27.2-2.6c23.2-10,30.1-27.8,25.5-38.6c-3.3-7.6-16.6-14.9-24.1-18.5
												c-1.3-0.6-0.9-2.6,0.5-2.6l9.9-0.4c0.2,0,0.3,0,0.5,0.1c2.5,0.8,4.9,1.7,7.2,2.8c0,0,0.1,0,0.1,0
												c1.3,0.7,2.6,1.3,3.7,2.1c0.6,0.4,1.2,0.7,1.7,1.1c0.5,0.4,1,0.8,1.5,1.2c3.8,3,5.8,5.6,6,5.5
												C156,304.4,155.5,303.7,154.6,302.6z"/>
										</g>
									</g>
									
										<linearGradient id="SVGID_15_" gradientUnits="userSpaceOnUse" x1="1407.7495" y1="377.8808" x2="1425.0134" y2="377.8808" gradientTransform="matrix(-0.7873 0.6165 -0.6165 -0.7873 1387.3303 -383.335)">
										<stop  offset="0" style="stop-color:#D6C8CD"/>
										<stop  offset="1" style="stop-color:#F0D6CD"/>
									</linearGradient>
									<path class="st24" d="M37.3,194.3c0.7,0.5,0.4,2-0.6,3.4c-1,1.3-2.4,2-3.1,1.4c-0.7-0.5-0.4-2,0.6-3.4
										C35.2,194.4,36.6,193.8,37.3,194.3z M40.8,187.7c-2.1,1.5-3.2,3.6-2.4,4.7c0.8,1.1,3.1,0.8,5.2-0.7
										c2.1-1.5,3.2-3.6,2.4-4.7C45.2,185.9,42.9,186.2,40.8,187.7z"/>
								</g>
							</g>
						</g>
					</g>
					<g>
						<g>
							<g>
								<path class="st25" d="M72.1,62.4c0,0,17.4-42.9,78.2-51S250,36.3,265.6,47.3s27.2,21.4,29.6,40.6
									c2.3,19.1-19.7,38.2-11.6,42.9c8.1,4.6,23.8,1.7,19.1,21.4c0,0-2.9,7-4.1,2.3c-1.2-4.6,0.6-14.5-4.6-15.6
									c-5.2-1.2-14.5,6.4-23.2,3.5c-8.7-2.9-15.6-19.7-14.5-31.9c1.2-12.2-26.7-44.6-81.1-49.8S62.2,73.9,72.1,62.4z"/>
								<g>
									<path class="st25" d="M72.6,65.8c0,0,17.4-42.9,78.2-51s99.7,24.9,115.3,35.9c14.7,10.3,25.8,20.2,29,37.2c0,0,0-0.1,0-0.1
										c-2.3-19.1-13.9-29.6-29.6-40.6s-54.5-44-115.3-35.9s-78.2,51-78.2,51C70.4,64.3,70.7,65.4,72.6,65.8
										C72.5,65.9,72.6,65.8,72.6,65.8z"/>
									<path class="st25" d="M282.5,129.8c-0.4,2,0,3.5,1.7,4.4c6.2,3.6,16.9,2.7,19.4,11c-0.4-12.1-13-10.5-19.9-14.5
										C283.1,130.5,282.7,130.1,282.5,129.8z"/>
									<path class="st25" d="M256.9,113.9c0.1-1.2-0.1-2.6-0.5-4.2c0,0.2,0,0.5,0,0.7c-0.3,3.2-0.1,6.6,0.6,10.1
										C256.7,118.3,256.7,116,256.9,113.9z"/>
									<path class="st25" d="M298,146.4c0.2,2.9,0.2,6.1,0.7,8.1c0,0.2,0.1,0.3,0.1,0.4C298.6,152.2,298.6,148.9,298,146.4z"/>
								</g>
								<path class="st26" d="M175.2,60.6c54.5,5.2,82.3,37.7,81.1,49.8c-1.2,12.2,5.8,29,14.5,31.9c8.7,2.9,18-4.6,23.2-3.5
									c5.2,1.2,3.5,11,4.6,15.6c1.2,4.6,4.1-2.3,4.1-2.3c3.1-13.1-2.8-16.2-9.4-18.2c-3.8,1.9-8.1,5.2-16.5,1.2
									c-7.1-3.4-1.1-9.1,7-14.1c4.1-8.5,12.8-20.8,11.3-33.2c-1.6-13.4-7.8-22.5-16.7-30.6c-0.1,2.9-0.7,5.6-2,8
									c-5.8,10.4-30.9-24.7-86.9-36.3s-74.2,6.2-85.4,6.6c-3.3,0.1-4.6-1.9-4.9-4.7C79,45.4,72.1,62.4,72.1,62.4
									C62.2,73.9,120.7,55.4,175.2,60.6z"/>
							</g>
							<path class="st26" d="M281.8,77.7c-1.2,0.8-3.4-0.4-5-2.7c-1.5-2.3-1.8-4.8-0.6-5.6c1.2-0.8,3.4,0.4,5,2.7
								C282.7,74.3,283,76.9,281.8,77.7z M290.4,86.7c-1.2-4.1-4-6.9-6.1-6.2c-2.1,0.6-2.9,4.5-1.7,8.6c1.2,4.1,4,6.9,6.1,6.2
								C290.9,94.6,291.6,90.7,290.4,86.7z"/>
						</g>
						<g>
							<g>
								<path class="st9" d="M300.8,144.8c0,0-12.7,0-18.9,10c-6.2,10-1.5,19.3-1.5,19.3l2.7-5c0,0-0.4,24.7,22,21.6
									c22.4-3.1,21.3-17,21.3-17l2.3,8.5c0,0,11.2-21.6-3.5-31.3l4.6-3.1C329.8,147.9,315.1,129,300.8,144.8z"/>
							</g>
							<linearGradient id="SVGID_16_" gradientUnits="userSpaceOnUse" x1="278.6505" y1="156.3645" x2="332.6951" y2="156.3645">
								<stop  offset="0" style="stop-color:#D6C8CD"/>
								<stop  offset="1" style="stop-color:#F0D6CD"/>
							</linearGradient>
							<path class="st27" d="M314.7,146.8c-5.1,0.9-3.3-4,0.9-8c-4.5-0.8-9.7,0.4-14.8,6.1c0,0-12.7,0-18.9,10
								c-2.3,3.8-3.1,7.5-3.2,10.6c1-2.4,3.2-4.9,7.5-6.3c0,0-4.2,8.1,7.7,13.9c12,5.8,19.3-12.4,19.3-12.4l5,9.3
								c0,0,3.1-10-0.4-15.8c0,0,11,5.9,14.9,13.7c0.4-6-1.1-12.5-7.5-16.8l1.8-1.2C322.8,147.7,318.3,146.1,314.7,146.8z"/>
							<linearGradient id="SVGID_17_" gradientUnits="userSpaceOnUse" x1="294.9619" y1="182.7554" x2="314.9857" y2="182.7554">
								<stop  offset="0" style="stop-color:#D6C8CD"/>
								<stop  offset="1" style="stop-color:#F0D6CD"/>
							</linearGradient>
							<path class="st28" d="M308.2,182.4c-0.2-1,1.1-2.2,2.9-2.6c1.9-0.5,3.6-0.1,3.8,0.9c0.2,1-1.1,2.2-2.9,2.6
								C310.1,183.8,308.4,183.4,308.2,182.4z M300.2,186c3,0.1,5.5-1,5.5-2.6c0.1-1.6-2.3-2.9-5.3-3.1c-3-0.1-5.5,1-5.5,2.6
								C294.9,184.4,297.2,185.8,300.2,186z"/>
						</g>
						<g>
							<g>
								<g>
									<path class="st9" d="M282.6,94.3c-16.1-31.2-42.4-28.2-42.4-28.2c-10.7-22.1-50-27.7-51.3-27.2c-1.3,0.5,6.7,8.6,6.7,8.6
										c-44.2-30.2-70-13-70-13l8.1,3.5c0,0-19.6,0.8-44.6,9.9c-25,9.1-38.9,35.8-38.9,35.8l6.2,1.5c-9.8,12.6-0.4,27.7-0.4,27.7
										c-11.4,9.2-0.6,23.1-0.6,23.1c6.2-11.1,10.2-14.1,15.6-18.2c5.4-4,35.8-18,57.7-22c27.8-5,58-1.7,90.5,19.9
										c13,8.7,24.7,13.2,30.2,18.4c0.4-0.1,0.7-0.2,1.1-0.2c2.2-0.9,4.4-0.6,6.4,0.5c3.9,1.5,6.7,5,8.8,9.1
										c0.9-0.6,1.9-1.4,3-2.4c6.7-6,1.8-12.1,1.8-12.1s4.5,1,8.5-12.1c4-13.1-5.4-23.1-5.4-23.1L282.6,94.3z"/>
								</g>
								<g>
									<linearGradient id="SVGID_18_" gradientUnits="userSpaceOnUse" x1="98.1419" y1="40.7692" x2="145.0846" y2="40.7692">
										<stop  offset="0" style="stop-color:#D6C8CD"/>
										<stop  offset="1" style="stop-color:#F0D6CD"/>
									</linearGradient>
									<path class="st29" d="M128.4,35.7l5.4,2.3c0,0-14.7,0.6-34.9,6.6c-0.5,0.8-0.7,1.2-0.7,1.2l46.9-3.5
										C141.8,39.3,134.8,37.1,128.4,35.7z"/>
									<linearGradient id="SVGID_19_" gradientUnits="userSpaceOnUse" x1="50.2575" y1="93.6669" x2="282.628" y2="93.6669">
										<stop  offset="0" style="stop-color:#D6C8CD"/>
										<stop  offset="1" style="stop-color:#F0D6CD"/>
									</linearGradient>
									<path class="st30" d="M240.3,66.1c-5.4-11.2-18.1-18.1-29.5-22.2c5.3,3.8,14.5,9.4,17.8,15.2c3.3,5.8-2.5,8-6.7,10
										c8.7-4,36.2,4.4,37.4,10.7c1.2,6.4-12.7,2-12.7,2s15.4,6.7,12.5,14.5s-13.3,4.6-13.3,4.6s7.5,5.8,3.5,11.9
										s-40.9-24.1-84.6-31.6c-43.8-7.5-99,30.4-106.3,20c-8.3-11.8,16.2-34,16.2-34S57.6,81.8,57.3,78.6c0-0.3,0-0.6,0.1-1.1
										c0.4-1.8,1.7-5.1,3.3-8.7c-6.8,8-10.4,14.9-10.4,14.9l6.2,1.5c-9.8,12.6-0.4,27.7-0.4,27.7c-11.4,9.2-0.6,23.1-0.6,23.1
										c6.2-11.1,10.2-14.1,15.6-18.2c5.4-4,35.8-18,57.7-22c27.8-5,58-1.7,90.5,19.9c13,8.7,24.7,13.2,30.2,18.4
										c0.4-0.1,0.7-0.2,1.1-0.2c2.2-0.9,4.4-0.6,6.4,0.5c3.9,1.5,6.7,5,8.8,9.1c0.9-0.6,1.9-1.4,3-2.4c6.7-6,1.8-12.1,1.8-12.1
										s4.5,1,8.5-12.1c4-13.1-5.4-23.1-5.4-23.1l8.9,0.5C266.6,63.1,240.3,66.1,240.3,66.1z"/>
									<linearGradient id="SVGID_20_" gradientUnits="userSpaceOnUse" x1="155.5435" y1="42.7712" x2="201.3" y2="42.7712">
										<stop  offset="0" style="stop-color:#D6C8CD"/>
										<stop  offset="1" style="stop-color:#F0D6CD"/>
									</linearGradient>
									<path class="st31" d="M201.3,55.2l-5.6-7.7c-14.5-9.4-27.4-16.4-40.1-17.2C175.8,38.8,201.3,55.2,201.3,55.2z"/>
								</g>
							</g>
							
								<linearGradient id="SVGID_21_" gradientUnits="userSpaceOnUse" x1="1409.9277" y1="301.4558" x2="1429.9507" y2="301.4558" gradientTransform="matrix(-0.924 0.3824 -0.3824 -0.924 1508.2852 -205.4793)">
								<stop  offset="0" style="stop-color:#D6C8CD"/>
								<stop  offset="1" style="stop-color:#F0D6CD"/>
							</linearGradient>
							<path class="st32" d="M78.2,60.5c0.6,0.8-0.2,2.4-1.7,3.6c-1.5,1.2-3.3,1.4-3.9,0.6c-0.6-0.8,0.2-2.4,1.7-3.6
								C75.8,60,77.6,59.7,78.2,60.5z M84.1,54.2c-2.8,1-4.7,3-4.1,4.5c0.5,1.5,3.2,1.8,6,0.8c2.8-1,4.7-3,4.1-4.5
								C89.7,53.6,87,53.2,84.1,54.2z"/>
						</g>
					</g>
					<g>
						<g>
							<g>
								<g>
									<path class="st9" d="M85.4,194.2c0,0,8.1-6.4-0.6-13.3c-8.7-7-13.3-1.7-13.3-1.7l1.7-5.8c0,0-20.9,9.9-13.9,31.3
										c0,0-7,17.4,19.1,23.8s52.7-15.1,52.7-15.1s5.8,8.7,21.4,4.6c0,0,11,18.5,31.9,17.4c20.9-1.2,26.7-7,26.7-7
										s15.1,3.3,23.2-12.9s-2.3-30.5-13.9-32.8c-11.6-2.3-13.9,2.9-13.9,2.9l5.2,1.2c0,0-13.9,8.7-4.6,16.2
										c0,0,4.6-13.3,13.9-8.7c9.3,4.6-3.7,22-17.1,16.8c-17.3-6.7-20.9-40.9-63.5-26.4c0,0-10.1-7-25.8-2.9s-17.1,14.8-22.9,20.6
										s-15.6,4.1-17.4-2.3C71.2,188.5,84.8,184.4,85.4,194.2z"/>
								</g>
								<g>
									<linearGradient id="SVGID_22_" gradientUnits="userSpaceOnUse" x1="206.5158" y1="184.38" x2="209.1848" y2="184.38">
										<stop  offset="0" style="stop-color:#D6C8CD"/>
										<stop  offset="1" style="stop-color:#F0D6CD"/>
									</linearGradient>
									<path class="st33" d="M209.2,183.2c-2.1,1-2.7,2.3-2.7,2.3l0.2,0C207.5,184.7,208.4,183.8,209.2,183.2z"/>
									<linearGradient id="SVGID_23_" gradientUnits="userSpaceOnUse" x1="86.5508" y1="213.986" x2="118.1379" y2="213.986">
										<stop  offset="0" style="stop-color:#D6C8CD"/>
										<stop  offset="1" style="stop-color:#F0D6CD"/>
									</linearGradient>
									<path class="st34" d="M103,217.1c-0.4,0.2-1,0.6-1.8,0.9c-1.5,0.7-3.6,1.5-5.7,2.1c-2.2,0.5-4.4,0.9-6,0.8
										c-0.8,0.1-1.5-0.1-2-0.1c-0.5,0-0.8,0-0.8,0c0,0,0.3,0.1,0.7,0.3c0.5,0.1,1.2,0.3,2,0.4c1.7,0.2,4,0,6.3-0.4
										c2.3-0.4,4.4-1.2,6-1.8c0.8-0.3,1.4-0.6,1.9-0.8c0.5-0.2,0.7-0.3,0.7-0.3c0,0,1-0.5,2.5-1.4c1.5-0.9,3.4-2.2,5.1-3.6
										c1.8-1.5,3.4-3,4.5-4.3c1.1-1.3,1.8-2.2,1.7-2.3c-0.1-0.1-0.9,0.8-2.1,1.9c-1.2,1.2-3,2.6-4.8,3.9
										c-1.8,1.3-3.7,2.5-5.2,3.3c-1.5,0.8-2.5,1.3-2.5,1.3S103.4,216.9,103,217.1z"/>
									<linearGradient id="SVGID_24_" gradientUnits="userSpaceOnUse" x1="111.7573" y1="183.8066" x2="133.205" y2="183.8066">
										<stop  offset="0" style="stop-color:#D6C8CD"/>
										<stop  offset="1" style="stop-color:#F0D6CD"/>
									</linearGradient>
									<path class="st35" d="M120.5,183.1c0.5-0.1,0.9-0.2,1.2-0.3c0.3-0.1,0.5-0.1,0.5-0.1s0.7-0.1,1.7-0.3
										c0.5-0.1,1.1-0.2,1.7-0.3c0.6,0,1.3-0.1,2-0.2c2.8,0,5.5,0.6,5.6,0.4c0.1-0.1-2.6-1.2-5.6-1.4c-0.7,0-1.4,0-2.1,0
										c-0.7,0-1.3,0.1-1.9,0.1c-1.1,0.1-1.8,0.2-1.8,0.2s-0.2,0-0.5,0.1c-0.3,0.1-0.7,0.2-1.3,0.4c-1.1,0.3-2.4,0.9-3.7,1.5
										c-2.6,1.4-4.8,3.2-4.7,3.3c0.1,0.2,2.5-1.3,5.1-2.4C118.2,183.9,119.5,183.3,120.5,183.1z"/>
									<linearGradient id="SVGID_25_" gradientUnits="userSpaceOnUse" x1="121.8965" y1="184.5712" x2="134.6534" y2="184.5712">
										<stop  offset="0" style="stop-color:#D6C8CD"/>
										<stop  offset="1" style="stop-color:#F0D6CD"/>
									</linearGradient>
									<path class="st36" d="M127.7,182.9c0,0-1.7,0.6-3.1,1.6c-1.5,0.9-2.8,2-2.7,2.2c0.1,0.2,1.6-0.6,3.2-1.3
										c1.5-0.7,3.1-1.1,3.1-1.1s1.5-0.6,3.1-0.8c0.8-0.1,1.6-0.1,2.2,0c0.6,0.1,1,0.2,1.1,0.1c0-0.1-0.3-0.4-0.9-0.6
										c-0.6-0.3-1.5-0.4-2.4-0.5C129.5,182.4,127.7,182.9,127.7,182.9z"/>
									<linearGradient id="SVGID_26_" gradientUnits="userSpaceOnUse" x1="142.7664" y1="186.9411" x2="161.6083" y2="186.9411">
										<stop  offset="0" style="stop-color:#D6C8CD"/>
										<stop  offset="1" style="stop-color:#F0D6CD"/>
									</linearGradient>
									<path class="st37" d="M151.2,185.3c0.9,0.3,1.5,0.5,1.5,0.5s0.6,0.2,1.5,0.5c0.9,0.2,2,0.9,3.2,1.4c2.2,1.2,4.1,3,4.3,2.8
										c0.1-0.1-1.5-2.2-3.7-3.7c-1.1-0.7-2.2-1.4-3.2-1.8c-0.9-0.4-1.5-0.7-1.5-0.7s-0.6-0.2-1.6-0.4c-1-0.3-2.3-0.4-3.6-0.5
										c-2.6-0.2-5.2,0.1-5.2,0.3c0,0.2,2.6,0.3,5.1,0.7C149.1,184.8,150.3,185,151.2,185.3z"/>
								</g>
								<g>
									<linearGradient id="SVGID_27_" gradientUnits="userSpaceOnUse" x1="82.7094" y1="216.8" x2="82.7426" y2="216.8">
										<stop  offset="0" style="stop-color:#D6C8CD"/>
										<stop  offset="1" style="stop-color:#F0D6CD"/>
									</linearGradient>
									<path class="st38" d="M82.7,216.8C82.7,216.8,82.7,216.8,82.7,216.8C82.8,216.8,82.7,216.8,82.7,216.8z"/>
									<g>
										<linearGradient id="SVGID_28_" gradientUnits="userSpaceOnUse" x1="224.9728" y1="184.6285" x2="225.7697" y2="184.6285">
											<stop  offset="0" style="stop-color:#D6C8CD"/>
											<stop  offset="1" style="stop-color:#F0D6CD"/>
										</linearGradient>
										<path class="st39" d="M225,184.2c0.2,0.4,0.5,0.6,0.8,0.9c-0.2-0.3-0.4-0.5-0.7-0.8C225.1,184.2,225,184.2,225,184.2z"/>
										<linearGradient id="SVGID_29_" gradientUnits="userSpaceOnUse" x1="57.9069" y1="206.3639" x2="237.2058" y2="206.3639">
											<stop  offset="0" style="stop-color:#D6C8CD"/>
											<stop  offset="1" style="stop-color:#F0D6CD"/>
										</linearGradient>
										<path class="st40" d="M235.2,213.5c0,0,0-0.1,0.1-0.1c0-0.1,0.1-0.2,0.1-0.3c0.1-0.2,0.2-0.5,0.3-0.7c0,0,0,0,0,0
											c0.2-0.6,0.4-1.3,0.6-1.9c0-0.1,0.1-0.3,0.1-0.4c0.1-0.6,0.3-1.1,0.4-1.6c0-0.1,0-0.2,0-0.2c0.1-0.6,0.2-1.2,0.3-1.8
											c0-0.1,0-0.2,0-0.3c0-0.5,0.1-1,0.1-1.5c0-0.1,0-0.2,0-0.3c0-1.2-0.1-2.3-0.2-3.5c0-0.1,0-0.2,0-0.3
											c-0.1-0.5-0.2-1-0.3-1.5c0,0,0-0.1,0-0.1c-0.1-0.6-0.3-1.1-0.5-1.7c0,0,0-0.1,0-0.1c-0.2-0.5-0.3-1-0.5-1.5
											c0-0.1,0-0.1-0.1-0.2c-0.4-1-1-2-1.5-3c0,0,0-0.1-0.1-0.1c-0.9-1.4-1.9-2.7-3.1-3.9c0,0,0,0,0,0c-0.8-0.8-1.6-1.5-2.5-2.2
											c-0.9-0.3-1.8-0.6-2.5-1.1c5,6.3,10.3,12.9,7.1,21.3c-0.4,1-0.7,1.7-1,2.3c-0.1,0.3-0.2,0.5-0.3,0.6
											c-0.1,0.1-0.1,0.2-0.1,0.2c0,0-0.6,1.3-1.8,2.9c-1.2,1.7-3,3.7-5.2,5.4c-0.6,0.4-1.2,0.7-1.7,1c-1.5,0.9-3,1.6-4.5,2.2
											c-0.2,0.1-0.5,0.1-0.7,0.2c-2,0.5-3.5,0.4-3.5,0.5c0,0.1,0.3,0.1,1,0.2c0.2,0,0.4,0,0.6,0c-7,2-14.2,1.7-19.8-3.3
											c-4.5-4-7.3-9.7-8.8-15.5c-1.4-5.5-1.5-7.7,0.3-7.3c-0.5-0.5-0.9-1.1-1.4-1.6c0,0,0,0,0-0.1c-0.5-0.5-0.9-1-1.4-1.5
											c0,0,0,0-0.1-0.1c0,0,0,0,0,0c-0.5-0.5-1-1-1.5-1.5c0,0,0,0,0,0c0,0,0,0,0,0c-0.5-0.5-1-1-1.5-1.4c0,0,0,0-0.1-0.1
											c-0.5-0.5-1.1-0.9-1.7-1.4c0,0,0,0,0,0c0,0,0,0,0,0c-0.8-0.6-1.6-1.2-2.5-1.8v0c-6-4-13.8-6.3-24.8-4.6
											c-0.1,0-0.1,0-0.2,0c-0.1,0-0.2,0-0.4,0.1c-0.8,0.1-1.5,0.3-2.3,0.4c-0.2,0-0.3,0.1-0.5,0.1c-0.7,0.2-1.5,0.3-2.3,0.5
											c0,0-0.1,0-0.1,0c-0.1,0-0.1,0-0.2,0c-0.8,0.2-1.7,0.5-2.6,0.7c-0.1,0-0.1,0-0.2,0.1c-0.1,0-0.3,0.1-0.4,0.1
											c-0.9,0.3-1.8,0.6-2.7,0.9c-0.1-0.1-0.3-0.2-0.4-0.3c-0.1,0-0.2-0.1-0.3-0.2c-0.1,0-0.1-0.1-0.2-0.1
											c-0.1-0.1-0.2-0.1-0.3-0.2c-0.1-0.1-0.2-0.1-0.3-0.2c-0.2-0.1-0.3-0.2-0.5-0.2c-0.1,0-0.2-0.1-0.3-0.1
											c-0.2-0.1-0.4-0.2-0.7-0.3c-0.1,0-0.1,0-0.2-0.1c-3.9-1.7-11.3-3.7-20.9-1.6c0,0,0,0,0,0c-0.2,0.1-0.5,0.1-0.7,0.2
											c0.6,0,1,0.4,1.5,0.7c-1,1.4-3.8,2.1-5.3,3.2c-2.6,1.8-5.2,4.6-7.4,6.8c-1,1-7.8,7.1-7.7,7.8c-0.2-2.4,0.9-5,1.8-7.2
											c-0.3,0.4-0.6,0.8-0.9,1.3c0,0,0,0,0,0c0,0,0,0,0,0c-0.3,0.4-0.5,0.8-0.8,1.2c0,0,0,0,0,0c0,0,0,0,0,0
											c-0.2,0.3-0.4,0.6-0.6,0.9c-0.3,0.5-0.7,1.1-1,1.6c0,0,0,0,0,0c0,0,0,0,0,0c-0.2,0.3-0.4,0.7-0.6,1c0,0,0,0,0,0
											c0,0.1-0.1,0.1-0.1,0.2c0,0,0,0,0,0c-0.2,0.3-0.5,0.6-0.7,1c0,0,0,0,0,0c0,0-0.1,0.1-0.1,0.1c-0.3,0.3-0.5,0.7-0.8,1
											c0,0,0,0,0,0c0,0-0.1,0.1-0.1,0.1c0,0,0,0,0,0c-0.3,0.3-0.5,0.6-0.8,0.9c-5.8,5.8-15.6,4.1-17.4-2.3
											c-0.1-0.4-0.2-0.7-0.2-1c0,0,0,0,0,0c0-0.1,0-0.2,0-0.2c0,0,0,0,0-0.1c0-0.2-0.1-0.5-0.1-0.7c0,0,0,0,0,0
											c0-0.1,0-0.2,0-0.3c0,0,0,0,0,0c0-0.1,0-0.1,0-0.2c0-0.3,0-0.5,0-0.8c0-0.2,0-0.3,0-0.5c0,0,0,0,0,0c0-0.1,0-0.2,0-0.3
											c0,0,0,0,0,0c0-0.2,0-0.3,0.1-0.5c0,0,0,0,0,0c0-0.1,0-0.2,0.1-0.3c0,0,0,0,0,0c0-0.1,0-0.2,0.1-0.3
											c0.1-0.4,0.2-0.8,0.4-1.2c0,0,0,0,0,0c0.1-0.1,0.1-0.3,0.2-0.4c0,0,0,0,0,0c0-0.1,0.1-0.2,0.1-0.3c0,0,0,0,0,0
											c0.1-0.1,0.1-0.3,0.2-0.4c0,0,0,0,0,0c0-0.1,0.1-0.2,0.1-0.3v0c0.1-0.1,0.1-0.2,0.2-0.3c0,0,0,0,0,0
											c0.2-0.3,0.4-0.5,0.6-0.8c0,0,0,0,0,0c0.1-0.1,0.2-0.2,0.3-0.3c0,0,0,0,0,0c0.1-0.1,0.1-0.1,0.2-0.2c0,0,0,0,0,0
											c0.1-0.1,0.1-0.1,0.2-0.2c0.3-0.2,0.6-0.5,0.8-0.6v0c0,0,0,0,0.1,0c0.2-0.1,0.3-0.2,0.5-0.3c0,0,0,0,0,0
											c0.1,0,0.2-0.1,0.2-0.1c0,0,0,0,0,0c0.4-0.2,0.7-0.3,1.1-0.4c0,0,0,0,0,0c0.2,0,0.4-0.1,0.6-0.1c0,0,0,0,0,0
											c0.2,0,0.4,0,0.6,0c0,0,0,0,0,0c0.4,0,0.7,0.1,1.1,0.1c0,0,0,0,0,0c0,0,0,0,0.1,0c0,0,0,0,0,0c0.1,0,0.3,0.1,0.4,0.1l0,0
											c0,0,0.1,0,0.1,0l0,0c0.1,0.1,0.2,0.1,0.4,0.2c0,0,0,0,0,0c0,0,0.1,0,0.1,0.1l0,0c0.1,0.1,0.3,0.2,0.4,0.3c0,0,0,0,0,0
											c0,0,0,0,0,0c0.1,0.1,0.2,0.2,0.3,0.3c0,0,0,0,0,0c0,0,0.1,0.1,0.1,0.1c0.1,0.1,0.2,0.3,0.3,0.4c0,0,0.1,0.1,0.1,0.1
											c0,0,0,0,0,0c0.3,0.4,0.6,0.9,0.8,1.5v0c0,0.1,0.1,0.2,0.1,0.3c0,0,0,0,0,0c0,0.1,0.1,0.3,0.1,0.4c0,0,0,0,0,0
											c0,0,0,0.1,0,0.1c0,0,0,0.1,0,0.1c0.1,0.4,0.2,0.8,0.2,1.3c0,0,0,0,0,0c0,0,0,0,0,0c0,0,0.1-0.1,0.1-0.1
											c0.1,0,0.1-0.1,0.2-0.2c0,0,0,0,0,0c1.2-1.1,4.3-4.6,2.4-8.8c-0.8,1.9-2.2,3.2-2.7,3.6c0-0.4-0.1-0.8-0.1-1.2
											c-0.5-2.7-2-5.2-5-5.2c-1.7,0-5.4,0.7-5.8,2.9c0.5-2.8,2.7-5.1,4.2-7.5c-0.6-0.2-1.2-0.3-1.8-0.3c-1.8,1.5-3.3,4-4,5.7
											c-2.4,5.5-3.2,11.7,0.1,17c0.2,0.4,0.4,0.7,0.6,0.9c1.7,3.4,4.6,6.1,8.5,6.7c0.9,0.1,1.9,0.1,3,0.1c1.8,0.2,3.6,0,5.4-0.5
											c4.5-1.3,8-4.4,10.4-6.7c3.1-2.9,5.4-6.4,8.3-9.5c2.4-2.5,4.8-5,8.1-6.2c0.7-0.2,8.2-1.8,7.9-1.2
											c-0.6,1.5-3.5,3.3-3.5,3.3s11.8-3.1,15.3-1.5c0.9,0.4,1.4,0.9,1.5,1.5c-2.5,1.8-4.8,3.2-6.7,5.9c-1.6,2.2-2.7,4.6-3.4,7.3
											c-1.5,5.5-2.6,9-6.9,13.1c-3.8,3.6-8.5,6.2-13.4,7.9c-9.3,3.4-20.1,4.5-29.8,2.1c-3.1-0.7-6.1-1.8-8.8-3.4
											c-2-1.2-6.4-4.2-6-6.9c1.3-0.1,2.9,1.3,4.1,1.8c1.5,0.7,3.1,1.1,4.7,1.5c3.3,0.8,6.8,1.1,10.2,1.2c0,0,0.2-0.3,0.2-0.4
											c-6.6-0.1-14.9-3-18.9-8.3c-1.7-2.2-2.5-4.9-2.8-6.9c-0.1-0.5-0.1-1-0.1-1.4c0-0.4,0-0.8,0-1.1c0-0.6,0-0.9,0-0.9
											s0-0.3,0-0.9c0-0.6,0.1-1.5,0.3-2.5c0.3-2,1.2-4.7,2.6-7.1c0.7-1.2,1.5-2.4,2.3-3.4c0.8-1,1.7-1.9,2.5-2.6
											c1.6-1.4,2.8-2.1,2.7-2.3c0-0.1-1.4,0.5-3.1,1.8c-0.9,0.6-1.8,1.5-2.7,2.5c-0.9,1-1.8,2.2-2.5,3.4c-0.2,0.3-0.4,0.7-0.6,1
											c0.6-1.7,1.2-3.4,2.1-5c-1.7,3-4.3,5.6-6.1,8.5c-0.1,0.4-0.2,0.9-0.2,1.3c0,0.1,0,0.1,0,0.2c-0.1,0.4-0.1,0.8-0.1,1.3
											c0,0.1,0,0.2,0,0.3c0,0.4,0,0.8,0,1.2c0,0.1,0,0.2,0,0.2c0,0.1,0,0.2,0,0.2c0,0.4,0,0.7,0,1.1c0,0.2,0,0.4,0,0.6
											c0,0.3,0.1,0.7,0.1,1c0,0.3,0.1,0.6,0.1,0.8c0,0.3,0.1,0.6,0.1,0.9c0.1,0.4,0.2,0.7,0.2,1.1c0.1,0.2,0.1,0.5,0.2,0.7
											c0.2,0.6,0.3,1.3,0.5,1.9c0,0,0,0,0,0.1c0,0,0,0,0,0.1c-0.1,0.3-0.3,0.9-0.5,1.7c0,0,0,0,0,0c-0.1,0.6-0.2,1.3-0.3,2.1
											c0,0.4,0,0.8,0,1.2c0,0,0,0,0,0c0,0.4,0,0.9,0.1,1.4c0.1,0.6,0.1,1.2,0.3,1.8c0,0,0,0,0,0.1c0.1,0.6,0.3,1.1,0.5,1.7
											c0,0,0,0,0,0c0,0,0,0,0,0c2.3,6.6,9,10.5,15.7,12.7c0.1,0,0.1,0,0.2,0.1c0,0,0.1,0,0.1,0c0.4,0.1,0.8,0.3,1.2,0.4
											c0.6,0.2,1.3,0.4,1.9,0.5c0.8,0.2,1.6,0.4,2.4,0.5c0.3,0,0.5,0.1,0.8,0.1c0.5,0.1,1.1,0.2,1.6,0.2c0.3,0,0.6,0.1,0.9,0.1
											c0.3,0,0.7,0.1,1,0.1c0.2,0,0.3,0,0.5,0c0.3,0,0.7,0,1,0c0.5,0,0.9,0,1.4,0c0.3,0,0.7,0,1,0c0.1,0,0.2,0,0.2,0
											c0.4,0,0.7,0,1.1,0c0.3,0,0.7,0,1-0.1c0.1,0,0.2,0,0.2,0c0.2,0,0.4,0,0.7,0c0.1,0,0.3,0,0.4,0c0.3,0,0.7-0.1,1-0.1
											c0.1,0,0.3,0,0.4,0c0.1,0,0.3,0,0.4,0c0.2,0,0.3,0,0.5-0.1c0.3,0,0.6-0.1,1-0.1c0.2,0,0.5-0.1,0.7-0.1
											c0.2,0,0.4-0.1,0.6-0.1c0.3-0.1,0.6-0.1,0.9-0.2c0.2,0,0.5-0.1,0.7-0.1c0.1,0,0.2,0,0.3-0.1c0.1,0,0.2,0,0.3-0.1
											c0.3-0.1,0.6-0.1,0.9-0.2c0.4-0.1,0.9-0.2,1.3-0.3c0.3-0.1,0.6-0.1,0.9-0.2c0.1,0,0.3-0.1,0.4-0.1
											c0.3-0.1,0.6-0.2,0.9-0.3c0.3-0.1,0.5-0.2,0.8-0.2c0.4-0.1,0.8-0.3,1.3-0.4c0,0,0,0,0,0c0,0,0,0,0.1,0
											c0.2-0.1,0.5-0.2,0.7-0.2c0.5-0.2,0.9-0.3,1.4-0.5c0,0,0,0,0,0c0.2-0.1,0.4-0.2,0.6-0.2c0.2-0.1,0.3-0.1,0.5-0.2
											c0.4-0.1,0.7-0.3,1.1-0.4c0.1-0.1,0.3-0.1,0.4-0.2c0.6-0.2,1.2-0.5,1.8-0.7c0,0,0.1,0,0.1,0c0.4-0.2,0.8-0.4,1.2-0.5
											c0.3-0.1,0.6-0.2,0.8-0.4c0.6-0.3,1.2-0.6,1.7-0.8c0,0,0,0,0,0c0.2-0.1,0.5-0.2,0.7-0.4c0.3-0.2,0.6-0.3,0.9-0.5
											c0.1-0.1,0.2-0.1,0.3-0.2c0,0,0,0,0,0c0.4-0.2,0.9-0.5,1.3-0.7c0.1-0.1,0.2-0.1,0.3-0.2c0.1,0,0.2-0.1,0.2-0.1
											c0.3-0.2,0.6-0.4,1-0.5c0.1-0.1,0.3-0.2,0.4-0.2c0.2-0.1,0.3-0.2,0.5-0.3c0.2-0.1,0.4-0.2,0.6-0.3
											c0.1-0.1,0.2-0.1,0.4-0.2c0.1,0,0.2-0.1,0.2-0.1c0.3-0.2,0.5-0.3,0.8-0.5c0.1-0.1,0.2-0.1,0.3-0.2
											c0.3-0.2,0.6-0.4,0.9-0.6c0.1-0.1,0.2-0.2,0.4-0.2c0.2-0.1,0.3-0.2,0.5-0.3c0.1-0.1,0.2-0.1,0.3-0.2
											c0.1-0.1,0.2-0.1,0.3-0.2c0.1-0.1,0.2-0.1,0.2-0.2c0.1,0,0.1-0.1,0.2-0.1c0.1-0.1,0.2-0.1,0.3-0.2
											c0.1-0.1,0.2-0.1,0.2-0.2c0.1-0.1,0.1-0.1,0.2-0.1c0.1,0,0.1-0.1,0.2-0.1c0.1-0.1,0.2-0.1,0.3-0.2
											c0.1-0.1,0.2-0.1,0.2-0.2c0,0,0,0,0.1,0c0,0,0.1,0,0.1-0.1c0.1-0.1,0.3-0.2,0.4-0.3c0.1-0.1,0.1-0.1,0.2-0.2c0,0,0,0,0,0
											c0.1,0,0.1-0.1,0.2-0.1c0.1-0.1,0.2-0.2,0.3-0.2c0,0,0.1-0.1,0.1-0.1c0,0,0,0,0.1-0.1c0.1,0,0.1-0.1,0.2-0.1
											c0,0,0.1-0.1,0.1-0.1c0,0,0.1-0.1,0.1-0.1c0,0,0.1-0.1,0.1-0.1c0.1-0.1,0.2-0.1,0.2-0.2c0,0,0,0,0,0c0,0,0,0,0.1,0
											c0,0,0.1-0.1,0.1-0.1c0.1-0.1,0.1-0.1,0.1-0.1s0,0,0,0c0,0,0,0,0,0c0,0,0,0.1,0.1,0.1c0,0,0,0,0,0c0.6,0.8,3.4,4,9.1,5.1
											c0.5,0.1,1.1,0.2,1.7,0.3h0c0,0,0,0,0.1,0c1.3,0.1,2.8,0.2,4.4,0.1c0.1,0,0.1,0,0.2,0c0.5,0,1-0.1,1.6-0.2c0,0,0,0,0,0
											c0.2,0,0.3,0,0.5-0.1c0.5-0.1,1.1-0.2,1.7-0.3c0,0,0.1,0,0.1,0c0,0,0.1,0,0.1,0c0,0,0.1,0,0.1,0c0.6-0.1,1.2-0.3,1.8-0.4
											c0,0,0,0,0,0.1l0,0c0,0,0,0,0,0c0,0.1,0.1,0.1,0.1,0.2c0,0,0,0,0,0c0.1,0.1,0.2,0.3,0.3,0.5c0.1,0.1,0.2,0.3,0.4,0.5
											c0,0,0.1,0.1,0.1,0.1c0,0,0,0,0,0c0.3,0.4,0.7,1,1.2,1.5c0,0,0,0,0,0c0,0,0,0.1,0.1,0.1c0.2,0.3,0.4,0.5,0.7,0.8
											c0,0,0,0,0,0c0,0,0,0.1,0.1,0.1c0.3,0.3,0.6,0.7,0.9,1c0.3,0.4,0.7,0.8,1.1,1.1c0,0,0,0,0,0c0,0,0.1,0.1,0.1,0.1
											c0.4,0.4,0.8,0.8,1.2,1.2c0,0,0,0,0,0c0,0,0,0,0,0c0.5,0.4,0.9,0.8,1.4,1.3c0,0,0,0,0,0c2.6,2.2,5.7,4.3,9.5,5.9
											c0,0,0,0,0,0c0.5,0.2,1,0.4,1.5,0.6c0,0,0.1,0,0.1,0c0.5,0.2,1,0.3,1.5,0.5c0,0,0.1,0,0.1,0c0,0,0.1,0,0.1,0
											c0.5,0.1,0.9,0.3,1.4,0.4c0,0,0.1,0,0.1,0c0.1,0,0.1,0,0.2,0c0.5,0.1,0.9,0.2,1.4,0.3c0.1,0,0.1,0,0.2,0
											c0.1,0,0.1,0,0.2,0c0,0,0,0,0.1,0c0.4,0.1,0.9,0.1,1.3,0.2c0.2,0,0.3,0.1,0.5,0.1c0.4,0.1,0.9,0.1,1.3,0.1
											c0.1,0,0.3,0,0.4,0c0.1,0,0.1,0,0.2,0c0.5,0,0.9,0,1.4,0c0.2,0,0.4,0,0.6,0c0.7,0,1.3,0,2,0c0.5,0,1-0.1,1.5-0.1
											c0.4,0,0.9-0.1,1.3-0.1c0.2,0,0.3,0,0.5,0c0.9-0.1,1.7-0.2,2.5-0.2c0.1,0,0.2,0,0.3,0c0,0,0.1,0,0.1,0c0,0,0.1,0,0.1,0
											c0.8-0.1,1.5-0.2,2.2-0.3c0.1,0,0.1,0,0.2,0c0.7-0.1,1.4-0.2,2.1-0.3c0.1,0,0.1,0,0.2,0c0,0,0,0,0.1,0c0.1,0,0.2,0,0.2,0
											c0.7-0.1,1.3-0.2,1.9-0.4c0.1,0,0.2,0,0.3-0.1c0,0,0.1,0,0.1,0c0.5-0.1,1.1-0.2,1.6-0.4c0,0,0,0,0,0c0.1,0,0.1,0,0.2-0.1
											c0.5-0.1,1.1-0.3,1.6-0.4c0,0,0,0,0,0c0.1,0,0.1,0,0.2,0c0.1,0,0.1,0,0.2,0c0.5-0.1,0.9-0.3,1.3-0.4
											c0.1,0,0.2-0.1,0.3-0.1c0,0,0,0,0,0c0.4-0.1,0.8-0.3,1.1-0.4c0,0,0,0,0.1,0c0.1,0,0.1,0,0.2-0.1c0.4-0.1,0.7-0.3,1.1-0.4
											c0.1,0,0.2-0.1,0.3-0.1c0.3-0.1,0.6-0.3,0.9-0.4c0,0,0.1,0,0.1,0c0,0,0,0,0,0c0,0,0,0,0.1,0c0.3-0.1,0.5-0.2,0.7-0.4
											c0,0,0.1,0,0.1-0.1c0.3-0.1,0.5-0.3,0.7-0.4c0,0,0.1,0,0.1-0.1c0.2-0.1,0.4-0.2,0.6-0.3c0,0,0,0,0,0
											c0.2-0.1,0.3-0.2,0.5-0.3c0.1-0.1,0.3-0.2,0.4-0.3c0,0,0,0,0,0c0,0,0,0,0,0c0.3-0.2,0.5-0.4,0.5-0.4c0,0,0,0,0,0
											s0,0,0.1,0c0,0,0.1,0,0.2,0c0,0,0,0,0,0c0.1,0,0.3,0,0.5,0.1c0,0,0,0,0,0c0.1,0,0.2,0,0.4,0c0,0,0,0,0,0
											c0.1,0,0.3,0,0.4,0c0,0,0,0,0,0c0.3,0,0.7,0,1.1,0.1l0,0c0.4,0,0.8,0,1.3,0c0,0,0,0,0,0c1.2,0,2.6-0.2,4.2-0.6
											c1.1-0.3,2.3-0.6,3.6-1.2c0,0,0.1,0,0.1,0c0,0,0,0,0,0c0.4-0.2,0.8-0.4,1.2-0.6c0.4-0.2,0.9-0.5,1.3-0.8c0,0,0,0,0,0
											c0.4-0.2,0.8-0.5,1.2-0.8c0.1-0.1,0.1-0.1,0.2-0.2c0.8-0.6,1.6-1.3,2.4-2.1c0,0,0.1-0.1,0.1-0.1c0.1-0.1,0.1-0.1,0.2-0.2
											c0.3-0.3,0.6-0.7,1-1.1c0.1-0.1,0.1-0.2,0.2-0.3c0.4-0.5,0.7-0.9,1.1-1.4c0.1-0.1,0.1-0.2,0.2-0.3
											c0.3-0.4,0.6-0.8,0.8-1.3c0.1-0.2,0.2-0.3,0.3-0.5c0,0,0,0,0,0c0.3-0.6,0.7-1.2,1-1.8c0.3-0.6,0.5-1.2,0.8-1.7
											C235.2,213.7,235.2,213.6,235.2,213.5z M76.4,184.9c0.7-0.7,1.6-1.3,2.6-1.6c1-0.3,2-0.3,2.9,0c0.3,0.1,0.6,0.3,0.9,0.5
											c-2.4-1.4-5.9-0.2-7.7,2.8l0,0C75.5,186,75.9,185.4,76.4,184.9z M58.8,207.3c0.1,0.4,0.2,0.7,0.4,1.1
											c0.2,0.6,0.4,1.1,0.6,1.5c0.3,0.8,0.5,1.3,0.5,1.3s0.2,0.4,0.6,1.2c0.2,0.4,0.5,0.8,0.8,1.3v0
											C60,211.5,59.2,209.3,58.8,207.3z M144.4,212.8c-3.2,0.1-4.9-1.6-6.2-4.1c-0.9-1.8-2.9-7.5-1.5-9.4c-2.7,3.7-3,7-3.3,11.5
											c0-0.5-2.1-3-2.3-3.9c-0.5-1.7-0.4-3.5-0.1-5.2c0.5-2.8,1.6-5.3,3.2-7.7c1.1-1.7,6.8-10.4,9.6-8.2
											c1.5,1.2,4.4,7.8,4.7,9.4c0.5,2.1,0.5,4.8,0.6,7.1C149.5,205.9,149.5,212.7,144.4,212.8z M198.2,228.4
											c-2.9,0.8-5.9,0.9-8.9,1.3c-1.7,0.2-3.2,0.1-4.7-0.2c-4.2-0.9-7.7-3.5-11.1-6.8c1.5,2.6,2.8,5.2,4.9,7.4
											c-4.1,0.3-9.6-3-13.1-5c-4.3-2.4-8.2-5.7-11-9.9c-6.1-9.1,0.5-23.1-10.5-29.5c0.6,0.4,2.8-0.1,3.6,0
											c1.5,0,3.1,0.1,4.5,0.3c4.2,0.5,7.6,4.5,9.8,7.7c1.2,1.8,1.9,4,3,5.7c-0.1-3.5-1.9-6.8-3.6-9.7c-0.9-1.6-5-6.8-0.6-6.3
											c9.2,1,15.2,6.4,19.1,14.4c0.4,0.9,0.7,1.4,0.7,1.4s1.1,2.1,2.6,5.1c2.3,4.5,4.2,9.5,7.8,13.2c3.1,3.2,8.3,7,12.9,7.4
											C203.9,225,199,228.2,198.2,228.4z"/>
									</g>
								</g>
								<g>
									<linearGradient id="SVGID_30_" gradientUnits="userSpaceOnUse" x1="82.7094" y1="216.8" x2="82.7426" y2="216.8">
										<stop  offset="0" style="stop-color:#D6C8CD"/>
										<stop  offset="1" style="stop-color:#F0D6CD"/>
									</linearGradient>
									<path class="st41" d="M82.7,216.8C82.7,216.8,82.7,216.8,82.7,216.8C82.8,216.8,82.7,216.8,82.7,216.8z"/>
									<g>
										<linearGradient id="SVGID_31_" gradientUnits="userSpaceOnUse" x1="224.9728" y1="184.6285" x2="225.7697" y2="184.6285">
											<stop  offset="0" style="stop-color:#D6C8CD"/>
											<stop  offset="1" style="stop-color:#F0D6CD"/>
										</linearGradient>
										<path class="st42" d="M225,184.2c0.2,0.4,0.5,0.6,0.8,0.9c-0.2-0.3-0.4-0.5-0.7-0.8C225.1,184.2,225,184.2,225,184.2z"/>
									</g>
								</g>
							</g>
							<linearGradient id="SVGID_32_" gradientUnits="userSpaceOnUse" x1="203.93" y1="196.7238" x2="226.4401" y2="196.7238">
								<stop  offset="0" style="stop-color:#D6C8CD"/>
								<stop  offset="1" style="stop-color:#F0D6CD"/>
							</linearGradient>
							<path class="st43" d="M225.8,195c-0.5-1.4-1-2.8-1.9-4.1c-1.5-2.3-3.9-3.6-6.4-4.7c-0.5-0.2-7.2-2.1-7.3-1.9
								c0.8-1,2.1-1.7,3.2-2.2c-5.6,0.5-6.9,3.4-6.9,3.4c2.4,0.5,4.6,0.8,7,1c1.5,0.2,3.7,1.4,4.9,1.4c-3.9,0.1-6.5,2-8.6,5.2
								c-0.3,0.4-3.5,5.7-3,6.1c-1.3-1-1.9-3.8-2.4-4.8c0,0.1-0.1,0.2-0.1,0.3c0,0.1-0.1,0.2-0.1,0.3c0,0.1-0.1,0.2-0.1,0.3
								c0,0.1-0.1,0.2-0.1,0.3c0,0.1,0,0.2-0.1,0.3c0,0,0,0.1,0,0.1c0,0,0,0,0,0c0,0.1-0.1,0.3-0.1,0.4c0,0.1,0,0.2,0,0.2
								c0,0.3,0,0.6,0.1,1c0.1,0.7,0.3,1.4,0.6,2.2c0.2,0.5,0.6,1,1,1.4c0,0,0,0,0,0c0.2,0.2,0.4,0.4,0.6,0.6c0,0,0.1,0.1,0.1,0.1
								c0.3,0.2,0.5,0.5,0.8,0.7c0,0,0,0,0,0c0,0,0,0,0-0.1c0,0,0-0.1,0.1-0.2c0,0,0-0.1,0.1-0.2c0,0,0,0,0,0c0-0.1,0.1-0.1,0.1-0.2
								c0,0,0,0,0,0c0-0.1,0.1-0.2,0.1-0.3c0,0,0,0,0,0c0-0.1,0.1-0.2,0.1-0.3c1.3-2.9,5.1-9.5,11.2-8.1c0.2,0,0.5-0.1,0.8,0
								c1.2,0.1,2.5,1.2,3.4,2.4c0.2,0.3,0.4,0.6,0.6,0.9c0,0.1,0.1,0.2,0.1,0.3c0,0.1,0.1,0.2,0.1,0.3c1.4,3.4-0.6,7-3.4,9.7
								c-0.2,0.2-0.4,0.4-0.7,0.6c0,0-0.1,0.1-0.1,0.1c-0.2,0.2-0.4,0.4-0.7,0.6c0,0-0.1,0.1-0.1,0.1c-0.2,0.2-0.5,0.4-0.7,0.5
								c0,0-0.1,0.1-0.2,0.1c-0.2,0.2-0.5,0.3-0.7,0.5c0,0-0.1,0.1-0.1,0.1c-0.3,0.2-0.5,0.3-0.8,0.5c0,0-0.1,0-0.1,0.1
								c-0.3,0.2-0.6,0.3-0.9,0.4c0,0-0.1,0-0.1,0c-0.3,0.1-0.6,0.3-0.9,0.4c0,0,0,0,0,0c-0.3,0.1-0.7,0.2-1,0.3
								c1.3-0.1,2.5-0.4,3.7-0.8c1.5-0.4,2.9-1,4.1-1.8c1.2-0.8,2.3-1.7,3-2.6c0.2-0.2,0.4-0.4,0.5-0.7c0.1-0.2,0.3-0.4,0.4-0.7
								c0.2-0.4,0.5-0.8,0.6-1.1c0.3-0.6,0.4-1,0.4-1s0-0.1,0.1-0.3c0-0.2,0.1-0.5,0.2-0.8c0.1-0.3,0.2-0.8,0.2-1.2
								c0-0.5,0.1-1,0-1.6C226.4,197.7,226.1,196.4,225.8,195z"/>
						</g>
						
							<linearGradient id="SVGID_33_" gradientUnits="userSpaceOnUse" x1="1354.6982" y1="330.0333" x2="1371.962" y2="330.0333" gradientTransform="matrix(-0.7873 0.6165 -0.6165 -0.7873 1387.3303 -383.335)">
							<stop  offset="0" style="stop-color:#D6C8CD"/>
							<stop  offset="1" style="stop-color:#F0D6CD"/>
						</linearGradient>
						<path class="st44" d="M108.5,199.3c0.7,0.5,0.4,2-0.6,3.4c-1,1.3-2.4,2-3.1,1.4c-0.7-0.5-0.4-2,0.6-3.4
							C106.5,199.4,107.8,198.7,108.5,199.3z M112,192.6c-2.1,1.5-3.2,3.6-2.4,4.7c0.8,1.1,3.1,0.8,5.2-0.7c2.1-1.5,3.2-3.6,2.4-4.7
							C116.5,190.8,114.1,191.1,112,192.6z"/>
					</g>
				</g>
			</g>
		</g>
	</g>
</g>
</svg>
