<?xml version="1.0" encoding="utf-8"?>
<!-- Generator: Adobe Illustrator 25.3.1, SVG Export Plug-In . SVG Version: 6.00 Build 0)  -->
<svg version="1.1" id="Layer_1" xmlns:v="https://vecta.io/nano"
	 xmlns="http://www.w3.org/2000/svg" xmlns:xlink="http://www.w3.org/1999/xlink" x="0px" y="0px" viewBox="0 0 64 64"
	 style="enable-background:new 0 0 64 64;" xml:space="preserve">
<style type="text/css">
	.st0{fill:#31ADE0;}
	.st1{opacity:0.76;fill:#60BFEE;enable-background:new    ;}
	.st2{opacity:0.47;fill:#60BFEE;enable-background:new    ;}
	.st3{opacity:0.42;fill:#1A7AA0;enable-background:new    ;}
	.st4{fill:#6CD4F4;}
	.st5{opacity:0.51;fill:#B3EDFF;enable-background:new    ;}
	.st6{opacity:0.62;fill:#7DE0FF;enable-background:new    ;}
</style>
<g>
	<ellipse transform="matrix(0.7078 -0.7064 0.7064 0.7078 -13.3491 32.0918)" class="st0" cx="32.1" cy="32.2" rx="19.5" ry="20"/>
	<path class="st1" d="M28.7,51.6c2,0.4,4,0.5,6,0.3c0.9-0.4,1.7-0.9,2.5-1.4c1.3-0.9,7.4-5.9,6.2-7.6c-0.5,0.5-1,0.9-1.5,1.2
		c2.1-3.6,8.2-7.9,7.7-12.6c-0.4,0.4-1.1,0.6-1.5,1c0.6-2,1.9-4,2.8-6.2c-0.3-0.9-0.6-1.7-1-2.5c-2.2,5.4-5.2,10.7-9.2,14.6
		c0.7-2.2,6.6-8.3,4.3-10.8c-3.7,3.9-5.4,9.8-8.3,14.2c-1.9,2.9-3.8,5.7-6.2,8.1C29.9,50.6,29.3,51.1,28.7,51.6z"/>
	<path class="st1" d="M12.7,35.4c0.7,3.6,2.4,7.1,5.1,10c0.9-2.7,1-6.2,2.3-8.6c0.6-1.2,6.7-8.8,5.5-9.9c-1.5-1.5-5.2,4.9-6.7,4.8
		c1.6-3.6,4.6-7.5,7.5-10.1c1.5-1.3,3.3-2.7,4.9-3.8c1.3-0.8,3.1-1.3,4-2.6c0.7-0.9,1-1.7,1-2.2c-1.4-0.3-2.8-0.5-4.2-0.6l0,0
		c-4.1,2.2-7.6,6.3-10.6,9.7C17.6,26.5,14.4,30.9,12.7,35.4z"/>
	<path class="st1" d="M26.4,45c3.5-2.4,7.1-6.6,9.1-10.2c1.3-2.2,3.8-5.9,3.3-8.5c-1.2,1.4-3.3,6.2-5.1,6c0.4-2.5,2.7-4.9,4.1-7
		c0.6-0.9,3.9-4,3.1-5.3c-1.2-1.9-8.2,7.3-8.8,8.1C28.2,33,23.4,38.7,26.4,45z"/>
	<path class="st1" d="M24.4,48c0.3-0.8,1.4-5.7-0.6-5.5c-1.8,0.2-3.2,7.7,0.1,6.8L24.4,48z"/>
	<path class="st1" d="M42.6,24c1.3-0.7,4.3-3.6,3.6-5.4c-2,0-3.8,3.2-4.3,4.9L42.6,24z"/>
	<path class="st1" d="M19.2,32.1c1.4-0.4,2.3-1.8,3.2-2.9c0.3-0.3,2.5-2.9,2.9-2c0,0.1,0.2,0.1,0.2,0c0-1.2-1.4-0.2-1.8,0.2
		C22,28.8,20.9,30.7,19.2,32.1C19.1,32,19.1,32.1,19.2,32.1z"/>
	<path class="st1" d="M16.4,28.2c-1,1.6-2.1,3.2-2.7,5l0,0c0.7-1.8,2.1-3.5,3.1-5.2s2.2-3.4,3.5-4.9c3-3.5,6.4-6.5,9.8-9.6
		c0.1-0.1,0-0.2-0.1-0.2c-3.8,2.5-7,6.1-9.9,9.6C18.7,24.6,17.5,26.4,16.4,28.2z"/>
	<path class="st1" d="M22.2,44.4c-0.2,0.6-0.3,1.2-0.4,1.9c-0.1,0.9,0.3,1.6,0.3,2.4l0,0c0.1-0.3,0.1-0.5,0-0.8
		c-0.1-0.9-0.2-1.5,0-2.4c0.2-1.1,0.5-2.7,1.8-2.9c0.1,0,0.1-0.2,0-0.2C22.8,42.5,22.5,43.5,22.2,44.4z"/>
	<path class="st1" d="M26.5,36.3c-1.4,2.9-1.3,5.7,0,8.7l0,0c-0.4-1.6-0.8-3.2-0.8-4.8c0.1-1.7,0.7-3.1,1.5-4.5
		c1.4-2.5,3.1-5,4.9-7.3c0.5-0.7,7-9.9,8.6-8.7c0.2,0.2,0.5-0.1,0.3-0.3c-1.7-1.7-7.1,6-7.9,7C30.7,29.5,28.3,32.8,26.5,36.3z"/>
	<path class="st1" d="M42,23.7C42.1,23.7,42.1,23.7,42,23.7c-0.6-0.6,2.5-3.9,2.7-4.5c0.1-0.2-0.2-0.2-0.2-0.1
		C44.2,19.5,41.2,23.5,42,23.7z"/>
	<path class="st1" d="M33.7,32.3c3,0.2,3.5-4.3,5.1-5.9c0.1-0.1,0-0.4-0.2-0.3c-0.8,0.5-1.1,1.4-1.5,2.3c-0.7,1.5-1.7,3.4-3.5,3.7
		C33.7,32.2,33.7,32.3,33.7,32.3z"/>
	<path class="st1" d="M41,33.3c-1.2,2.2-2.1,4.5-3.4,6.7c-1.2,2-2.4,3.9-3.7,5.8c-1.1,1.6-2.1,4-3.9,5c0,0,0,0.1,0,0
		c1.4-0.4,2.1-1.6,2.9-2.8c1.4-2.1,2.9-4,4.2-6.1s2.5-4.2,3.5-6.4c1.2-2.7,2.9-5.2,4.6-7.6c0.2-0.3-0.2-0.6-0.4-0.3
		C43.4,29.5,42,31.3,41,33.3z"/>
	<path class="st1" d="M49.3,23.9c-0.9,2.8-1.8,5.4-3.3,7.9c-1.4,2.3-3.3,4.2-5,6.3l0,0c4.7-2.8,7.3-9,8.8-14.1
		C49.9,23.7,49.4,23.5,49.3,23.9z"/>
	<path class="st1" d="M41.9,44.3c0.3,0.1,0.6-0.3,0.7-0.5c0.1-0.1,0.8-1.1,0.9-0.7l0,0c0-0.1,0.1-0.2,0-0.3c0-0.1-0.1-0.1-0.1-0.1
		c-0.3,0.1-0.6,0.4-0.8,0.7c-0.1,0.2-0.3,0.3-0.4,0.5C42.1,44,41.9,44.1,41.9,44.3C41.8,44.2,41.9,44.2,41.9,44.3z"/>
	<path class="st1" d="M48.3,32.5C48.3,32.6,48.4,32.6,48.3,32.5c0.3,0.1,0.5-0.2,0.6-0.4s0.4-0.4,0.6-0.4l0,0
		c-0.1,0-0.2-0.1-0.3-0.1s-0.3,0.1-0.4,0.2C48.6,31.9,48.3,32.2,48.3,32.5z"/>
	<path class="st1" d="M47,32.5c-0.9,1.5-2.2,2.6-2.7,4.3c0,0.1,0.1,0.3,0.2,0.3c0.5-0.1,0.8-0.2,1.1-0.6c0.2-0.2,0.4-0.5,0.6-0.7
		c0.1-0.3,0.3-0.4,0.6-0.4c0.4-0.2,0.4-0.1,0.1,0.4c-0.1,1.1-1.6,2.3-2.4,3c-0.8,0.7-1.7,1.3-2.5,2c-3.6,2.8-5.4,7.1-8.9,10
		c0,0,0,0.1,0,0c3.7-2.6,5.5-6.7,8.9-9.5c1.3-1.1,2.8-2,3.9-3.3c0.6-0.7,1.8-2.1,1.5-3.2c0-0.1-0.1-0.2-0.2-0.2
		c-0.6,0-1,0.4-1.4,0.9c-0.2,0.2-0.4,0.5-0.6,0.7c-0.6,0.4-0.7,0.4-0.3-0.2c0.2-0.7,0.9-1.3,1.3-1.9c1.7-2.3,2.4-4.9,3.6-7.5
		c0.1-0.1-0.2-0.3-0.3-0.1C48.6,28.4,48.2,30.6,47,32.5z"/>
	<path class="st1" d="M42,33.5c0,0.1,0.1,0.2,0.2,0.1c0.9-0.4,1.1-1.4,1.4-2.3c0-0.2-0.2-0.3-0.3-0.1c-0.1,0.5-0.3,1.3-0.6,1.7
		c-0.9,1-0.1-0.9,0.1-1.1c0.2-0.5,1.5-2.7,1.9-2.1c0.8,1.2-1.9,4.3-2.6,5.2c-0.7,0.9-4.9,5.7-3.3,6.1c0.7,0.2,2.1-1.3,2.6-1.8
		c0.2-0.2,1.9-1.8,2-1.4c0.2,0.6-1.4,1.4-1.9,1.7c-1.8,1.4-3.2,3.3-4.5,5.1c-1.6,2.2-2.9,5.1-5.4,6.5l0,0c2-0.8,3-2.6,4.2-4.3
		c1.6-2.3,3.4-4.9,5.6-6.7c0.3-0.2,4-2.9,1.9-2.9c-1,0-2,1.6-2.7,2.2c-0.9,0.8-2.4,2-1.2-0.2c0.5-1,1.4-2,2.1-2.9
		c1.3-1.7,4.6-4.7,3.4-7.2C44.8,29,44.7,29,44.6,29C43.2,29.8,41.9,31.8,42,33.5z"/>
	<path class="st1" d="M34.8,50.8C34.8,50.8,34.8,50.9,34.8,50.8c1.6-0.2,2.8-1.3,4.1-2.1c1-0.7,3.2-2.1,3.2-3.6c0-1.7-2.4,0-2.9,0.5
		c-0.4,0.4-3,2.6-1.6,3.1c1.2,0.5,3.1-2.1,3.2-3c0-0.1-0.1-0.2-0.2-0.2c-0.8,0-1.3,0.7-1.6,1.3c-0.1,0.1,0.1,0.3,0.2,0.1
		c0.4-0.5,1.6-1.4,0.8-0.3c-0.3,0.4-0.9,1.3-1.4,1.4c-0.5,0.2-1,0.4-0.8-0.6c0-0.2,0.3-0.4,0.5-0.6c0.4-0.4,0.8-0.9,1.3-1.3
		c0.4-0.3,1-0.9,1.5-0.9c1.7,0.1-0.8,2.5-1.4,3C38.2,48.9,36.5,50.2,34.8,50.8z"/>
	<path class="st1" d="M27.9,21.2c0,0.1,0.1,0.3,0.2,0.2c1.2-0.3,0,0.8-0.3,1.1c-0.5,0.5-1.3,0.9-1.9,1.3c-0.9,0.8-1.7,1.6-2.4,2.6
		c0,0.1,0,0.2,0.1,0.2c1.2,0.4,2.2-1.2,3.2-0.9c2.5,0.5-3.2,8.5-3.9,9.5c-1.1,1.8-5.8,8.5-3.2,10.7l0,0c-2.2-2.3,2.3-8.7,3.4-10.6
		c1.5-2.5,4.6-5.6,4.6-8.8c0-1.1-0.6-1.2-1.6-0.9c-0.4,0.2-0.9,0.4-1.3,0.6c-1.6,0.4-0.2-0.9,0.5-1.5c1.3-1.2,3-1.9,3.9-3.4
		c0.1-0.1,0-0.2-0.1-0.3c0.3,0.1-0.9-0.4-0.9-0.2c-0.1-0.6,1.4-1.4,1.7-1.5c1-0.5,2-0.9,3-1.3c1.8-0.7,3.7-1.6,3.5-3.8
		c0-0.2-0.3-0.1-0.3,0.1C36.7,18.7,28.9,17.6,27.9,21.2z"/>
	<path class="st1" d="M20.2,18c-0.1,1,0.7,1.3,0,2.5c-0.4,0.8-1.5,1.2-2.1,1.7c-1.2,0.9-2.4,1.8-2.6,3.4c0,0.1,0.1,0.2,0.2,0.2
		c0.9,0.2,1.4-0.6,2-1.2c0.9-0.8,0.3,0-0.2,0.5s-0.9,1-1.4,1.4c-0.8,0.9-2.9,2.6-2,4c0.1,0.1,0.2,0.1,0.3,0.1
		c0.5-0.4,0.6-0.5,0.2,0.1c-0.3,0.4-0.6,0.7-0.9,1c-0.5,0.5-0.9,1-1,1.7c0,0.2,0.2,0.3,0.3,0.1c0.6-1.5,2-2.3,2.5-3.9
		c0.1-0.2-0.2-0.3-0.3-0.2c-1.4,1.1-0.6-0.6-0.1-1.3c0.5-0.7,1.2-1.3,1.8-1.9c0.7-0.7,1.6-1.5,2-2.4c0.1-0.1-0.1-0.3-0.2-0.2
		c-0.4,0.1-0.7,0.2-1,0.5C17.6,24.2,17,25,16.9,25c0-0.4,0.1-0.9,0.1-1.3c0.2-0.2,0.4-0.4,0.7-0.6c1-0.8,2.8-1.6,3.2-2.9
		c0.2-0.4,0-0.8,0-1.2c0-1.1-0.6-0.2,0.7-1.7c0.9-1,0.8-1,1.9-1.1c2-0.2,2.7-0.9,4.1-2.4l0,0c-1,0.8-1.9,1.8-3.2,2
		c-0.8,0.2-1.6,0-2.4,0.3C21,16.5,20.3,17.1,20.2,18z"/>
	<path class="st1" d="M41.9,17.2c1.4,1.3,0.6,2.6-0.2,4c-0.5,0.9-1.2,1.6-1.7,2.5c-0.5,1.1,0.5,1.7,0.5,2.9c0.1,2.6-1.8,4.1-2.6,6.2
		c-0.3,0.7-0.2,0.7,0.1,1.3c0.1,0,0.1,0,0.2,0c0.4,0,0.6,0.4,0.5,1.2c0,0.6-0.8,1.5-1.1,2c-1.1,1.4-2.5,2-3.9,3
		c-1.7,1.2-2.1,3.1-2.9,4.9c-0.4,0.8-3,6.1-4.6,3.9l0,0c1.3,2.3,4-2.3,4.4-3.2c0.8-1.7,1.2-3.8,2.7-5.1c1.1-1,2.5-1.4,3.6-2.5
		c0.8-0.8,2.6-2.7,2.1-4.1c-0.2-0.5-0.6-0.2-0.8-0.7c-0.4-0.9,0.9-2,1.4-2.8c0.8-1.5,1.6-3.8,1.2-5.6c0-0.1-0.3-0.2-0.3-0.3
		c-0.3-1.1-0.1-1.1,0.5-1.8c0.7-0.9,1.3-2,1.7-3c0.2-0.5,0.9-1.7,0.6-2.3c-0.3-0.7-2.6-0.6-1.5-2.2c0.1-0.1-0.1-0.3-0.2-0.1
		C40.8,16.2,41.2,16.5,41.9,17.2z"/>
	<path class="st1" d="M42.4,26.6c-0.4,0.7-0.6,1.6-0.9,2.4c-0.3,0.6-0.8,1.2-1.2,1.8c-0.2,0.3-0.6,0.9-0.5,1.4
		c0.2,0.7,0.5,0.6,1,0.3c0.6-0.4,1.1-1.8,1.4-2.4c0.7-1.4,1.3-2.8,2.4-3.9c0,0,0-0.1-0.1-0.1c-1.6,1.1-2.3,3-3.2,4.7
		c-0.3,0.5-1.1,1.9-1,0.5c0.1-0.7,1-1.5,1.3-2.1c0.7-1.3,0.9-2.6,2.1-3.6c0.7-0.6,1.5-0.9,2.1-1.5c0.8-0.8,1.5-1.8,1.2-3l0,0
		C47.6,24,43.5,24.6,42.4,26.6z"/>
	<path class="st1" d="M33.9,18.9c-0.8,0.3-1.5,0.6-1.6,1.5c0,0.1,0.1,0.2,0.2,0.2c0.5-0.2,0.9-0.4,1.4-0.7c0.2-0.1,0.8-0.5,0.9-0.5
		c0,0.5-0.1,1-0.1,1.5c-0.1,0.1-0.3,0.1-0.4,0.2c-0.9,0.6-2.2,0.7-3.2,1.3c-2.5,1.5,0.7,1.5,0.4,3.4c-0.1,0.8-1.2,1.9-1.7,2.5
		c-0.8,1-1.6,1.8-2.5,2.7c-1.2,1.3-2.1,2.7-2.9,4.2c-0.9,2-1.6,4.1-2.4,6.2c-0.2,0.4-0.6,2.3-1,2.5c-0.3-0.2-0.6-0.4-0.9-0.6
		c0.1-0.2,0.2-0.5,0.4-0.7c0.2-0.4,0.6-0.8,0.9-1.2l0,0c-0.8,0.8-1.9,2.1-1.3,3.3h0.1c1.7-0.5,2.2-3.5,2.7-4.9
		c0.7-1.8,1.3-3.7,2.3-5.4c0.9-1.7,2.2-3,3.4-4.4c1-1,3.7-3.4,3.3-5.2c-0.1-0.7-0.4-0.4-0.8-0.8c-1.1-1.3,1-1.7,1.9-2
		c0.8-0.3,3.6-1,3.1-2.5c-0.3-0.9-1.3-0.3-1.9-0.1c-0.4,0.2-0.8,0.6-1.3,0.7c-1.2,0.3,1-0.8,1.3-0.9c1-0.5,1.8-0.8,2.7-1.6
		c0.7-0.7,2-2.4,1.2-3.5c-0.1-0.1-0.2-0.1-0.2,0c-0.3,0.2-0.2,0.1-0.4,0.5c-0.1,0.2,0.2,0.4,0.3,0.2c0.1-0.1,0.1,0.8,0.1,0.8
		c-0.1,0.7-1,1.6-1.6,2.1C35.5,18.3,34.7,18.5,33.9,18.9z"/>
	<path class="st1" d="M33.1,29.8c-1.3,1.7-3,3.1-4.2,5c-0.1,0.1,0,0.3,0.2,0.3c0.5-0.1,0.9-0.5,1.4-0.7c0.8-0.5,1.8-0.6,1.4,0.8
		c-0.2,0.7-1,1.2-1.4,1.6c-0.8,0.7-3.1,2-2.8,3.5c0.1,0.8,0.7,0.6,1.3,0.3c2-0.9,2.8-3,4-4.7l0,0c-0.8,1.1-1.4,2.4-2.4,3.4
		c-0.4,0.3-1.1,1.1-1.6,1.1c-2.4,0.2,1.7-3.2,2.2-3.6c0.6-0.5,2.6-3.2,0.8-3.4c-0.6-0.1-2.1,1.5-2.4,1.3c0.1,0,3.7-4.1,4.2-4.8
		c1.3-1.8,2-4,3.3-5.7c0.4-0.6,0.9-1.2,1.4-1.7c0.7-0.7,1.2-0.8,0.7,0.4c-0.2,0.5-1.1,1.1-1.5,1.4c-0.1,0.1,0,0.3,0.2,0.2
		c1.1-0.7,2.1-1.6,2.2-2.9c0-0.1-0.1-0.2-0.2-0.2c-1.7,0-3.3,2.8-4,4.1C34.8,26.7,34.2,28.4,33.1,29.8z"/>
	<path class="st1" d="M15.9,32.3c0.2,0.3,0.7,0.1,0.9,0.3c0.6,0.7-1.5,3.3-1.8,4c0,0.1,0,0.2,0.1,0.2c1.6,0.4,2.7-0.7,3.7-1.9
		c0.7-0.9,1.4-1.8,2.1-2.7c0.3-0.3,2.2-3.3,2.8-2.2c0.3,0.6-3.3,4.8-3.7,5.4c-0.8,1.2-1.7,2.3-2.1,3.7s-0.4,3-0.6,4.4
		c0,0,0.1,0.1,0.1,0c0.4-1.4,0.3-3,0.7-4.4c0.6-1.8,1.9-3.3,2.9-4.9c0.8-1.2,2.7-2.9,2.9-4.4c0.1-0.7-0.1-0.9-0.8-0.7
		c-0.5,0.1-0.9,0.8-1.2,1.1c-0.9,1-1.7,2.2-2.6,3.3c-0.6,0.8-1.4,2.1-2.4,2.5c-0.7,0.2-1.2-0.2-1.1-0.9c0.1-0.3,0.4-0.5,0.6-0.8
		c0.3-0.4,0.8-0.9,0.8-1.4c0-1-1.1-0.6-1.1-1.6c0-0.5,1.1-1.5,1.4-1.9c0.5-0.7,1-1.4,1.5-2.1c1-1.5,2.2-2.8,3.3-4.3
		c2.1-2.7,4-5.2,6.8-7.4c1.1-0.9,2.1-1.5,3.5-1.7c1.5-0.3,0.6,1-0.1,1.5c-0.6,0.4-1.5,0.5-2.2,0.7c-2.5,0.7-4.4,2.7-5.8,4.9
		c-0.1,0.1,0.1,0.2,0.2,0.1c1.9-2.5,3.8-4.1,6.8-5c0.8-0.2,2.7-0.6,2.8-1.6c0.3-2.5-4.9,0.5-5.5,1C24.3,19.1,21,24,17.7,28.8
		C17.5,29.5,15.4,31.4,15.9,32.3z"/>
	<path class="st1" d="M22.5,47.4c0,0.1,0.1,0.1,0.2,0.1c1-0.4,1.2-2.7,1-3.6c0-0.1-0.1-0.1-0.2-0.1c-0.1,0.1-0.1,0.1-0.2,0.2
		c0.1-0.4,0.4-1,0.8-0.6c0.3,0.3,0.2,1.1,0.1,1.5c-0.1,0.5-0.5,3.3-1.2,3.2l0,0c0.8-0.2,1.1-1.8,1.3-2.5c0.1-0.6,0.6-2.1-0.1-2.6
		C22.8,42.4,22.3,46.7,22.5,47.4z M23.4,44.2c0.1,0.1,0,0.4,0,0.5c0,0.4-0.1,0.7-0.2,1.1c-0.1,0.3-0.1,0.5-0.2,0.8
		c-0.1,0.2-0.2,0.4-0.3,0.5c-0.1,0.1,0,0.2-0.1,0.1c-0.1-0.2,0.1-1.1,0.1-1.3c0.1-0.4,0.1-0.8,0.2-1.3c0,0,0,0,0.1,0
		c0.1-0.2,0.2-0.4,0.3-0.6C23.4,44.1,23.4,44.1,23.4,44.2z"/>
	<path class="st1" d="M50.7,27.3c-0.3,1.1-0.9,1.9-1.2,3c0,0.1,0.1,0.2,0.2,0.2c0.4-0.1,0.5-0.3,0.8-0.3c0.5-0.1,0-0.8,0.5,0.1
		c0.3,0.5,0.1,1.1-0.1,1.6c-0.3,1-0.7,2-0.9,3c0,0.1,0.1,0.2,0.2,0.2c0.9,0.1-1.2,3.1-1.5,3.5c-1.2,1.5-2.8,2.4-3.9,4
		c-0.1,0.1,0,0.2,0.1,0.2c0.6,0.3,0.6,0,1.1,0c1,0,1,0.2,0.4,1.2c-0.4,0.7-0.9,1.2-1.4,1.8s-1,1.3-1.6,1.9c-0.4,0.4-0.7,0.8-1.1,1.2
		c-0.2,0.2-0.5,0.4-0.8,0.6c-0.8-0.8-0.5-1.3,0.7-1.5c0.1,0,0-0.1,0-0.1c-1,0.2-1.7,0.9-2,1.8c0,0,0,0.1,0.1,0.1
		c1.3,0.3,2.4-0.9,3.2-1.8c1.5-1.7,3.3-3.4,3.8-5.7c0-0.1,0-0.2-0.1-0.2c-0.6-0.1-1.5,0.7-1.8,0c-0.1-0.3,3-2.8,3.4-3.2
		c0.7-0.8,2-2.3,2-3.4c0-0.3-0.1-0.5-0.1-0.7c0-0.1-0.2-0.1-0.3-0.1c-0.1-0.4,0.2-0.9,0.3-1.3c0.4-1.2,1.2-2.9,0.3-4.1
		c-0.1-0.1-0.2-0.1-0.3,0c-0.1,0.2-0.3,0.4-0.5,0.4c-0.6,0.2-0.5-0.1,0.3-1c0.3-0.6,0.3-0.6,0.4-1.3C51,27.3,50.8,27.2,50.7,27.3z"
		/>
	<g>
		<path class="st1" d="M42.4,43.2L42.4,43.2C42.2,43.2,42.2,43.2,42.4,43.2z"/>
		<path class="st1" d="M42.4,43.2c0.2,0,0.5,0,0.4-0.1c0.3-0.3,0.4-0.2,0.2,0.3c0.1,0.3,0,0.6-0.2,0.8c-0.5,1.2-1.7,2.3-2.6,3.2
			c-1.6,1.6-3.3,3.1-5.4,4c0,0,0,0.1,0,0c1.6-0.3,2.9-1.3,4-2.3c1.4-1.2,2.9-2.5,4-4.1c0.3-0.5,1.6-2.1,0.9-2.8
			c-0.5-0.5-1,0.2-1.5,0.4C42,42.9,42.2,43.2,42.4,43.2z"/>
	</g>
	<path class="st1" d="M48.8,31.4c0,0.1,0.1,0.3,0.3,0.3c2.2,0-1.3,5.2-1.9,5.8c-1.2,1.3-2.6,2.5-3.4,4.1l0,0c2.1-2.7,6.1-5.3,6.6-9
		c0.1-0.7-0.1-0.9-0.5-1.5c-0.2-0.3-0.2,0.2-0.4-0.3c-0.1-0.3,0.2-0.9,0.4-1.2c0.3-0.7,0.8-1.4,1.1-2.2c0.1-0.2-0.2-0.4-0.4-0.2
		C49.8,28.5,49,30,48.8,31.4z"/>
	<path class="st1" d="M44.8,27.7c3,1.2-3.1,9-4,10.5c0,0,0,0.1,0.1,0c1.6-2.1,3.2-4.2,4.4-6.5c0.4-0.9,0.9-1.9,0.8-3
		c0-0.4-0.8-1.5-0.8-1.5c0.1-0.2-0.2-0.3-0.3-0.2c-0.1,0.1-0.1,0.2-0.2,0.3C44.6,27.5,44.6,27.6,44.8,27.7z"/>
	<path class="st1" d="M38.7,26.5c0.7,1.6-0.2,3.3-0.8,4.7c-0.8,1.9-1.9,3.6-3.1,5.2c-2.4,3.2-5.5,5.6-8.3,8.4l0,0
		c3.9-2.2,7.3-6,9.7-9.7c1.4-2.1,4.2-6.2,2.9-8.9C39,26,38.6,26.2,38.7,26.5z"/>
	<path class="st1" d="M25.1,26.7c1.5,0.8-3.9,7.4-4.2,7.8c-1.2,1.6-1.8,3.2-2.2,5.1c-0.4,1.8-0.3,3.9-1,5.5c0,0,0,0.1,0.1,0
		c0.5-0.6,0.7-1.3,0.8-2.1c0.2-1.5,0.5-3,0.9-4.4c0.9-3.1,3.3-5,4.9-7.7c0.4-0.7,2.8-4.5,1-4.7C25,26.3,24.9,26.6,25.1,26.7z"/>
	<path class="st1" d="M18.9,31.6C18.9,31.6,18.9,31.7,18.9,31.6c1.9-4.4,4.9-7.5,8.5-10.6c1.9-1.6,3.9-2.8,6.1-4.1
		c1.4-0.8,2.2-1.9,2.9-3.3c0.1-0.3-0.3-0.5-0.5-0.2c-1.1,2.6-3.4,3.3-5.5,4.7c-2,1.3-3.8,2.9-5.6,4.5C22.2,25.1,19.6,28.1,18.9,31.6
		z"/>
	<path class="st1" d="M33.7,42.9c-1,0.6-1.5,1.1-1.8,2.3c-0.2,1-0.3,2.1-0.8,3c-0.8,1.6-2.3,2.5-4.1,2.4l0,0
		c1.8,0.3,3.5-0.7,4.3-2.3c0.3-0.6,0.5-1.3,0.6-2c0.3-1.4,0.5-2.4,1.9-3.1c0.4-0.2,0.9-0.4,1.3-0.7c1.4-1,0.8-2.6,2-3.6
		c1.6-1.3,2.7-2.3,2.9-4.6c0-0.1-0.1-0.1-0.1,0c-0.3,1.5-0.8,2.9-2.1,3.9c-0.4,0.3-1.2,0.5-1.6,1c-0.2,0.3-0.1,0.4-0.1,0.6
		c0,0.2,0,0.5,0,0.7c-0.1,0.8-0.5,1.4-1.2,1.7C34.5,42.5,34.1,42.7,33.7,42.9z"/>
	<path class="st1" d="M37.6,17.3c0.7,0.5,0.4,1.5,0,2c-0.2,0.3-0.5,0.7-0.8,0.9c-0.5,0.4-1.2,0.6-1.6,1.1c-0.6,0.6-0.3,0.5-0.3,1
		c0,1.1,0.3,0.9-0.4,1.7c-0.3,0.3-0.6,0.6-0.9,0.8c-0.4,0.4-0.7,0.8-1.1,1.2c-1.4,1.7-2.9,3.2-4,5.2c-1.5,2.5-4,5.7-3.9,8.8
		c0.1,1.8,1.3,3.4,1.3,5.2c-0.1,1.2-1,2.4-0.7,3.6c0,0.1,0.1,0.1,0.2,0.1c0.6-0.2,0.8-0.5,1.1-1c0,0,0-0.1-0.1,0
		c-0.9,0.2-1.2,0-0.8-0.5c0.1-0.1,0.1-0.3,0.2-0.4c0.1-0.4,0.3-0.8,0.4-1.3c0.1-0.7,0-1.5-0.3-2.2c-0.4-1.3-1-2.5-0.9-3.9
		s0.8-2.8,1.5-4c1.4-2.5,2.7-5.1,4.6-7.3c0.8-0.8,1.5-1.7,2.2-2.6c0.6-0.7,1.5-1.2,2-2c0.3-0.5,0.3-0.6,0.4-1.1
		c0.1-0.2-0.2-0.2-0.2-0.4c0-0.4,0.5-1,1-1.4c0.8-0.6,2.1-1.5,2.2-2.6c0-0.4-0.2-0.6-0.2-0.9s-0.3-0.1-0.2-0.4
		c0.1-0.2,0.8-0.5,0.9-0.6c0.6-0.5,1.5-1.1,0.9-1.9c-0.1-0.2-0.4,0-0.3,0.2c0.6,0.9-1.6,1.9-2.1,2.4C37.5,17.1,37.5,17.2,37.6,17.3z
		"/>
	<path class="st2" d="M16.3,19.8c-6.6,8.6-4.8,21,3.9,27.8c0.4,0.3,0.7,0.6,1.1,0.8c0.7,0.1,1.4,0.2,2.1,0.1
		c5.1-0.4,10.1-3.7,12.4-8.2c2.2-4.2,2.5-10.6,1.2-15.2c-1-3.4-3.1-6.9-5.9-9.1c-2-1.6-4-2.3-6.1-2.5C21.6,14.7,18.6,16.9,16.3,19.8
		z"/>
	<path class="st3" d="M44,16.7c-3.6-2.8-7.7-4.2-11.9-4.3l0.1,0.1c6.7,4.8,10.3,13.7,7.9,21.5c-1.1,3.7-3.2,7.5-5.6,10.4
		c-2.5,3-5.7,5.1-9.3,6.2c8,3.1,17.2,0.9,22.5-6.1C54.5,35.9,52.7,23.5,44,16.7z"/>
	<path class="st3" d="M44,16.7c-1.2-0.9-2.5-1.7-3.8-2.4c0.2,0.3,0.3,0.5,0.5,0.7c3.8,5.6,6.4,11.4,5.1,18.1
		c-0.4,1.9-0.5,3.8-1.2,5.7c-0.8,1.9-1.9,3.6-3.1,5.2c-1.1,1.4-2.4,2.6-3.6,3.8c-2.2,2.1-4,3.3-6.3,4.2c1.7,0.1,3.3,0,5-0.3
		c1.8-0.8,3.4-1.8,4.7-2.7c1.6-1.1,2.7-2.5,3.7-4.1c1.3-2.2,2.7-4.4,3.5-6.9c0.6-1.9,1.3-3.7,1.7-5.6c0.6-3.1,0.2-5.5-0.9-8.5
		c-0.4-1.1-0.8-2.2-1.3-3.2C46.7,19.1,45.4,17.8,44,16.7z"/>
	<path class="st4" d="M41.8,15.2c0.6,0.4,1.2,0.8,1.8,1.2c5.6-4.5,9.7-6.9,10.7-5.9c1.7,1.7-6.8,12.8-18.9,24.9S12.1,56,10.4,54.3
		c-1-1,1.4-5.1,5.9-10.6c-0.4-0.6-0.8-1.2-1.2-1.8C5.2,53.1-0.6,61.8,1.1,63.6C3.5,66,19.4,54,36.7,36.8S65.9,3.7,63.6,1.3
		C61.8-0.4,53.1,5.4,41.8,15.2z"/>
	<path class="st2" d="M18,22.1c-2.3,0.1-3.5,4.8-3.7,6.5c-0.4,4.4,0.9,9.5,5.1,11.9c2,1.1,4.2,0.1,5.9-1.1c2.5-1.9,4.3-4.6,4.7-7.7
		c0.4-3.3,0.2-6.3-1.8-9c-0.9-1.3-1.9-2.4-3.5-2.6C22.7,19.8,20.3,20.6,18,22.1z"/>
	<path class="st2" d="M16.3,28.4c-0.7,1.7-0.2,5.8,2.4,4.8C22.2,31.9,18.7,26,16.3,28.4z"/>
	<path class="st5" d="M42.8,15.8c0.3,0.2,0.5,0.4,0.8,0.6c8-7,13.8-11.2,14.8-10.2c1.5,1.5-9.1,14.4-23.6,28.9
		C20.2,49.5,7.3,60,5.8,58.5c-1-1,3.3-6.9,10.4-14.9c-0.2-0.3-0.4-0.5-0.6-0.8C7.6,52,2.9,58.9,4.2,60.2C6.1,62,20,51.1,35.4,35.7
		C50.8,20.4,61.8,6.4,59.9,4.5C58.7,3.3,51.8,7.9,42.8,15.8z"/>
	<path class="st6" d="M44.1,16.8c0.5,0.4,0.9,0.7,1.3,1.1c0.9-0.5,1.5-0.7,1.7-0.4c1,1-4.9,8.4-13.2,16.6
		c-8.2,8.2-15.7,14.1-16.6,13.1c-0.2-0.2-0.1-0.8,0.4-1.7c-0.4-0.4-0.8-0.9-1.1-1.3c-4.1,5-6.3,8.5-5.5,9.3
		c1.4,1.4,11.9-7,23.6-18.6c11.7-11.7,20.1-22.2,18.7-23.6C52.7,10.4,49.1,12.7,44.1,16.8z"/>
</g>
</svg>
