<?xml version="1.0" encoding="utf-8"?>
<!-- Generator: Adobe Illustrator 25.3.1, SVG Export Plug-In . SVG Version: 6.00 Build 0)  -->
<svg version="1.1" id="Layer_1" xmlns:v="https://vecta.io/nano"
	 xmlns="http://www.w3.org/2000/svg" xmlns:xlink="http://www.w3.org/1999/xlink" x="0px" y="0px" viewBox="0 0 193 230"
	 style="enable-background:new 0 0 193 230;" xml:space="preserve">
<style type="text/css">
	.st0{fill:#D8D8D8;}
	.st1{opacity:0.76;fill:#999999;enable-background:new    ;}
	.st2{opacity:0.76;fill:#CECECE;enable-background:new    ;}
	.st3{opacity:0.76;fill:#AAAAAA;enable-background:new    ;}
	.st4{opacity:0.47;fill:#DFE3E5;enable-background:new    ;}
	.st5{opacity:0.42;fill:#DFE3E5;enable-background:new    ;}
	.st6{opacity:0.42;fill:#9B9B9B;enable-background:new    ;}
	.st7{fill:#E5E5E5;}
	.st8{opacity:0.47;fill:#BCBCBC;enable-background:new    ;}
	.st9{opacity:0.51;fill:#C6C6C6;enable-background:new    ;}
	.st10{opacity:0.62;fill:#C6C6C6;enable-background:new    ;}
</style>
<g>
	
		<ellipse transform="matrix(0.6438 -0.7652 0.7652 0.6438 -53.5421 114.752)" class="st0" cx="96.5" cy="114.9" rx="64.7" ry="66.4"/>
	<path class="st1" d="M90.8,180.1c6.7,0.7,13.4,0.5,19.9-0.7c2.9-1.6,5.4-3.5,7.9-5.4c4-3.4,22.8-21.6,18.3-26.9
		c-1.5,1.8-3,3.3-4.6,4.4c5.9-12.5,24.8-28.5,21.8-43.9c-1.2,1.4-3.5,2.3-4.7,3.7c1.4-6.8,5.1-13.8,7.5-21.3c-1.3-2.9-2.5-5.4-4-8
		c-5.7,18.5-14.1,36.9-26.2,50.9c1.7-7.5,19.4-29.3,11.1-37c-11.1,14-15,34-23.4,49.3c-5.4,10.1-10.9,19.9-18.2,28.6
		C94.5,176.4,92.6,178.3,90.8,180.1z"/>
	<path class="st1" d="M33.2,131.1c3.4,11.7,10,22.8,19.7,31.6c2.2-9.2,1.5-20.8,5.1-29.1c1.6-4.1,19.6-31,15.3-34.3
		C68,94.8,57.6,117,52.6,117.1c4.3-12.4,13-26.1,21.9-35.6c4.6-4.7,10.1-9.9,15.1-14c4.1-3,9.9-5.2,12.5-9.8
		c2.1-3.2,2.8-5.9,2.7-7.6c-4.7-0.6-9.4-0.8-14.1-0.8l0,0c-12.9,8.5-23.3,23-32.3,35.1C46.8,100.3,37.5,115.8,33.2,131.1z"/>
	<path class="st1" d="M81.3,158.9c10.9-8.9,21.6-23.9,27.2-36.4c3.7-7.6,10.9-20.6,8.5-29.1c-3.6,5-9.1,21.5-15.1,21.3
		c0.6-8.4,7.5-17,11.5-24.3c1.7-3.1,11.7-14.4,8.7-18.4c-4.5-5.9-25,26.5-26.8,29.3C83.8,118.7,69.5,139,81.3,158.9z"/>
	<path class="st1" d="M75.5,169.4c0.8-2.7,3-19.3-3.6-18c-5.9,1.2-8.4,26.4,2.3,22.5L75.5,169.4z"/>
	<path class="st1" d="M128.8,84.8c4.1-2.7,13.2-13.1,10.3-18.9c-6.6,0.6-11.6,11.7-12.8,17.4L128.8,84.8z"/>
	<path class="st1" d="M53.7,118.3c4.5-1.7,7.1-6.6,9.7-10.5c0.9-1.1,7.4-10.3,9-7.4c0,0.3,0.7,0.3,0.7-0.1c-0.3-4-4.7-0.3-5.9,1.2
		C62,106.6,59,113.2,53.7,118.3C53.4,118,53.4,118.4,53.7,118.3z"/>
	<path class="st1" d="M43.4,106.2c-2.8,5.6-6,11.2-7.5,17.3l0,0c1.8-6.2,5.9-12.2,8.8-18.1c2.8-5.9,6.3-11.9,10.2-17.2
		c8.9-12.4,19.3-23.3,29.6-34.6c0.3-0.4-0.1-0.7-0.4-0.6c-11.8,9.4-21.4,22.2-30,34.6C49.9,93.7,46.5,100,43.4,106.2z"/>
	<path class="st1" d="M67.2,158.1c-0.5,2-0.6,4.1-0.8,6.4c-0.1,3,1.5,5.2,1.7,7.8l0,0c0.2-1,0.2-1.7-0.2-2.6
		c-0.6-2.9-1.1-4.9-0.7-7.9c0.3-3.7,0.9-9.1,5.1-10.1c0.3,0,0.3-0.7-0.1-0.7C68.6,151.7,67.9,155.1,67.2,158.1z"/>
	<path class="st1" d="M79.1,130.1c-3.8,10-2.7,19.2,2.5,28.8l0,0c-1.8-5.2-3.6-10.4-4-15.6c-0.2-5.7,1.4-10.5,3.7-15.3
		c3.9-8.7,8.8-17.4,14.1-25.6c1.5-2.5,20.3-34.8,25.9-31.2c0.7,0.6,1.6-0.5,0.9-1.1c-6.1-5.1-21.7,21.9-24.1,25.4
		C91,106.4,84,118,79.1,130.1z"/>
	<path class="st1" d="M126.7,84C127,84,127,84,126.7,84c-2.2-1.8,7.1-13.6,7.6-15.7c0.3-0.7-0.7-0.6-0.7-0.3
		C132.8,69.5,124,83.6,126.7,84z"/>
	<path class="st1" d="M101.7,114.8c10-0.2,10.3-15.2,15.2-21c0.3-0.4-0.1-1.3-0.7-0.9c-2.5,1.9-3.2,4.9-4.3,8
		c-1.9,5.2-4.6,11.7-10.5,13.2C101.7,114.5,101.7,114.8,101.7,114.8z"/>
	<path class="st1" d="M126.2,116c-3.3,7.6-5.6,15.5-9.3,23.1c-3.4,7-6.8,13.6-10.6,20.2c-3.2,5.6-5.8,13.8-11.5,17.7c0,0,0,0.3,0,0
		c4.5-1.7,6.5-5.9,8.8-10.1c4-7.3,8.4-14.1,12.1-21.4c3.7-7.3,7.1-14.6,9.7-22.2c3.2-9.3,8.1-18,13-26.5c0.6-1-0.8-1.9-1.4-0.9
		C133,102.8,128.9,109.1,126.2,116z"/>
	<path class="st1" d="M150.9,82.5c-2.2,9.5-4.4,18.4-8.6,27.1c-4,8-9.7,14.8-14.7,22.3l0,0c14.7-10.6,21.5-31.9,25-49.2
		C152.8,81.7,151.1,81.2,150.9,82.5z"/>
	<path class="st1" d="M132.3,152.1c1,0.2,1.9-1.2,2.2-1.9c0.3-0.4,2.3-3.9,2.8-2.6l0,0c0-0.3,0.3-0.7-0.1-1c0-0.3-0.4-0.3-0.4-0.3
		c-1,0.4-1.9,1.5-2.4,2.5c-0.3,0.7-0.9,1.1-1.2,1.8c-0.3,0.4-0.9,0.7-1.2,1.1C132,151.8,132.3,151.8,132.3,152.1z"/>
	<path class="st1" d="M150.1,111.3c0,0.3,0.4,0.3,0.4,0.3c0.7-0.1,1.2-1.1,1.5-1.8c0.3-0.7,1.2-1.4,1.9-1.5l0,0
		c-0.3,0-0.7-0.3-1-0.2c-0.3,0-1,0.4-1.3,0.8C150.9,109.2,150,110.3,150.1,111.3z"/>
	<path class="st2" d="M145.8,111.6c-2.5,5.2-6.5,9.2-7.7,15c0,0.3,0.4,1,0.7,0.9c1.6-0.5,2.6-0.9,3.5-2.3c0.6-0.7,1.2-1.8,1.8-2.5
		c0.2-1,0.9-1.4,1.9-1.5c1.3-0.8,1.3-0.4,0.4,1.3c0,3.7-4.6,8.1-7.1,10.6s-5.2,4.8-7.7,7.3c-11.1,10.3-15.8,25-26.5,35.6
		c0,0,0,0.3,0,0c11.5-9.7,16.3-23.7,26.7-34c4-4,8.7-7.4,11.9-12c1.8-2.5,5.3-7.5,4-11c0-0.3-0.4-0.6-0.7-0.6
		c-2,0.2-3.2,1.6-4.4,3.4c-0.6,0.7-1.2,1.8-1.8,2.5c-1.9,1.5-2.2,1.5-1-0.6c0.5-2.4,2.6-4.6,3.8-6.7c5-8.1,6.5-16.9,9.7-25.8
		c0.3-0.4-0.7-0.9-1-0.2C149.9,97.6,149.2,105,145.8,111.6z"/>
	<path class="st2" d="M129.5,116.4c0,0.3,0.4,0.6,0.7,0.3c2.9-1.6,3.2-4.9,4-8c-0.1-0.7-0.7-0.9-1-0.2c-0.2,1.7-0.6,4.4-1.5,5.8
		c-2.7,3.6-0.6-2.9,0-3.7c0.5-1.7,4.2-9.4,5.7-7.5c3,3.7-5,14.8-7.1,17.9c-2.1,3.2-14.6,20.3-9.2,21.1c2.4,0.5,6.6-4.9,8.1-6.7
		c0.6-0.7,5.8-6.5,6.2-5.2c0.8,1.9-4.2,5-5.8,6.2c-5.5,5.1-9.6,11.8-13.4,18.2c-4.7,7.7-8.1,17.7-16,23.1l0,0
		c6.4-3.2,9.2-9.5,12.6-15.4c4.6-8.1,9.8-17.2,16.6-23.8c0.9-0.7,12.4-10.7,5.4-10.1c-3.3,0.3-6.2,5.9-8.3,8.1
		c-2.7,2.9-7.4,7.3-4-0.3c1.4-3.5,4.1-7,6.1-10.2c3.8-6,13.9-16.9,9.2-24.8c-0.4-0.3-0.7-0.3-1-0.2
		C132.4,103.8,128.7,110.8,129.5,116.4z"/>
	<path class="st2" d="M110.7,175.7C110.7,175.7,110.7,176,110.7,175.7c5.2-1.1,8.9-5.1,13-8.1c3.1-2.6,10-7.9,9.5-12.8
		c-0.5-5.6-7.9,0.7-9.4,2.5c-1.2,1.4-9.2,9.5-4.4,10.7c4.1,1.3,9.6-7.8,9.7-10.8c0-0.3-0.4-0.6-0.7-0.6c-2.6,0.2-4.1,2.7-4.9,4.8
		c-0.3,0.4,0.4,1,0.7,0.3c1.2-1.8,4.9-5.1,2.6-1.2c-0.9,1.4-2.6,4.6-4.2,5c-1.6,0.8-3.2,1.6-2.8-1.8c-0.1-0.7,0.9-1.4,1.5-2.1
		c1.2-1.4,2.4-3.2,3.9-4.7c1.2-1.1,3-3.3,4.7-3.4c5.7-0.2-1.9,8.5-3.8,10.3C121.4,168.4,116.2,173.2,110.7,175.7z"/>
	<path class="st2" d="M79.4,79.8c0,0.3,0.4,1,0.7,0.6c3.9-1.3,0.2,2.6-0.7,3.7c-1.5,1.8-4,3.4-5.9,4.8c-2.7,2.9-5.2,5.8-7.2,9.3
		c0,0.3,0.1,0.7,0.4,0.6c4.1,1,6.9-4.6,10.3-3.9c8.4,0.9-8.1,29-10.2,32.5c-3.1,6.3-16.7,29.8-7.5,36.3l0,0c-7.9-7,5.1-29.4,8.2-36
		c4.2-8.7,13.6-19.8,12.7-30.4c-0.3-3.6-2.3-3.8-5.6-2.5c-1.3,0.8-2.9,1.6-4.1,2.4c-5.2,1.8-0.9-2.9,1.2-5.1
		c4-4.3,9.4-7.1,11.9-12.4c0.3-0.4-0.1-0.7-0.4-1c1,0.2-3.1-1.1-3-0.4c-0.5-2,4.2-5,5.2-5.5c3.2-1.9,6.4-3.6,9.5-5.2
		c5.8-2.8,11.8-6.4,10.5-13.6c-0.1-0.7-1-0.2-1,0.4C107.7,69,81.6,67.6,79.4,79.8z"/>
	<path class="st2" d="M53,71.4c0,3.3,2.7,4.1,0.7,8.3c-1.1,2.8-4.6,4.4-6.5,6.2c-3.7,3.3-7.4,6.6-7.6,12c0,0.3,0.4,0.6,0.7,0.6
		c3,0.4,4.5-2.4,6.3-4.5c2.7-2.9,1-0.1-0.5,1.7c-1.5,1.8-2.7,3.6-4.2,5c-2.4,3.2-8.8,9.4-5.5,13.8c0.4,0.3,0.7,0.3,1,0.2
		c1.5-1.5,1.8-1.8,0.7,0.3c-0.9,1.4-1.8,2.5-2.7,3.6c-1.5,1.8-2.7,3.6-2.8,5.9c0.1,0.7,0.7,0.9,1,0.2c1.6-5.1,6-8.2,7.1-13.6
		c0.3-0.7-0.7-0.9-1-0.6c-4.3,4-2.2-1.8-0.7-4.3c1.5-2.5,3.6-4.6,5.4-6.8c2.1-2.5,4.9-5.4,5.9-8.5c0.3-0.4-0.4-1-0.7-0.6
		c-1.3,0.4-2.3,0.9-3.2,1.9c-0.3,0.4-2.1,3.2-2.4,3.2c-0.1-1.3,0.1-3,0-4.3c0.6-0.7,1.2-1.4,2.1-2.2c3.1-2.9,8.8-6.1,9.7-10.5
		c0.5-1.4-0.2-2.6-0.3-4c-0.3-3.6-2-0.5,1.8-5.8c2.7-3.6,2.4-3.5,6-4.2c6.6-1.2,8.7-3.8,12.9-9.1l0,0c-3.1,2.9-5.8,6.5-10,7.5
		c-2.6,0.9-5.3,0.5-7.8,1.7C55.2,66.2,53.1,68.4,53,71.4z"/>
	<path class="st2" d="M124.5,62.5c5,3.9,2.7,8.4,0.5,13.3c-1.4,3.1-3.5,5.6-4.9,8.8c-1.3,3.8,2.1,5.5,2.5,9.4
		c1.1,8.6-4.8,14.1-6.8,21.3c-0.8,2.4-0.5,2.4,0.7,4.3c0.3,0,0.3,0,0.7-0.1c1.3-0.1,2.1,1.1,2,3.8c0.2,2-2.2,5.2-3.1,6.9
		c-3.2,4.9-7.7,7.3-12,11c-5.3,4.5-6.1,10.9-8.2,17c-1.1,2.8-8.2,21-14.1,14.2l0,0c5,7.2,12.6-8.8,13.6-11.9
		c2.2-5.9,2.9-12.9,7.5-17.6c3.3-3.6,7.9-5.4,11.2-9.3c2.4-2.9,7.8-9.7,5.8-14.2c-0.8-1.6-2-0.5-2.8-2.1c-1.6-2.9,2.4-6.9,3.8-9.7
		c2.2-5.2,4.2-13,2.4-18.9c0-0.3-1-0.6-1.1-0.9c-1.3-3.6-0.6-3.6,1.1-6.1c2.1-3.2,3.7-7,4.8-10.4c0.5-1.7,2.5-5.9,1.3-7.8
		c-1.2-2.2-8.8-1.2-5.6-6.8c0.3-0.4-0.4-1-0.7-0.3C120.6,59.5,122,60.4,124.5,62.5z"/>
	<path class="st2" d="M128.9,93.5c-1.1,2.4-1.5,5.5-2.3,8.2c-0.8,2.1-2.3,4.2-3.4,6.3c-0.6,1-1.7,3.1-1.2,4.8
		c0.9,2.3,1.8,1.8,3.4,0.7c1.9-1.5,3.1-6.3,3.9-8.3c1.9-4.8,3.5-9.6,6.8-13.6c0,0,0-0.3-0.4-0.3c-5,4.1-6.7,10.6-9.2,16.5
		c-0.8,1.7-3.1,6.6-3.2,1.9c0.1-2.3,2.9-5.2,3.7-7.3c1.9-4.5,2.2-8.9,5.9-12.5c2.1-2.2,4.7-3.4,6.5-5.6c2.4-2.9,4.4-6.4,3.1-10.3
		l0,0C145.3,83.4,131.9,86.5,128.9,93.5z"/>
	<path class="st2" d="M98.5,70.4c-2.6,1.2-4.8,2.4-4.9,5.4c0,0.3,0.4,0.6,0.7,0.6c1.6-0.8,2.9-1.6,4.4-2.7c0.6-0.4,2.5-1.9,2.8-1.9
		c0.1,1.7,0,3.3,0.1,5c-0.3,0.4-1,0.4-1.3,0.8c-2.8,2.2-7.1,2.9-10.2,5.2c-7.8,5.7,2.7,4.8,2.3,11.1c-0.1,2.7-3.4,6.6-4.9,8.8
		c-2.4,3.5-4.8,6.4-7.5,9.6c-3.6,4.6-6.2,9.5-8.4,14.7c-2.4,6.9-4.1,14-6.1,21.2c-0.5,1.4-1.3,7.8-2.6,8.6c-1-0.6-2.1-1.1-3.1-1.7
		c0.3-0.7,0.5-1.7,1.1-2.4c0.5-1.4,1.8-2.8,2.6-4.2l0,0c-2.4,2.9-5.7,7.5-3.3,11.3l0.3,0c5.5-2.1,6.3-12.2,7.5-17
		c1.8-6.2,3.2-12.6,6-18.5c2.5-5.9,6.4-10.6,10-15.5c3-3.6,11.3-12.3,9.4-18.1c-0.5-2.3-1.4-1.2-2.9-2.4c-4-4,2.8-5.9,5.7-7.2
		c2.6-1.2,11.6-4.3,9.5-9.2c-1.3-2.9-4.4-0.6-6.3,0.2c-1.3,0.8-2.5,2.2-4.1,2.7c-3.9,1.3,3.1-2.9,4-3.4c3.2-1.9,5.7-3.2,8.5-6.1
		c2.1-2.5,5.9-8.5,3-11.9c-0.4-0.3-0.7-0.3-0.7,0.1c-0.9,0.7-0.6,0.4-1.2,1.8c-0.3,0.7,0.8,1.3,1,0.6c0.3-0.4,0.6,2.6,0.6,2.6
		c-0.1,2.3-2.8,5.6-4.7,7.4C103.7,68,101.1,68.9,98.5,70.4z"/>
	<path class="st2" d="M99,106.7c-3.8,6-9,11.1-12.4,17.7c-0.3,0.4,0.1,1,0.7,0.9c1.6-0.5,2.8-1.9,4.4-2.7c2.5-1.9,5.8-2.5,4.9,2.2
		c-0.5,2.4-3,4.3-4.2,5.7c-2.4,2.5-9.7,7.5-8.3,12.4c0.6,2.6,2.5,1.8,4.4,0.6c6.4-3.6,8.4-10.7,11.9-16.7l0,0
		c-2.3,3.9-3.9,8.3-7,11.9c-1.2,1.1-3.3,4-5,4.1c-7.9,1.4,4.7-11.1,6.2-12.5c1.8-1.8,7.7-11.3,1.7-11.5c-2-0.2-6.5,5.6-7.6,5
		c0.3,0,11.1-14.6,12.5-17.1c3.8-6.3,5.5-13.8,9.3-19.8c1.1-2.1,2.6-4.2,4.1-6c2.1-2.5,3.7-3,2.4,1.1c-0.5,1.7-3.3,4-4.6,5.1
		c-0.3,0.4,0.1,1,0.7,0.6c3.4-2.6,6.5-5.9,6.4-10.2c0-0.3-0.4-0.6-0.7-0.6c-5.6,0.5-10.1,10.2-12,14.7
		C103.8,96,102.3,101.8,99,106.7z"/>
	<path class="st2" d="M42.9,119.9c0.7,0.9,2.3,0.1,3.1,0.7c2.2,2.1-4,11.3-4.8,13.7c0,0.3,0.1,0.7,0.4,0.6c5.4,0.9,8.7-3.1,11.7-7.3
		c2.1-3.2,4.1-6.4,6.2-9.5c0.9-1.1,6.3-11.5,8.6-8.1c1.2,1.9-9.5,16.8-10.7,18.9c-2.3,4.2-5,8.1-5.9,12.8s-0.5,10-0.7,14.7
		c0,0,0.4,0.3,0.3,0c0.9-4.7,0.1-10,1-14.8c1.5-6.1,5.3-11.5,8.2-17c2.3-4.2,8.1-10.4,8.3-15.4c0.1-2.3-0.6-2.9-2.8-2.1
		c-1.6,0.5-2.7,2.9-3.7,4c-2.7,3.6-5,7.8-7.6,11.7c-1.8,2.8-4,7.3-7.2,9c-2.3,0.9-4-0.3-3.9-2.7c0.2-1,1.2-1.8,1.8-2.8
		c0.9-1.4,2.4-3.2,2.2-4.9c-0.3-3.3-3.8-1.7-4.1-5c-0.1-1.7,3.2-5.3,4.1-6.7c1.5-2.5,2.9-4.9,4.4-7.4c2.9-5.2,6.5-9.9,9.7-15.2
		c6.2-9.5,11.7-18.3,20.4-26.4c3.4-3.3,6.5-5.6,11.1-6.6c4.9-1.4,2.3,3.1,0.1,5c-1.9,1.5-4.8,2.1-7.1,2.9
		c-8.1,3-13.8,10.2-17.8,17.9c-0.3,0.4,0.4,0.6,0.7,0.3c5.6-8.8,11.4-14.7,21-18.5c2.6-0.9,8.8-2.8,8.8-6.1
		c0.3-8.4-16.1,3.1-17.9,4.9C66.9,73.9,57.4,91,47.8,107.9C47.4,110.2,41,117.1,42.9,119.9z"/>
	<path class="st3" d="M69.1,168c0,0.3,0.4,0.3,0.7,0.3c3.2-1.6,3.2-9.3,2.3-12.2c0-0.3-0.4-0.3-0.7-0.3c-0.3,0.4-0.3,0.4-0.6,0.7
		c0.2-1.4,1-3.4,2.5-2.2c1.1,0.9,1,3.6,0.8,4.9c-0.2,1.7-0.7,11.1-3,10.9l0,0c2.6-0.9,3.1-6.3,3.6-8.6c0.2-2,1.4-7.1-1.1-8.6
		C68.6,151.4,68.2,165.7,69.1,168z M71.1,157.1c0.4,0.3,0.1,1.3,0.1,1.7c0.1,1.3-0.1,2.3-0.3,3.7c-0.2,1-0.2,1.7-0.4,2.7
		c-0.3,0.7-0.5,1.4-0.8,1.7c-0.3,0.4,0.1,0.7-0.3,0.4c-0.4-0.6,0-3.7,0-4.3c0.2-1.4,0.1-2.7,0.3-4.4c0,0,0,0,0.3,0
		c0.3-0.7,0.5-1.4,0.8-2.1C71.1,156.8,71.1,156.8,71.1,157.1z"/>
	<path class="st3" d="M156.5,93.4c-0.7,3.7-2.4,6.5-3.1,10.3c0,0.3,0.4,0.6,0.7,0.6c1.3-0.4,1.6-1.1,2.6-1.2
		c1.6-0.5-0.2-2.6,1.7,0.2c1.1,1.6,0.6,3.6,0.1,5.3c-0.7,3.4-1.7,6.8-2.1,10.2c0,0.3,0.4,0.6,0.7,0.6c3,0.1-3.1,10.6-4,12
		c-3.5,5.3-8.6,8.7-11.7,14.4c-0.3,0.4,0.1,0.7,0.4,0.6c2.1,0.8,2-0.2,3.6-0.3c3.3-0.3,3.4,0.4,1.7,3.9c-1.1,2.4-2.6,4.2-4.1,6.4
		c-1.5,2.1-2.9,4.6-4.7,6.7c-1.2,1.4-2.1,2.8-3.3,4.3c-0.6,0.7-1.5,1.5-2.5,2.2c-2.9-2.4-2-4.2,1.9-5.2c0.3,0,0-0.3,0-0.3
		c-3.2,0.9-5.4,3.5-6.1,6.5c0,0,0,0.3,0.4,0.3c4.4,0.6,7.7-3.7,10.1-6.9c4.5-6.1,9.9-12.2,10.9-19.9c0-0.3-0.1-0.7-0.4-0.6
		c-2-0.2-4.8,2.7-6,0.5c-0.4-1,9.1-10.1,10.3-11.6c2.1-2.8,6-8.2,5.6-11.8c-0.1-1-0.5-1.6-0.5-2.3c0-0.3-0.7-0.3-1-0.2
		c-0.4-1.3,0.4-3,0.6-4.4c1-4.1,3.1-9.9-0.2-13.6c-0.4-0.3-0.7-0.3-1,0.1c-0.3,0.7-0.9,1.4-1.5,1.5c-1.9,0.8-1.7-0.2,0.7-3.4
		c0.8-2.1,0.8-2.1,0.9-4.4C157.5,93.3,156.8,93,156.5,93.4z"/>
	<g>
		<path class="st3" d="M133.7,148.4L133.7,148.4C133,148.4,133,148.4,133.7,148.4z"/>
		<path class="st3" d="M133.7,148.4c0.7-0.1,1.7-0.1,1.3-0.4c0.9-1.1,1.3-0.8,0.7,0.9c0.4,1,0.2,2-0.4,2.7c-1.3,4.1-5,8.1-7.7,11.3
			c-4.8,5.8-10,11.2-16.7,14.8c0,0,0,0.3,0,0c5.2-1.5,9.2-5.1,12.6-8.8c4.3-4.4,8.9-9.1,12-14.7c0.8-1.7,4.7-7.4,2.2-9.5
			c-1.8-1.5-3.2,0.9-4.8,1.8C132.2,147.5,133,148.4,133.7,148.4z"/>
	</g>
	<path class="st3" d="M151.4,107.5c0,0.3,0.4,1,1.1,0.9c7.3-0.6-2.8,17.6-4.6,19.7c-3.6,4.6-7.9,9-10.1,14.5l0,0
		c6.2-9.5,18.6-19.3,19.2-31.7c0.1-2.3-0.6-2.9-2.1-4.8c-0.7-0.9-0.6,0.7-1.4-0.9c-0.4-1,0.4-3,1-4.1c0.8-2.4,2.2-4.9,3-7.6
		c0.3-0.7-0.8-1.3-1.4-0.5C153.9,97.6,151.7,102.8,151.4,107.5z"/>
	<path class="st3" d="M137.1,96.4c10.3,3.1-7.7,30.7-10.2,35.9c0,0,0,0.3,0.3,0c4.7-7.4,9.4-14.8,12.7-22.8
		c1.1-3.1,2.4-6.5,1.8-10.2c-0.1-1.3-3.1-4.7-3.1-4.7c0.3-0.7-0.7-0.9-1-0.6c-0.3,0.4-0.3,0.7-0.6,1
		C136.4,95.8,136.4,96.1,137.1,96.4z"/>
	<path class="st3" d="M116.6,94.2c2.8,5.1,0.3,11-1.3,15.8c-2.1,6.5-5.2,12.5-8.8,18.1c-7,11.3-16.6,20.1-25,30.2l0,0
		c12.3-8.4,22.4-21.9,29.3-34.9c4-7.3,12.1-21.7,7-30.3C117.5,92.5,116.2,93.2,116.6,94.2z"/>
	<path class="st3" d="M71.7,98.8c5.2,2.2-10.8,25.6-11.6,27c-3.5,5.6-5,11.1-5.8,17.5c-0.8,6.1,0.1,13-1.7,18.5c0,0,0,0.3,0.3,0
		c1.5-2.1,1.9-4.5,2-7.2c0.2-5,0.8-10.1,1.7-14.8c2.1-10.5,9.5-17.5,14-26.9c1.1-2.4,8-15.7,2-15.8C71.2,97.5,71,98.5,71.7,98.8z"/>
	<path class="st3" d="M52.6,116.8C52.6,116.8,52.6,117.1,52.6,116.8c5-15.1,14-26.2,25.1-37.5c5.8-5.8,12.1-10.4,19-15.3
		c4.4-3,6.7-6.9,8.6-11.7c0.2-1-1.1-1.6-1.7-0.5c-2.9,8.9-10.3,11.9-16.8,17.1C80.5,73.7,75,79.5,69.5,85.3
		C61.6,94.3,53.9,105,52.6,116.8z"/>
	<path class="st3" d="M104.8,149.9c-3.1,2.3-4.6,4.1-5.3,8.1c-0.4,3.4-0.4,7-1.8,10.2c-2.2,5.5-6.9,8.9-12.9,9.1l0,0
		c6,0.5,11.4-3.3,13.6-8.8c0.8-2.1,1.3-4.4,1.4-6.8c0.6-4.7,1-8.1,5.4-10.8c1.3-0.8,2.9-1.6,4.1-2.7c4.3-3.7,1.9-8.8,5.6-12.5
		c4.9-4.8,8.3-8.4,8.3-16c0-0.3-0.4-0.3-0.3,0c-0.6,5-1.8,9.8-5.8,13.5c-1.2,1.1-3.8,2-5,3.8c-0.6,1-0.2,1.4-0.2,2
		c0.1,0.7,0.1,1.7,0.2,2.3c-0.1,2.7-1.2,4.8-3.5,6C107.3,148.3,106.1,149.1,104.8,149.9z"/>
	<path class="st3" d="M110.3,64.1c2.5,1.5,1.8,4.8,0.6,6.6c-0.6,1-1.5,2.5-2.4,3.2c-1.5,1.5-3.8,2.3-5,4.1c-1.8,2.2-0.8,1.7-0.7,3.4
		c0.3,3.6,1.3,2.9-0.8,5.7c-0.9,1.1-1.8,2.2-2.7,2.9c-1.2,1.4-2.1,2.8-3.3,4.3c-4.1,6-8.7,11.4-11.7,18.3
		c-4.2,8.7-11.6,20-10.4,30.2c0.8,5.9,5.3,10.9,5.8,16.8c0,4-2.6,8.2-1.3,12.1c0,0.3,0.4,0.3,0.7,0.3c1.9-0.8,2.5-1.9,3.3-3.6
		c0,0,0-0.3-0.3,0c-2.9,0.9-4,0.3-2.8-1.4c0.3-0.4,0.2-1,0.5-1.4c0.2-1.4,0.8-2.7,0.9-4.4c0.1-2.3-0.4-5-1.6-7.2
		c-1.7-4.2-4-8-4.1-12.6s1.8-9.5,3.8-13.7c3.9-8.7,7.5-17.6,13.1-25.5c2.4-2.9,4.5-6.1,6.5-9.2c1.8-2.5,4.6-4.4,6-7.2
		c0.8-1.7,0.8-2.1,1-3.8c0.3-0.7-0.7-0.6-0.8-1.3c-0.1-1.3,1.4-3.5,2.9-4.9c2.5-2.2,6.5-5.6,6.5-9.2c-0.1-1.3-0.8-1.9-0.9-2.9
		c-0.1-1-1-0.2-0.8-1.3c0.3-0.7,2.5-1.9,2.8-2.2c1.8-1.8,4.6-4.1,2.4-6.5c-0.4-0.6-1.3,0.1-0.9,0.7c2.2,2.8-4.7,6.7-6.3,8.5
		C109.9,63.5,110,63.8,110.3,64.1z"/>
	<path class="st4" d="M40.6,78.5c-19.3,30.3-9.8,70.8,20.9,90.8c1.4,0.9,2.5,1.8,3.9,2.3c2.3,0.1,4.7,0.3,7-0.3
		c16.7-2.8,32.3-15.1,38.6-30.7c6.1-14.5,5.2-35.8-0.4-50.6c-4.3-11-12.2-21.9-22.1-28.4c-7.1-4.7-13.9-6.5-20.9-6.5
		C56.7,60.1,47.4,68.2,40.6,78.5z"/>
	<path class="st5" d="M131.3,60.3c-12.7-8.2-26.7-11.7-40.6-10.8l0.4,0.3c23.5,13.9,38,42.3,32.3,68.8c-2.6,12.6-8.4,25.7-15.5,36
		c-7.4,10.6-17.4,18.5-29,23.2c27.3,7.9,57.1-2,72.6-26.7C171.6,120.7,162,80.2,131.3,60.3z"/>
	<path class="st6" d="M131.3,60.3c-4.2-2.6-8.8-4.9-13.3-6.8c0.7,0.9,1.1,1.6,1.9,2.2C134.1,73,144.4,91.4,142,114
		c-0.8,6.4-0.6,12.7-2.3,19.2c-2.1,6.5-5.2,12.5-8.8,18.1c-3.2,4.9-7.2,9.3-10.8,13.6c-6.7,7.6-12.3,12.1-19.6,15.7
		c5.7-0.2,10.9-1,16.4-2.4c5.7-3.2,10.7-6.9,14.8-10.3c5-4.1,8.2-9,11.1-14.6c3.7-7.6,7.7-15.3,9.6-23.8c1.4-6.5,3.2-12.6,4-19
		c1.1-10.4-0.9-18.2-5.4-27.8c-1.6-3.5-3.3-7-5.2-10.2C140.9,67.4,136.3,63.5,131.3,60.3z"/>
	<path class="st7" d="M123.6,55.9c2.1,1.1,4.2,2.3,6.3,3.4c17.2-16.5,30.1-25.6,33.7-22.6c6.1,5.1-18.8,44.3-55.3,87.8
		S37.2,199.4,31,194.3c-3.6-3,3.2-17.3,16.5-36.8c-1.5-1.9-3-3.7-4.5-5.6c-29.5,39.9-46.2,70.3-40,75.8c8.6,7.2,57.7-37,110-98.9
		S200,11,191.7,3.7C185.2-1.4,158.1,20.3,123.6,55.9z"/>
	<path class="st8" d="M46.9,85.6c-7.6,1-10.2,16.9-10.4,22.6c-0.1,14.7,5.7,31.2,20.3,37.9c6.9,3.1,13.9-0.9,19.2-5.3
		c7.7-7,12.9-16.5,13.3-26.8c0.4-11-1.2-20.9-8.5-29.2c-3.4-4-7-7.4-12.3-7.6C61.8,76.7,54.1,80,46.9,85.6z"/>
	<path class="st8" d="M43.1,106.9c-1.8,5.8,1,19.2,9.3,15.2C63.6,116.8,50.3,98.3,43.1,106.9z"/>
	<path class="st9" d="M127.1,57.6c1,0.6,1.8,1.2,2.8,1.8c24.4-25.5,42.4-41,46-38c5.4,4.5-25.9,50.2-69.7,102.4
		C62.1,175.6,22.4,214,17,209.5c-3.6-3,8.9-23.8,30.1-52.3c-0.7-0.9-1.5-1.5-2.2-2.5c-23.8,32.7-37.4,56.9-32.7,60.8
		c6.8,5.4,49.6-34.6,96.1-90c46.5-55,78.9-104.5,72-110.2C176.1,11.7,154.6,28.9,127.1,57.6z"/>
	<path class="st10" d="M131.7,60.6c1.8,1.2,3.2,2.1,4.6,3.3c2.8-1.9,4.8-2.7,5.5-1.8c3.6,3-13.8,29.2-38.9,58.7
		c-24.8,29.5-47.9,51.2-51.1,48.1c-0.7-0.6-0.6-2.6,0.8-5.7c-1.4-1.2-2.9-2.7-4-4c-12.1,17.7-18.4,29.9-15.5,32.3
		c5,4.2,37.3-26.6,72.7-68.3c35.3-42.1,60.1-79.2,55-83.4C158.3,36.9,147,45.6,131.7,60.6z"/>
</g>
</svg>
