<?xml version="1.0" encoding="utf-8"?>
<!-- Generator: Adobe Illustrator 25.3.1, SVG Export Plug-In . SVG Version: 6.00 Build 0)  -->
<svg version="1.1" id="Layer_1" xmlns="http://www.w3.org/2000/svg" xmlns:xlink="http://www.w3.org/1999/xlink" x="0px" y="0px"
	 viewBox="0 0 191 118" style="enable-background:new 0 0 191 118;" xml:space="preserve">
<style type="text/css">
	.st0{fill:#001FFF;}
	.st1{fill:#FFCE00;}
	.st2{fill:#FAF9FA;}
	.st3{fill-rule:evenodd;clip-rule:evenodd;fill:#969696;}
	.st4{fill:#FFFFFF;}
	.st5{fill:#969696;}
	.st6{fill-rule:evenodd;clip-rule:evenodd;fill:#FF0000;}
</style>
<path class="st0" d="M170.5,81c-0.6,0-1-0.4-1-1V45c0-0.6,0.4-1,1-1s1,0.4,1,1v35C171.5,80.6,171.1,81,170.5,81z"/>
<path class="st0" d="M142.5,92c-0.6,0-1-0.4-1-1V56c0-0.6,0.4-1,1-1s1,0.4,1,1v35C143.5,91.6,143.1,92,142.5,92z"/>
<path class="st1" d="M156.5,76c-0.6,0-1-0.4-1-1V40c0-0.6,0.4-1,1-1s1,0.4,1,1v35C157.5,75.6,157.1,76,156.5,76z"/>
<path class="st1" d="M184.5,66c-0.6,0-1-0.4-1-1V30c0-0.6,0.4-1,1-1s1,0.4,1,1v35C185.5,65.6,185.1,66,184.5,66z"/>
<path class="st0" d="M166.6,74c-1.2,0-2.1-1-2.1-2.1V52.1c0-1.2,1-2.1,2.1-2.1h7.7c1.2,0,2.1,1,2.1,2.1v19.7c0,1.2-1,2.1-2.1,2.1
	H166.6z"/>
<path class="st0" d="M138.6,85c-1.2,0-2.1-1-2.1-2.1V63.1c0-1.2,1-2.1,2.1-2.1h7.7c1.2,0,2.1,1,2.1,2.1v19.7c0,1.2-1,2.1-2.1,2.1
	H138.6z"/>
<path class="st1" d="M152.6,70c-1.2,0-2.1-1-2.1-2.1V48.1c0-1.2,1-2.1,2.1-2.1h7.7c1.2,0,2.1,1,2.1,2.1v19.7c0,1.2-1,2.1-2.1,2.1
	H152.6z"/>
<path class="st1" d="M181,59c-1.2,0-2.1-1-2.1-2.1V37.1c0-1.2,1-2.1,2.1-2.1h7.7c1.2,0,2.1,1,2.1,2.1v19.7c0,1.2-1,2.1-2.1,2.1H181z
	"/>
<path class="st2" d="M1.2,30.7c-0.6-6.3,4-11.9,10.3-12.5L55,14.1c6.3-0.6,11.9,4,12.5,10.3l5.9,62.7c0.6,6.3-4,11.9-10.3,12.5
	l-43.4,4.1c-6.3,0.6-11.9-4-12.5-10.3L1.2,30.7z"/>
<path class="st3" d="M55.2,16.1l-43.4,4.1c-5.2,0.5-9,5.1-8.5,10.3l5.9,62.7c0.5,5.2,5.1,9,10.3,8.5l43.4-4.1
	c5.2-0.5,9-5.1,8.5-10.3l-5.9-62.7C65,19.4,60.4,15.6,55.2,16.1z M11.5,18.2C5.2,18.8,0.6,24.4,1.2,30.7l5.9,62.7
	c0.6,6.3,6.2,10.9,12.5,10.3l43.4-4.1C69.4,99,74,93.4,73.4,87.1l-5.9-62.7c-0.6-6.3-6.2-10.9-12.5-10.3L11.5,18.2z"/>
<path class="st4" d="M7,46.6c-0.2-2.4,1.5-4.5,3.9-4.7L60,37.3c2.4-0.2,4.5,1.5,4.7,3.9l2.8,29.9c0.2,2.4-1.5,4.5-3.9,4.7l-49.1,4.7
	c-2.4,0.2-4.5-1.5-4.7-3.9L7,46.6z"/>
<path class="st3" d="M60.2,39.3L11.1,44c-1.3,0.1-2.2,1.2-2.1,2.5l2.8,29.9c0.1,1.3,1.2,2.2,2.5,2.1l49.1-4.7
	c1.3-0.1,2.2-1.2,2.1-2.5l-2.8-29.9C62.6,40.1,61.5,39.2,60.2,39.3z M10.9,42c-2.4,0.2-4.1,2.3-3.9,4.7l2.8,29.9
	c0.2,2.4,2.3,4.1,4.7,3.9l49.1-4.7c2.4-0.2,4.1-2.3,3.9-4.7l-2.8-29.9c-0.2-2.4-2.3-4.1-4.7-3.9L10.9,42z"/>
<path class="st1" d="M14.4,67.5c-0.2-2.4,1.5-4.5,3.9-4.7l38.5-3.6c2.4-0.2,4.5,1.5,4.7,3.9l0.2,2.1c0.2,2.4-1.5,4.5-3.9,4.7
	l-38.5,3.6c-2.4,0.2-4.5-1.5-4.7-3.9L14.4,67.5z"/>
<path class="st0" d="M13,52.5c-0.2-2.4,1.5-4.5,3.9-4.7l38.5-3.6c2.4-0.2,4.5,1.5,4.7,3.9l0.2,2.1c0.2,2.4-1.5,4.5-3.9,4.7
	l-38.5,3.6c-2.4,0.2-4.5-1.5-4.7-3.9L13,52.5z"/>
<path class="st5" d="M16,39.3L28.5,26c3-3.2,7.8-3.6,11.4-1.1l14.7,10.8L16,39.3z"/>
<path class="st5" d="M20.1,82.1l14.7,10.8c3.5,2.6,8.4,2.1,11.4-1.1l12.4-13.3L20.1,82.1z"/>
<path class="st6" d="M87.3,52.4c0-1.8,1.4-3.2,3.2-3.2h27.9c1.8,0,3.2,1.4,3.2,3.2s-1.4,3.2-3.2,3.2H90.5
	C88.7,55.7,87.3,54.2,87.3,52.4z"/>
<path class="st6" d="M87.3,65.3c0-1.8,1.4-3.2,3.2-3.2h27.9c1.8,0,3.2,1.4,3.2,3.2c0,1.8-1.4,3.2-3.2,3.2H90.5
	C88.7,68.5,87.3,67.1,87.3,65.3z"/>
<path class="st6" d="M95.6,79c-1.6-0.7-2.4-2.6-1.7-4.2l15-34.3c0.7-1.6,2.6-2.4,4.2-1.7s2.4,2.6,1.7,4.2l-15,34.3
	C99.2,79,97.3,79.7,95.6,79z"/>
</svg>
