<?xml version="1.0" encoding="utf-8"?>
<!-- Generator: Adobe Illustrator 25.3.1, SVG Export Plug-In . SVG Version: 6.00 Build 0)  -->
<svg version="1.1" id="Layer_1" xmlns:v="https://vecta.io/nano"
	 xmlns="http://www.w3.org/2000/svg" xmlns:xlink="http://www.w3.org/1999/xlink" x="0px" y="0px" viewBox="0 0 250 84"
	 style="enable-background:new 0 0 250 84;" xml:space="preserve">
<style type="text/css">
	.st0{fill:none;stroke:#98EAFF;stroke-width:0.9427;stroke-miterlimit:10;}
	.st1{fill:none;stroke:#98EAFF;stroke-width:0.6631;stroke-miterlimit:10;}
	.st2{fill:#98EAFF;}
	.st3{fill:#FFFFFF;stroke:#98EAFF;stroke-width:0.9427;stroke-miterlimit:10;}
	.st4{fill:#FFFFFF;stroke:#98EAFF;stroke-width:0.6631;stroke-miterlimit:10;}
	.st5{fill:#FFFFFF;}
	.st6{fill:#EFCB3B;}
	.st7{fill:#E8B03F;}
	.st8{fill:#DF9E39;}
	.st9{opacity:0.55;fill:#F4E6A3;enable-background:new    ;}
	.st10{opacity:0.63;fill:#CF6E1C;enable-background:new    ;}
	.st11{fill:#D36F1F;}
	.st12{opacity:0.66;fill:#DF9E39;enable-background:new    ;}
	.st13{fill:#ECA225;}
	.st14{fill:url(#SVGID_1_);}
	.st15{opacity:0.5;fill:url(#SVGID_2_);enable-background:new    ;}
	.st16{fill:url(#SVGID_3_);}
	.st17{fill:url(#SVGID_4_);}
	.st18{fill:url(#SVGID_5_);}
	.st19{fill:url(#SVGID_6_);}
	.st20{fill:url(#SVGID_7_);}
	.st21{fill:url(#SVGID_8_);}
	.st22{fill:url(#SVGID_9_);}
	.st23{fill:url(#SVGID_10_);}
	.st24{fill:url(#SVGID_11_);}
	.st25{fill:url(#SVGID_12_);}
	.st26{fill:url(#SVGID_13_);}
	.st27{fill:url(#SVGID_14_);}
	.st28{fill:url(#SVGID_15_);}
	.st29{fill:url(#SVGID_16_);}
	.st30{fill:url(#SVGID_17_);}
	.st31{fill:url(#SVGID_18_);}
	.st32{fill:url(#SVGID_19_);}
	.st33{opacity:0.5;fill:url(#SVGID_20_);enable-background:new    ;}
	.st34{opacity:0.5;fill:url(#SVGID_21_);enable-background:new    ;}
	.st35{opacity:0.3;fill:url(#SVGID_22_);enable-background:new    ;}
</style>
<g>
	<g>
		<polyline class="st0" points="206.3,70.1 144.4,70.1 144.4,49.9 		"/>
		<polyline class="st0" points="207.5,66.9 149.2,66.9 149.2,41.5 143.5,33.7 143.5,17.3 		"/>
		<polyline class="st0" points="206.2,64.5 152.8,64.5 152.8,32.5 147.3,25.8 147.3,10.8 		"/>
		<circle class="st1" cx="147.3" cy="9.8" r="1"/>
		<path class="st1" d="M142.5,16.5c0,0.5,0.4,1,1,1c0.5,0,1-0.4,1-1c0-0.5-0.4-1-1-1S142.5,15.8,142.5,16.5z"/>
		<path class="st1" d="M143.5,48.9c0,0.5,0.4,1,1,1c0.5,0,1-0.4,1-1c0-0.5-0.4-1-1-1C143.9,48,143.5,48.5,143.5,48.9z"/>
		<circle class="st2" cx="155.6" cy="61.1" r="0.7"/>
		<circle class="st2" cx="155.6" cy="57.9" r="0.7"/>
		<circle class="st2" cx="155.6" cy="54.8" r="0.7"/>
		<circle class="st2" cx="110.1" cy="60.3" r="0.7"/>
		<circle class="st2" cx="110.1" cy="57.1" r="0.7"/>
		<circle class="st2" cx="110.1" cy="54" r="0.7"/>
	</g>
</g>
<g>
	<polyline class="st3" points="65,69.5 122.1,69.5 122.1,49.2 	"/>
	<polyline class="st3" points="67.3,66.4 117.3,66.4 117.3,40.8 123.1,32.8 123.1,16.6 	"/>
	<polyline class="st3" points="69,64 113.7,64 113.7,31.6 119.2,25 119.2,9.9 	"/>
	<path class="st4" d="M120.2,9c0,0.5-0.4,1-1,1c-0.5,0-1-0.4-1-1c0-0.5,0.4-1,1-1C119.8,8,120.2,8.4,120.2,9z"/>
	<circle class="st4" cx="123.1" cy="15.6" r="1"/>
	<path class="st4" d="M123.1,48.3c0,0.5-0.4,1-1,1c-0.5,0-1-0.4-1-1c0-0.5,0.4-1,1-1C122.6,47.3,123.1,47.7,123.1,48.3z"/>
	<path class="st5" d="M111.5,60.5c0,0.4-0.3,0.7-0.7,0.7c-0.4,0-0.7-0.3-0.7-0.7s0.3-0.7,0.7-0.7C111.2,59.9,111.5,60.2,111.5,60.5z
		"/>
	<path class="st5" d="M111.5,57.4c0,0.4-0.3,0.7-0.7,0.7c-0.4,0-0.7-0.3-0.7-0.7s0.3-0.7,0.7-0.7S111.5,57,111.5,57.4z"/>
	<path class="st5" d="M111.5,54.1c0,0.4-0.3,0.7-0.7,0.7c-0.4,0-0.7-0.3-0.7-0.7s0.3-0.7,0.7-0.7C111.2,53.4,111.5,53.7,111.5,54.1z
		"/>
</g>
<g>
	<g>
		<g>
			<g>
				<g>
					<path class="st6" d="M211.1,65.1h-7.8c-0.2,0-0.5-0.5-0.5-0.9v-1.4c0-0.5,0.2-0.9,0.5-0.9h7.8c0.2,0,0.5,0.5,0.5,0.9v1.4
						C211.5,64.7,211.4,65.1,211.1,65.1z"/>
					<rect x="206.9" y="62.1" class="st7" width="2.4" height="3.1"/>
					<path class="st8" d="M211.5,64.2v-1.4c0-0.5-0.2-0.9-0.5-0.9h-1.8V65h1.8C211.4,65.1,211.5,64.7,211.5,64.2z"/>
					<path class="st9" d="M211.1,62.1h-7.8c-0.2,0-0.5,0.5-0.5,0.9l0,0h8.8l0,0C211.5,62.4,211.4,62.1,211.1,62.1z"/>
				</g>
				<g>
					<path class="st6" d="M211.7,62.1h-7.8c-0.2,0-0.5-0.5-0.5-0.9v-1.4c0-0.5,0.2-0.9,0.5-0.9h7.8c0.2,0,0.5,0.5,0.5,0.9v1.4
						C212.2,61.6,211.9,62.1,211.7,62.1z"/>
					<rect x="207.5" y="59" class="st7" width="2.4" height="3.1"/>
					<path class="st8" d="M212.2,61.2v-1.4c0-0.5-0.2-0.9-0.5-0.9h-1.8V62h1.8C211.9,62.1,212.2,61.6,212.2,61.2z"/>
					<path class="st9" d="M211.7,59h-7.8c-0.2,0-0.5,0.5-0.5,0.9l0,0h8.8l0,0C212.2,59.3,211.9,59,211.7,59z"/>
				</g>
				<g>
					<path class="st6" d="M212.4,59.2h-7.8c-0.2,0-0.5-0.5-0.5-0.9v-1.4c0-0.5,0.2-0.9,0.5-0.9h7.8c0.2,0,0.5,0.5,0.5,0.9v1.4
						C212.9,58.7,212.7,59.2,212.4,59.2z"/>
					<rect x="208.2" y="56.1" class="st7" width="2.4" height="3.1"/>
					<path class="st8" d="M212.9,58.2v-1.4c0-0.5-0.2-0.9-0.5-0.9h-1.8V59h1.8C212.7,59.2,212.9,58.7,212.9,58.2z"/>
					<path class="st9" d="M212.4,56.1h-7.8c-0.2,0-0.5,0.5-0.5,0.9l0,0h8.8l0,0C212.9,56.4,212.7,56.1,212.4,56.1z"/>
				</g>
				<g>
					<path class="st6" d="M210.6,56.3h-7.8c-0.2,0-0.5-0.5-0.5-0.9V54c0-0.5,0.2-0.9,0.5-0.9h7.8c0.2,0,0.5,0.5,0.5,0.9v1.4
						C211.1,55.8,210.8,56.3,210.6,56.3z"/>
					<rect x="206.4" y="53.2" class="st7" width="2.4" height="3.1"/>
					<path class="st8" d="M211.1,55.3V54c0-0.5-0.2-0.9-0.5-0.9h-1.8v3.1h1.8C210.8,56.3,211.1,55.8,211.1,55.3z"/>
					<path class="st9" d="M210.6,53.2h-7.8c-0.2,0-0.5,0.5-0.5,0.9l0,0h8.8l0,0C211.1,53.5,210.8,53.2,210.6,53.2z"/>
				</g>
				<g>
					<path class="st6" d="M211.7,53.2h-7.8c-0.2,0-0.5-0.5-0.5-0.9v-1.4c0-0.5,0.2-0.9,0.5-0.9h7.8c0.2,0,0.5,0.5,0.5,0.9v1.4
						C212.2,52.7,211.9,53.2,211.7,53.2z"/>
					<rect x="207.5" y="50.1" class="st7" width="2.4" height="3.1"/>
					<path class="st8" d="M212.2,52.3v-1.4c0-0.5-0.2-0.9-0.5-0.9h-1.8v3h1.8C211.9,53.2,212.2,52.7,212.2,52.3z"/>
					<path class="st9" d="M211.7,50.1h-7.8c-0.2,0-0.5,0.5-0.5,0.9l0,0h8.8l0,0C212.2,50.4,211.9,50.1,211.7,50.1z"/>
				</g>
			</g>
			<g>
				<g>
					<path class="st6" d="M211.1,50.4h-7.8c-0.2,0-0.5-0.5-0.5-0.9v-1.4c0-0.5,0.2-0.9,0.5-0.9h7.8c0.2,0,0.5,0.5,0.5,0.9v1.4
						C211.5,50,211.4,50.4,211.1,50.4z"/>
					<rect x="206.9" y="47.4" class="st7" width="2.4" height="3.1"/>
					<path class="st8" d="M211.5,49.5v-1.4c0-0.5-0.2-0.9-0.5-0.9h-1.8v3.1h1.8C211.4,50.4,211.5,50,211.5,49.5z"/>
					<path class="st9" d="M211.1,47.4h-7.8c-0.2,0-0.5,0.5-0.5,0.9l0,0h8.8l0,0C211.5,47.7,211.4,47.4,211.1,47.4z"/>
				</g>
				<g>
					<path class="st6" d="M211.7,47.4h-7.8c-0.2,0-0.5-0.5-0.5-0.9v-1.4c0-0.5,0.2-0.9,0.5-0.9h7.8c0.2,0,0.5,0.5,0.5,0.9v1.4
						C212.2,46.9,211.9,47.4,211.7,47.4z"/>
					<rect x="207.5" y="44.3" class="st7" width="2.4" height="3.1"/>
					<path class="st8" d="M212.2,46.4V45c0-0.5-0.2-0.9-0.5-0.9h-1.8v3.1h1.8C211.9,47.4,212.2,46.9,212.2,46.4z"/>
					<path class="st9" d="M211.7,44.3h-7.8c-0.2,0-0.5,0.5-0.5,0.9l0,0h8.8l0,0C212.2,44.6,211.9,44.3,211.7,44.3z"/>
				</g>
				<g>
					<path class="st6" d="M212.4,44.4h-7.8c-0.2,0-0.5-0.5-0.5-0.9v-1.4c0-0.5,0.2-0.9,0.5-0.9h7.8c0.2,0,0.5,0.5,0.5,0.9v1.4
						C212.9,44,212.7,44.4,212.4,44.4z"/>
					<rect x="208.2" y="41.4" class="st7" width="2.4" height="3.1"/>
					<path class="st8" d="M212.9,43.5v-1.4c0-0.5-0.2-0.9-0.5-0.9h-1.8v3.1h1.8C212.7,44.4,212.9,44,212.9,43.5z"/>
					<path class="st9" d="M212.4,41.4h-7.8c-0.2,0-0.5,0.5-0.5,0.9l0,0h8.8l0,0C212.9,41.8,212.7,41.4,212.4,41.4z"/>
				</g>
				<g>
					<path class="st6" d="M210.6,41.5h-7.8c-0.2,0-0.5-0.5-0.5-0.9v-1.4c0-0.5,0.2-0.9,0.5-0.9h7.8c0.2,0,0.5,0.5,0.5,0.9v1.4
						C211.1,41.1,210.8,41.5,210.6,41.5z"/>
					<rect x="206.4" y="38.5" class="st7" width="2.4" height="3.1"/>
					<path class="st8" d="M211.1,40.6v-1.4c0-0.5-0.2-0.9-0.5-0.9h-1.8v3.1h1.8C210.8,41.5,211.1,41.1,211.1,40.6z"/>
					<path class="st9" d="M210.6,38.5h-7.8c-0.2,0-0.5,0.5-0.5,0.9l0,0h8.8l0,0C211.1,38.8,210.8,38.5,210.6,38.5z"/>
				</g>
				<g>
					<path class="st6" d="M211.7,38.5h-7.8c-0.2,0-0.5-0.5-0.5-0.9v-1.4c0-0.5,0.2-0.9,0.5-0.9h7.8c0.2,0,0.5,0.5,0.5,0.9v1.4
						C212.2,38,211.9,38.5,211.7,38.5z"/>
					<rect x="207.5" y="35.4" class="st7" width="2.4" height="3.1"/>
					<path class="st8" d="M212.2,37.5v-1.4c0-0.5-0.2-0.9-0.5-0.9h-1.8v3.1h1.8C211.9,38.5,212.2,38,212.2,37.5z"/>
					<path class="st9" d="M211.7,35.4h-7.8c-0.2,0-0.5,0.5-0.5,0.9l0,0h8.8l0,0C212.2,35.7,211.9,35.4,211.7,35.4z"/>
				</g>
			</g>
			<g>
				<g>
					<path class="st6" d="M209.6,35.4h-7.8c-0.2,0-0.5-0.5-0.5-0.9v-1.4c0-0.5,0.2-0.9,0.5-0.9h7.8c0.2,0,0.5,0.5,0.5,0.9v1.4
						C210,35.1,209.9,35.4,209.6,35.4z"/>
					<rect x="205.4" y="32.5" class="st7" width="2.4" height="3.1"/>
					<path class="st8" d="M210,34.6v-1.4c0-0.5-0.2-0.9-0.5-0.9h-1.8v3.1h1.8C209.9,35.4,210,35.1,210,34.6z"/>
					<path class="st9" d="M209.6,32.5h-7.8c-0.2,0-0.5,0.5-0.5,0.9l0,0h8.8l0,0C210,32.8,209.9,32.5,209.6,32.5z"/>
				</g>
				<g>
					<path class="st6" d="M210.2,32.5h-7.8c-0.2,0-0.5-0.5-0.5-0.9v-1.4c0-0.5,0.2-0.9,0.5-0.9h7.8c0.2,0,0.5,0.5,0.5,0.9v1.4
						C210.7,32,210.4,32.5,210.2,32.5z"/>
					<rect x="206" y="29.4" class="st7" width="2.4" height="3.1"/>
					<path class="st8" d="M210.7,31.6v-1.4c0-0.5-0.2-0.9-0.5-0.9h-1.8v3.1h1.8C210.4,32.5,210.7,32,210.7,31.6z"/>
					<path class="st9" d="M210.2,29.4h-7.8c-0.2,0-0.5,0.5-0.5,0.9l0,0h8.8l0,0C210.7,29.7,210.4,29.4,210.2,29.4z"/>
				</g>
				<g>
					<path class="st6" d="M210.9,29.6h-7.8c-0.2,0-0.5-0.5-0.5-0.9v-1.4c0-0.5,0.2-0.9,0.5-0.9h7.8c0.2,0,0.5,0.5,0.5,0.9v1.4
						C211.4,29.1,211.1,29.6,210.9,29.6z"/>
					<rect x="206.7" y="26.5" class="st7" width="2.4" height="3.1"/>
					<path class="st8" d="M211.4,28.6v-1.4c0-0.5-0.2-0.9-0.5-0.9h-1.8v3.1h1.8C211.1,29.6,211.4,29.1,211.4,28.6z"/>
					<path class="st9" d="M210.9,26.5h-7.8c-0.2,0-0.5,0.5-0.5,0.9l0,0h8.8l0,0C211.4,26.8,211.1,26.5,210.9,26.5z"/>
				</g>
				<g>
					<path class="st6" d="M209.1,26.5h-7.8c-0.2,0-0.5-0.5-0.5-0.9v-1.4c0-0.5,0.2-0.9,0.5-0.9h7.8c0.2,0,0.5,0.5,0.5,0.9v1.4
						C209.6,26.2,209.3,26.5,209.1,26.5z"/>
					<rect x="204.9" y="23.4" class="st7" width="2.4" height="3.1"/>
					<path class="st8" d="M209.6,25.7v-1.4c0-0.5-0.2-0.9-0.5-0.9h-1.8v3.1h1.8C209.3,26.5,209.6,26.2,209.6,25.7z"/>
					<path class="st9" d="M209.1,23.4h-7.8c-0.2,0-0.5,0.5-0.5,0.9l0,0h8.8l0,0C209.6,23.9,209.3,23.4,209.1,23.4z"/>
				</g>
				<g>
					<path class="st6" d="M210.2,23.4h-7.8c-0.2,0-0.5-0.5-0.5-0.9v-1.4c0-0.5,0.2-0.9,0.5-0.9h7.8c0.2,0,0.5,0.5,0.5,0.9v1.4
						C210.7,23.1,210.4,23.4,210.2,23.4z"/>
					<rect x="206" y="20.5" class="st7" width="2.4" height="3.1"/>
					<path class="st8" d="M210.7,22.7v-1.4c0-0.5-0.2-0.9-0.5-0.9h-1.8v3.1h1.8C210.4,23.4,210.7,23.1,210.7,22.7z"/>
					<path class="st9" d="M210.2,20.5h-7.8c-0.2,0-0.5,0.5-0.5,0.9l0,0h8.8l0,0C210.7,20.8,210.4,20.5,210.2,20.5z"/>
				</g>
			</g>
		</g>
		<path class="st10" d="M212.4,41.4h-1.6c0,0,0,0,0.1,0c0,0,0.1,0,0.1-0.2c0.1-0.2,0.1-0.2,0.1-0.3c0-0.2,0-0.2,0-0.3v-1.2l0,0l0,0
			c0-0.3-0.1-0.6-0.2-0.8c-0.1-0.2-0.2-0.2-0.2-0.2h1.1c0.2,0,0.4-0.3,0.5-0.8v-0.2v-1.2l0,0V36c0-0.2-0.1-0.5-0.2-0.6
			c-0.1-0.2-0.2-0.2-0.2-0.2h-1.8H210c0.2-0.2,0.2-0.5,0.2-0.8V33c0-0.5-0.2-0.9-0.5-0.9h0.6l0,0c0.2,0,0.5-0.5,0.5-0.9V30
			c0-0.2-0.1-0.5-0.1-0.6c0,0,0-0.2-0.1-0.2l0,0h0.5h0.1c0.1,0,0.1,0,0.2-0.2c0,0,0.1,0,0.1-0.2c0.1-0.2,0.1-0.2,0.1-0.3
			c0-0.2,0-0.2,0-0.3V27l0,0c0-0.5-0.2-0.9-0.5-0.9h-1.6c0,0,0,0,0.1,0c0,0,0.1,0,0.1-0.2c0.1-0.2,0.1-0.2,0.1-0.3
			c0-0.2,0-0.2,0-0.3v-1.2l0,0l0,0c0-0.3-0.1-0.6-0.2-0.8c-0.1-0.2-0.2-0.2-0.2-0.2h1.1c0.2,0,0.4-0.3,0.5-0.8v-0.2l0,0v-1.2l0,0V21
			c0-0.2-0.1-0.5-0.2-0.6c-0.1-0.2-0.2-0.2-0.2-0.2h-1.8h-2.4h-3.6c-0.1,0-0.2,0-0.2,0.2s-0.2,0.3-0.2,0.6v0.2l0,0v1.2
			c0,0.5,0.2,0.9,0.5,0.9h-1.1c-0.1,0-0.2,0-0.2,0.2c-0.2,0.2-0.2,0.5-0.2,0.8l0,0l0,0v1.2c0,0.5,0.2,0.9,0.5,0.9h1.6
			c-0.2,0.2-0.2,0.5-0.2,0.8l0,0v1.2c0,0.3,0.1,0.6,0.2,0.8H203l0,0c-0.2,0-0.4,0.3-0.5,0.8l0,0l0,0v1.2c0,0.5,0.2,0.9,0.5,0.9h-0.6
			c-0.2,0-0.5,0.5-0.5,0.9l0,0v1.2c0,0.5,0.2,0.9,0.5,0.9h1.9c0,0,0,0-0.1,0c-0.1,0.2-0.2,0.3-0.2,0.6V36l0,0v1.2
			c0,0.5,0.2,0.9,0.5,0.9h-1.1c-0.1,0-0.2,0-0.2,0.2c-0.2,0.2-0.2,0.5-0.2,0.8l0,0l0,0v1.2c0,0.5,0.2,0.9,0.5,0.9h1.6
			c-0.2,0.2-0.2,0.5-0.2,0.8l0,0v1.2c0,0.3,0.1,0.6,0.2,0.8h-0.5c-0.1,0-0.2,0-0.2,0.2c-0.1,0.2-0.2,0.3-0.2,0.6V45l0,0v1.2
			c0,0.5,0.2,0.9,0.5,0.9h-0.6c-0.2,0-0.4,0.3-0.5,0.8V48l0,0l0,0v1.2c0,0.5,0.2,0.9,0.5,0.9h0.2c-0.1,0.2-0.1,0.3-0.1,0.6l0,0l0,0
			v1.5c0,0.5,0.2,0.9,0.5,0.9h-1.1c-0.2,0-0.5,0.5-0.5,0.9l0,0v1.2c0,0.5,0.2,0.9,0.5,0.9h1.6c-0.2,0.2-0.2,0.5-0.2,0.8l0,0v1.2
			c0,0.3,0.1,0.6,0.2,0.8h-0.5c-0.1,0-0.2,0-0.2,0.2c-0.2,0.2-0.2,0.5-0.2,0.8l0,0l0,0v1.2c0,0.5,0.2,0.9,0.5,0.9h-0.6
			c-0.2,0-0.5,0.5-0.5,0.9l0,0v1.2c0,0.5,0.2,0.9,0.5,0.9h3.6h2.4h1.8h0.1c0.1,0,0.1,0,0.2-0.2c0,0,0.1,0,0.1-0.2
			c0.1-0.2,0.1-0.2,0.1-0.3c0-0.2,0-0.2,0-0.3v-1l0,0c0-0.5-0.2-0.9-0.5-0.9h0.6c0.2,0,0.5-0.5,0.5-0.9v-1.4c0-0.2-0.1-0.5-0.1-0.6
			c0,0,0-0.2-0.1-0.2l0,0h0.5h0.1c0.1,0,0.1,0,0.2-0.2c0,0,0.1,0,0.1-0.2c0.1-0.2,0.1-0.2,0.1-0.3c0-0.2,0-0.2,0-0.3v-1.2l0,0
			c0-0.5-0.2-0.9-0.5-0.9h-1.6c0,0,0,0,0.1,0c0,0,0.1,0,0.1-0.2c0.1-0.2,0.1-0.2,0.1-0.3c0-0.2,0-0.2,0-0.3V54l0,0
			c0-0.5-0.2-0.9-0.5-0.9h1.1h0.1c0.1,0,0.1,0,0.2-0.2c0.1-0.2,0.2-0.2,0.2-0.3c0-0.2,0-0.2,0-0.3l0,0V51l0,0l0,0
			c0-0.3-0.1-0.6-0.2-0.8c-0.1-0.2-0.2-0.2-0.2-0.2h-0.2c0,0,0.1-0.2,0.1-0.3c0-0.2,0-0.2,0-0.3v-1.2l0,0l0,0V48
			c-0.1-0.5-0.2-0.8-0.5-0.8h0.6c0.2,0,0.5-0.5,0.5-0.9v-1.4c0-0.2-0.1-0.5-0.1-0.6c0,0,0-0.2-0.1-0.2l0,0h0.5h0.1
			c0.1,0,0.1,0,0.2-0.2c0,0,0.1,0,0.1-0.2c0.1-0.2,0.1-0.2,0.1-0.3c0-0.2,0-0.2,0-0.3v-1.2l0,0C212.9,41.8,212.7,41.4,212.4,41.4z"
			/>
	</g>
	<g>
		<g>
			<g>
				<path class="st6" d="M212.5,57.6h-7.9c-0.2,0-0.5-0.5-0.5-0.9v-1.4c0-0.5,0.2-0.9,0.5-0.9h7.8c0.2,0,0.5,0.5,0.5,0.9v1.5
					C212.9,57.3,212.7,57.6,212.5,57.6z"/>
				<rect x="208.3" y="54.6" class="st7" width="2.4" height="3.1"/>
				<path class="st8" d="M212.9,56.9v-1.4c0-0.5-0.2-0.9-0.5-0.9h-1.8v3.1h1.8C212.7,57.6,212.9,57.3,212.9,56.9z"/>
				<path class="st9" d="M212.5,54.6h-7.9c-0.2,0-0.5,0.5-0.5,0.9l0,0h8.8l0,0C212.9,55,212.7,54.6,212.5,54.6z"/>
			</g>
			<g>
				<path class="st6" d="M213.1,54.6h-7.8c-0.2,0-0.5-0.5-0.5-0.9v-1.4c0-0.5,0.2-0.9,0.5-0.9h7.8c0.2,0,0.5,0.5,0.5,0.9v1.5
					C213.5,54.3,213.3,54.6,213.1,54.6z"/>
				<rect x="208.8" y="51.5" class="st7" width="2.4" height="3.1"/>
				<path class="st8" d="M213.5,53.8v-1.4c0-0.5-0.2-0.9-0.5-0.9h-1.8v3.1h1.8C213.3,54.6,213.5,54.3,213.5,53.8z"/>
				<path class="st9" d="M213.1,51.5h-7.8c-0.2,0-0.5,0.5-0.5,0.9l0,0h8.8l0,0C213.5,52,213.3,51.5,213.1,51.5z"/>
			</g>
			<g>
				<path class="st6" d="M213.8,51.8H206c-0.2,0-0.5-0.5-0.5-0.9v-1.4c0-0.5,0.2-0.9,0.5-0.9h7.8c0.2,0,0.5,0.5,0.5,0.9v1.4
					C214.2,51.3,214,51.8,213.8,51.8z"/>
				<rect x="209.6" y="48.7" class="st7" width="2.4" height="3.1"/>
				<path class="st8" d="M214.2,50.9v-1.4c0-0.5-0.2-0.9-0.5-0.9h-1.8v3.1h1.8C214,51.8,214.2,51.3,214.2,50.9z"/>
				<path class="st9" d="M213.8,48.7H206c-0.2,0-0.5,0.5-0.5,0.9l0,0h8.8l0,0C214.2,49,214,48.7,213.8,48.7z"/>
			</g>
			<g>
				<path class="st6" d="M211.9,48.7h-7.8c-0.2,0-0.5-0.5-0.5-0.9v-1.4c0-0.5,0.2-0.9,0.5-0.9h7.8c0.2,0,0.5,0.5,0.5,0.9v1.4
					C212.4,48.4,212.2,48.7,211.9,48.7z"/>
				<rect x="207.7" y="45.7" class="st7" width="2.4" height="3.1"/>
				<path class="st8" d="M212.4,48v-1.4c0-0.5-0.2-0.9-0.5-0.9h-1.8v3.1h1.8C212.2,48.7,212.4,48.4,212.4,48z"/>
				<path class="st9" d="M211.9,45.7h-7.8c-0.2,0-0.5,0.5-0.5,0.9l0,0h8.8l0,0C212.4,46.1,212.2,45.7,211.9,45.7z"/>
			</g>
			<g>
				<path class="st6" d="M213.1,45.7h-7.8c-0.2,0-0.5-0.5-0.5-0.9v-1.4c0-0.5,0.2-0.9,0.5-0.9h7.8c0.2,0,0.5,0.5,0.5,0.9v1.4
					C213.5,45.4,213.3,45.7,213.1,45.7z"/>
				<rect x="208.8" y="42.6" class="st7" width="2.4" height="3.1"/>
				<path class="st8" d="M213.5,44.9v-1.4c0-0.5-0.2-0.9-0.5-0.9h-1.8v3.1h1.8C213.3,45.7,213.5,45.4,213.5,44.9z"/>
				<path class="st9" d="M213.1,42.6h-7.8c-0.2,0-0.5,0.5-0.5,0.9l0,0h8.8l0,0C213.5,43.1,213.3,42.6,213.1,42.6z"/>
			</g>
		</g>
		<g>
			<g>
				<path class="st6" d="M212.5,42.8h-7.9c-0.2,0-0.5-0.5-0.5-0.9v-1.4c0-0.5,0.2-0.9,0.5-0.9h7.8c0.2,0,0.5,0.5,0.5,0.9v1.4
					C212.9,42.5,212.7,42.8,212.5,42.8z"/>
				<rect x="208.3" y="39.7" class="st7" width="2.4" height="3.1"/>
				<path class="st8" d="M212.9,41.8v-1.4c0-0.5-0.2-0.9-0.5-0.9h-1.8v3.1h1.8C212.7,42.8,212.9,42.5,212.9,41.8z"/>
				<path class="st9" d="M212.5,39.7h-7.9c-0.2,0-0.5,0.5-0.5,0.9l0,0h8.8l0,0C212.9,40.1,212.7,39.7,212.5,39.7z"/>
			</g>
			<g>
				<path class="st6" d="M213.1,39.7h-7.8c-0.2,0-0.5-0.5-0.5-0.9v-1.4c0-0.5,0.2-0.9,0.5-0.9h7.8c0.2,0,0.5,0.5,0.5,0.9v1.4
					C213.5,39.4,213.3,39.7,213.1,39.7z"/>
				<rect x="208.8" y="36.6" class="st7" width="2.4" height="3.1"/>
				<path class="st8" d="M213.5,38.9v-1.4c0-0.5-0.2-0.9-0.5-0.9h-1.8v3.1h1.8C213.3,39.7,213.5,39.4,213.5,38.9z"/>
				<path class="st9" d="M213.1,36.6h-7.8c-0.2,0-0.5,0.5-0.5,0.9l0,0h8.8l0,0C213.5,37.1,213.3,36.6,213.1,36.6z"/>
			</g>
			<g>
				<path class="st6" d="M213.8,36.8H206c-0.2,0-0.5-0.5-0.5-0.9v-1.4c0-0.5,0.2-0.9,0.5-0.9h7.8c0.2,0,0.5,0.5,0.5,0.9v1.4
					C214.2,36.5,214,36.8,213.8,36.8z"/>
				<rect x="209.6" y="33.7" class="st7" width="2.4" height="3.1"/>
				<path class="st8" d="M214.2,36v-1.4c0-0.5-0.2-0.9-0.5-0.9h-1.8v3.1h1.8C214,36.8,214.2,36.5,214.2,36z"/>
				<path class="st9" d="M213.8,33.7H206c-0.2,0-0.5,0.5-0.5,0.9l0,0h8.8l0,0C214.2,34.2,214,33.7,213.8,33.7z"/>
			</g>
			<g>
				<path class="st6" d="M211.9,33.9h-7.8c-0.2,0-0.5-0.5-0.5-0.9v-1.4c0-0.5,0.2-0.9,0.5-0.9h7.8c0.2,0,0.5,0.5,0.5,0.9V33
					C212.4,33.6,212.2,33.9,211.9,33.9z"/>
				<rect x="207.7" y="30.8" class="st7" width="2.4" height="3.1"/>
				<path class="st8" d="M212.4,32.9v-1.4c0-0.5-0.2-0.9-0.5-0.9h-1.8v3.1h1.8C212.2,33.9,212.4,33.6,212.4,32.9z"/>
				<path class="st9" d="M211.9,30.8h-7.8c-0.2,0-0.5,0.5-0.5,0.9l0,0h8.8l0,0C212.4,31.3,212.2,30.8,211.9,30.8z"/>
			</g>
			<g>
				<path class="st6" d="M213.1,30.8h-7.8c-0.2,0-0.5-0.5-0.5-0.9v-1.4c0-0.5,0.2-0.9,0.5-0.9h7.8c0.2,0,0.5,0.5,0.5,0.9v1.4
					C213.5,30.5,213.3,30.8,213.1,30.8z"/>
				<rect x="208.8" y="27.7" class="st7" width="2.4" height="3.1"/>
				<path class="st8" d="M213.5,29.9v-1.4c0-0.5-0.2-0.9-0.5-0.9h-1.8v3.1h1.8C213.3,30.8,213.5,30.5,213.5,29.9z"/>
				<path class="st9" d="M213.1,27.7h-7.8c-0.2,0-0.5,0.5-0.5,0.9l0,0h8.8l0,0C213.5,28.2,213.3,27.7,213.1,27.7z"/>
			</g>
		</g>
	</g>
</g>
<g>
	<g>
		<path class="st11" d="M242.7,73.6c-0.8-0.4-2-0.6-3.3-0.6s-2.4,0.2-3.3,0.6h-1.2v1.3c0,1,2,1.9,4.5,1.9s4.5-0.8,4.5-1.9l0,0v-1.3
			H242.7z"/>
		<path class="st12" d="M240.5,73c-0.3,0-0.7-0.1-1-0.1c-1.3,0-2.4,0.2-3.3,0.6H235v1.3c0,1,2,1.9,4.5,1.9c0.4,0,0.7,0,1-0.1V73z"/>
		<path class="st6" d="M239.4,75.4c-2.5,0-4.5-0.8-4.5-1.9c0-1,2-1.9,4.5-1.9s4.5,0.8,4.5,1.9S241.9,75.4,239.4,75.4z"/>
		<ellipse class="st13" cx="239.4" cy="73.4" rx="3.2" ry="1.2"/>
		<path class="st11" d="M239.4,72.5c1.6,0,3,0.5,3.2,1.1v-0.1c0-0.7-1.4-1.2-3.2-1.2s-3.2,0.5-3.2,1.2v0.1
			C236.4,73,237.8,72.5,239.4,72.5z"/>
		<ellipse class="st11" cx="239.4" cy="73.6" rx="1.5" ry="0.7"/>
		<path class="st6" d="M239.4,74c-0.8,0-1.4-0.2-1.4-0.5s0.6-0.5,1.4-0.5c0.8,0,1.4,0.2,1.4,0.5S240.2,74,239.4,74z"/>
	</g>
	<g>
		<path class="st11" d="M202.2,64.5c0.8-0.4,2-0.6,3.3-0.6s2.4,0.2,3.3,0.6h1.2v1.3c0,1-2,1.9-4.5,1.9s-4.5-0.8-4.5-1.9l0,0v-1.3
			H202.2z"/>
		<path class="st12" d="M204.5,64c0.3,0,0.7-0.1,1-0.1c1.3,0,2.4,0.2,3.3,0.6h1.2v1.3c0,1-2,1.9-4.5,1.9c-0.4,0-0.7,0-1-0.1V64z"/>
		<path class="st6" d="M205.5,66.4c2.5,0,4.5-0.8,4.5-1.9c0-1-2-1.9-4.5-1.9s-4.5,0.8-4.5,1.9C201,65.5,203,66.4,205.5,66.4z"/>
		<ellipse class="st13" cx="205.5" cy="64.4" rx="3.2" ry="1.2"/>
		<path class="st11" d="M205.5,63.4c-1.6,0-3,0.5-3.2,1.1v-0.1c0-0.7,1.4-1.2,3.2-1.2s3.2,0.5,3.2,1.2v0.1
			C208.5,63.9,207.1,63.4,205.5,63.4z"/>
		<path class="st11" d="M205.5,65.3c0.8,0,1.5-0.3,1.5-0.7s-0.7-0.7-1.5-0.7s-1.5,0.3-1.5,0.7S204.7,65.3,205.5,65.3z"/>
		<path class="st6" d="M205.5,64.9c0.8,0,1.4-0.2,1.4-0.5s-0.6-0.5-1.4-0.5c-0.8,0-1.4,0.2-1.4,0.5S204.7,64.9,205.5,64.9z"/>
	</g>
	<g>
		<path class="st11" d="M205.8,68.3c0.8-0.4,2-0.6,3.3-0.6s2.4,0.2,3.3,0.6h1.2v1.3c0,1-2,1.9-4.5,1.9s-4.5-0.8-4.5-1.9l0,0v-1.3
			H205.8z"/>
		<path class="st12" d="M208,67.8c0.3,0,0.7-0.1,1-0.1c1.3,0,2.4,0.2,3.3,0.6h1.2v1.3c0,1-2,1.9-4.5,1.9c-0.4,0-0.7,0-1-0.1V67.8z"
			/>
		<path class="st6" d="M209,70.2c2.5,0,4.5-0.8,4.5-1.9c0-1-2-1.9-4.5-1.9s-4.5,0.8-4.5,1.9S206.5,70.2,209,70.2z"/>
		<ellipse class="st13" cx="209" cy="68.2" rx="3.2" ry="1.2"/>
		<path class="st11" d="M209,67.3c-1.6,0-3,0.5-3.2,1.1v-0.1c0-0.7,1.4-1.2,3.2-1.2s3.2,0.5,3.2,1.2v0.1
			C212,67.7,210.7,67.3,209,67.3z"/>
		<path class="st11" d="M209,69.1c0.8,0,1.5-0.3,1.5-0.7s-0.7-0.7-1.5-0.7s-1.5,0.3-1.5,0.7S208.2,69.1,209,69.1z"/>
		<path class="st6" d="M209,68.7c0.8,0,1.4-0.2,1.4-0.5s-0.6-0.5-1.4-0.5c-0.8,0-1.4,0.2-1.4,0.5S208.2,68.7,209,68.7z"/>
	</g>
	<g>
		<path class="st11" d="M205.2,76.1c0.8-0.4,2-0.6,3.3-0.6s2.4,0.2,3.3,0.6h1.2v1.3c0,1-2,1.9-4.5,1.9s-4.5-0.8-4.5-1.9l0,0v-1.3
			H205.2z"/>
		<path class="st12" d="M207.4,75.5c0.3,0,0.7-0.1,1-0.1c1.3,0,2.4,0.2,3.3,0.6h1.2v1.3c0,1-2,1.9-4.5,1.9c-0.4,0-0.7,0-1-0.1V75.5z
			"/>
		<path class="st6" d="M208.4,77.9c2.5,0,4.5-0.8,4.5-1.9c0-1-2-1.9-4.5-1.9s-4.5,0.8-4.5,1.9S205.9,77.9,208.4,77.9z"/>
		<path class="st13" d="M208.4,77.1c1.8,0,3.2-0.5,3.2-1.2s-1.4-1.2-3.2-1.2s-3.2,0.5-3.2,1.2S206.6,77.1,208.4,77.1z"/>
		<path class="st11" d="M208.4,75c-1.6,0-3,0.5-3.2,1.1V76c0-0.7,1.4-1.2,3.2-1.2s3.2,0.5,3.2,1.2v0.1C211.4,75.5,210,75,208.4,75z"
			/>
		<path class="st11" d="M208.4,76.8c0.8,0,1.5-0.3,1.5-0.7s-0.7-0.7-1.5-0.7s-1.5,0.3-1.5,0.7S207.6,76.8,208.4,76.8z"/>
		<path class="st6" d="M208.4,76.5c0.8,0,1.4-0.2,1.4-0.5s-0.6-0.5-1.4-0.5c-0.8,0-1.4,0.2-1.4,0.5C207,76.2,207.6,76.5,208.4,76.5z
			"/>
	</g>
	<g>
		<circle class="st11" cx="218.2" cy="66.5" r="3.9"/>
		<circle class="st6" cx="217.5" cy="66.5" r="3.9"/>
		<circle class="st13" cx="217.5" cy="66.5" r="2.8"/>
		<path class="st11" d="M218.9,66.5c0,0.7-0.6,1.3-1.3,1.3s-1.3-0.6-1.3-1.3c0-0.7,0.6-1.3,1.3-1.3S218.9,65.8,218.9,66.5z"/>
		<circle class="st6" cx="217.5" cy="66.5" r="1.2"/>
	</g>
	<g>
		<path class="st11" d="M224.8,68.6c-0.8-0.4-2-0.6-3.3-0.6s-2.4,0.2-3.3,0.6H217v1.3c0,1,2,1.9,4.5,1.9s4.5-0.8,4.5-1.9l0,0v-1.3
			H224.8z"/>
		<path class="st12" d="M222.6,68.1c-0.3,0-0.7-0.1-1-0.1c-1.3,0-2.4,0.2-3.3,0.6h-1.2v1.3c0,1,2,1.9,4.5,1.9c0.4,0,0.7,0,1-0.1
			V68.1z"/>
		<path class="st6" d="M221.6,70.4c-2.5,0-4.5-0.8-4.5-1.9c0-1,2-1.9,4.5-1.9s4.5,0.8,4.5,1.9S224.1,70.4,221.6,70.4z"/>
		<ellipse class="st13" cx="221.6" cy="68.5" rx="3.2" ry="1.2"/>
		<path class="st11" d="M221.6,67.5c1.6,0,3,0.5,3.2,1.1v-0.1c0-0.7-1.4-1.2-3.2-1.2s-3.2,0.5-3.2,1.2v0.1
			C218.6,68,219.9,67.5,221.6,67.5z"/>
		<ellipse class="st11" cx="221.6" cy="68.6" rx="1.5" ry="0.7"/>
		<ellipse class="st6" cx="221.6" cy="68.5" rx="1.4" ry="0.5"/>
	</g>
	<g>
		<path class="st11" d="M218.4,67.8c-0.9-0.2-2-0.2-3.3,0s-2.4,0.7-3.1,1.2l-1.2,0.2l0.2,1.3c0.2,1,2.3,1.4,4.7,1
			c2.4-0.5,4.2-1.7,4.1-2.7l0,0l-0.2-1.3L218.4,67.8z"/>
		<path class="st12" d="M216.2,67.6c-0.3,0-0.7,0.1-1,0.1c-1.3,0.2-2.4,0.7-3.1,1.2l-1.2,0.2l0.2,1.3c0.2,1,2.3,1.4,4.7,1
			c0.4-0.1,0.7-0.2,1-0.2L216.2,67.6z"/>
		<path class="st6" d="M215.6,70.2c-2.4,0.5-4.6,0-4.7-1c-0.2-1,1.6-2.2,4.1-2.7c2.4-0.5,4.6,0,4.7,1
			C219.9,68.5,218,69.7,215.6,70.2z"/>
		<path class="st13" d="M215.5,69.4c-1.7,0.3-3.3,0.1-3.4-0.6s1.2-1.4,2.9-1.8c1.7-0.3,3.3-0.1,3.4,0.6
			C218.5,68.3,217.2,69.1,215.5,69.4z"/>
		<path class="st11" d="M215.1,67.3c1.6-0.3,3-0.1,3.3,0.4v-0.1c-0.1-0.7-1.6-0.9-3.4-0.6c-1.7,0.3-3.1,1.1-2.9,1.8
			c0,0,0,0.1,0.1,0.1C212.2,68.3,213.5,67.6,215.1,67.3z"/>
		<path class="st11" d="M215.4,69.1c-0.8,0.2-1.5,0-1.6-0.4s0.5-0.8,1.3-1s1.5,0,1.6,0.4S216.2,69,215.4,69.1z"/>
		<path class="st6" d="M215.3,68.8c-0.8,0.1-1.4,0-1.5-0.3s0.5-0.6,1.3-0.8c0.8-0.1,1.4,0,1.5,0.3S216.1,68.6,215.3,68.8z"/>
	</g>
	<g>
		<path class="st11" d="M209.3,64.2c0.8-0.4,2-0.6,3.3-0.6s2.4,0.2,3.3,0.6h1.2v1.3c0,1-2,1.9-4.5,1.9s-4.5-0.8-4.5-1.9l0,0v-1.3
			H209.3z"/>
		<path class="st12" d="M211.5,63.7c0.3,0,0.7-0.1,1-0.1c1.3,0,2.4,0.2,3.3,0.6h1.2v1.3c0,1-2,1.9-4.5,1.9c-0.4,0-0.7,0-1-0.1V63.7z
			"/>
		<ellipse class="st6" cx="212.6" cy="64.2" rx="4.5" ry="1.9"/>
		<ellipse class="st13" cx="212.6" cy="64.1" rx="3.2" ry="1.2"/>
		<path class="st11" d="M212.6,63.2c-1.6,0-3,0.5-3.2,1.1v-0.1c0-0.7,1.4-1.2,3.2-1.2s3.2,0.5,3.2,1.2v0.1
			C215.6,63.6,214.2,63.2,212.6,63.2z"/>
		<path class="st11" d="M212.6,65c0.8,0,1.5-0.3,1.5-0.7c0-0.4-0.7-0.7-1.5-0.7s-1.5,0.3-1.5,0.7C211.1,64.7,211.7,65,212.6,65z"/>
		<path class="st6" d="M212.6,64.6c0.8,0,1.4-0.2,1.4-0.5s-0.6-0.5-1.4-0.5c-0.8,0-1.4,0.2-1.4,0.5
			C211.2,64.4,211.8,64.6,212.6,64.6z"/>
	</g>
	<g>
		<path class="st11" d="M195.5,72.1c0.8-0.4,1.9-0.8,3.2-0.9s2.4,0,3.3,0.3l1.2-0.1l0.1,1.3c0.1,1-1.8,2-4.3,2.2s-4.5-0.4-4.6-1.5
			l0,0l-0.1-1.3H195.5z"/>
		<path class="st12" d="M197.7,71.4c0.3-0.1,0.7-0.1,1-0.1c1.3-0.1,2.4,0,3.3,0.3l1.2-0.1l0.1,1.3c0.1,1-1.8,2-4.3,2.2
			c-0.4,0-0.7,0-1,0L197.7,71.4z"/>
		<path class="st6" d="M198.9,73.6c2.5-0.2,4.4-1.2,4.3-2.2c-0.1-1-2.2-1.7-4.6-1.5c-2.5,0.2-4.4,1.2-4.3,2.2
			C194.4,73.2,196.5,73.9,198.9,73.6z"/>
		
			<ellipse transform="matrix(0.9961 -8.867466e-02 8.867466e-02 0.9961 -5.5751 17.9117)" class="st13" cx="198.8" cy="71.7" rx="3.2" ry="1.2"/>
		<path class="st11" d="M198.7,70.8c-1.6,0.1-2.9,0.7-3.1,1.3V72c-0.1-0.7,1.3-1.3,3.1-1.5s3.2,0.3,3.3,0.9v0.1
			C201.7,71,200.3,70.6,198.7,70.8z"/>
		<path class="st11" d="M198.8,72.6c0.8-0.1,1.5-0.5,1.4-0.8c0-0.4-0.7-0.6-1.6-0.6c-0.8,0.1-1.5,0.5-1.4,0.8
			C197.3,72.4,198,72.6,198.8,72.6z"/>
		<path class="st6" d="M198.8,72.2c0.8-0.1,1.4-0.4,1.4-0.7c0-0.3-0.7-0.5-1.5-0.4s-1.4,0.4-1.4,0.7C197.4,72.1,198,72.3,198.8,72.2
			z"/>
	</g>
	<g>
		<path class="st11" d="M217.7,66.7c0.8-0.4,2-0.6,3.3-0.6s2.4,0.2,3.3,0.6h1.2V68c0,1-2,1.9-4.5,1.9s-4.5-0.8-4.5-1.9l0,0v-1.3
			H217.7z"/>
		<path class="st12" d="M219.9,66.2c0.3,0,0.7-0.1,1-0.1c1.3,0,2.4,0.2,3.3,0.6h1.2V68c0,1-2,1.9-4.5,1.9c-0.4,0-0.7,0-1-0.1V66.2z"
			/>
		<path class="st6" d="M221,68.6c2.5,0,4.5-0.8,4.5-1.9c0-1-2-1.9-4.5-1.9s-4.5,0.8-4.5,1.9S218.5,68.6,221,68.6z"/>
		<path class="st13" d="M221,67.8c1.8,0,3.2-0.5,3.2-1.2s-1.4-1.2-3.2-1.2s-3.2,0.5-3.2,1.2S219.2,67.8,221,67.8z"/>
		<path class="st11" d="M221,65.7c-1.6,0-3,0.5-3.2,1.1v-0.1c0-0.7,1.4-1.2,3.2-1.2s3.2,0.5,3.2,1.2v0.1
			C224,66.2,222.6,65.7,221,65.7z"/>
		<path class="st11" d="M221,67.5c0.8,0,1.5-0.3,1.5-0.7c0-0.4-0.7-0.7-1.5-0.7s-1.5,0.3-1.5,0.7S220.2,67.5,221,67.5z"/>
		<path class="st6" d="M221,67.1c0.8,0,1.4-0.2,1.4-0.5s-0.6-0.5-1.4-0.5c-0.8,0-1.4,0.2-1.4,0.5S220.2,67.1,221,67.1z"/>
	</g>
	<g>
		<path class="st11" d="M232.1,68.5c-0.8-0.4-2-0.6-3.3-0.6s-2.4,0.2-3.3,0.6h-1.2v1.3c0,1,2,1.9,4.5,1.9s4.5-0.8,4.5-1.9l0,0v-1.3
			H232.1z"/>
		<path class="st12" d="M229.9,68c-0.3,0-0.7-0.1-1-0.1c-1.3,0-2.4,0.2-3.3,0.6h-1.2v1.3c0,1,2,1.9,4.5,1.9c0.4,0,0.7,0,1-0.1V68z"
			/>
		<path class="st6" d="M228.9,70.4c-2.5,0-4.5-0.8-4.5-1.9c0-1,2-1.9,4.5-1.9s4.5,0.8,4.5,1.9S231.4,70.4,228.9,70.4z"/>
		<ellipse class="st13" cx="228.9" cy="68.4" rx="3.2" ry="1.2"/>
		<path class="st11" d="M228.9,67.5c1.6,0,3,0.5,3.2,1.1v-0.1c0-0.7-1.4-1.2-3.2-1.2s-3.2,0.5-3.2,1.2v0.1
			C225.9,67.9,227.3,67.5,228.9,67.5z"/>
		<path class="st11" d="M228.9,69.3c-0.8,0-1.5-0.3-1.5-0.7s0.7-0.7,1.5-0.7s1.5,0.3,1.5,0.7S229.7,69.3,228.9,69.3z"/>
		<path class="st6" d="M228.9,68.9c-0.8,0-1.4-0.2-1.4-0.5s0.6-0.5,1.4-0.5c0.8,0,1.4,0.2,1.4,0.5S229.7,68.9,228.9,68.9z"/>
	</g>
</g>
<g>
	
		<radialGradient id="SVGID_1_" cx="30.7089" cy="36.0716" r="68.5936" gradientTransform="matrix(1 0 0 1 0 -10)" gradientUnits="userSpaceOnUse">
		<stop  offset="0" style="stop-color:#CAE1EE"/>
		<stop  offset="0.337" style="stop-color:#52E1EE"/>
		<stop  offset="0.9444" style="stop-color:#842BA7"/>
	</radialGradient>
	<circle class="st14" cx="42" cy="50.5" r="32.4"/>
	
		<radialGradient id="SVGID_2_" cx="39.9862" cy="60.1396" r="36.5617" gradientTransform="matrix(1 0 0 1 0 -10)" gradientUnits="userSpaceOnUse">
		<stop  offset="6.296300e-02" style="stop-color:#3E8DEF"/>
		<stop  offset="0.3261" style="stop-color:#3F90EF;stop-opacity:0.7192"/>
		<stop  offset="0.5154" style="stop-color:#4199EF;stop-opacity:0.5171"/>
		<stop  offset="0.6817" style="stop-color:#45A9EF;stop-opacity:0.3397"/>
		<stop  offset="0.8345" style="stop-color:#4ABFEE;stop-opacity:0.1766"/>
		<stop  offset="0.9771" style="stop-color:#51DCEE;stop-opacity:2.448386e-02"/>
		<stop  offset="1" style="stop-color:#52E1EE;stop-opacity:0"/>
	</radialGradient>
	<circle class="st15" cx="42" cy="50.5" r="40"/>
	<g>
		
			<radialGradient id="SVGID_3_" cx="37.2877" cy="29.1885" r="58.6482" gradientTransform="matrix(1 0 0 1 0 -10)" gradientUnits="userSpaceOnUse">
			<stop  offset="0" style="stop-color:#CAE1EE"/>
			<stop  offset="0.337" style="stop-color:#52E1EE"/>
			<stop  offset="0.9444" style="stop-color:#842BA7"/>
		</radialGradient>
		<path class="st16" d="M27.1,69.8c0.1-0.7-0.9-1.3-1.2-0.5c-1.6,3.3-0.2,6.2,1.4,9.2c0.2,0.4,0.4,0.8,0.6,1.1
			c1.6,0.8,3.3,1.5,5.1,2C30,78.4,26.4,73.9,27.1,69.8z"/>
		
			<radialGradient id="SVGID_4_" cx="37.2877" cy="29.1888" r="58.6479" gradientTransform="matrix(1 0 0 1 0 -10)" gradientUnits="userSpaceOnUse">
			<stop  offset="0" style="stop-color:#CAE1EE"/>
			<stop  offset="0.337" style="stop-color:#52E1EE"/>
			<stop  offset="0.9444" style="stop-color:#842BA7"/>
		</radialGradient>
		<path class="st17" d="M74.4,48.5c0-0.6-0.1-1.2-0.2-1.8c-1.5-0.6-2.9-1.3-3.8-2.7c-1.4-2.2,0.2-3.3,2.3-4l0,0
			c-0.5-1.5-1.1-2.9-1.8-4.2l0,0c-3.3,1-5.9,3.6-5.9,7.2c0.1,4.3,4.9,8.5,9.4,9.3l0,0c0-0.6,0-1.1,0-1.7c0-0.6,0-1.3-0.1-1.9
			C74.4,48.6,74.4,48.5,74.4,48.5z"/>
		
			<radialGradient id="SVGID_5_" cx="37.2878" cy="29.1885" r="58.6481" gradientTransform="matrix(1 0 0 1 0 -10)" gradientUnits="userSpaceOnUse">
			<stop  offset="0" style="stop-color:#CAE1EE"/>
			<stop  offset="0.337" style="stop-color:#52E1EE"/>
			<stop  offset="0.9444" style="stop-color:#842BA7"/>
		</radialGradient>
		<path class="st18" d="M18.9,53.6c4.1-3,8.8-4,13.3-6.2c0.9-0.5,0.4-1.9-0.5-1.9c-5.6-0.1-11.7,3.3-15.7,7c-2.2,2.1-3.9,4.4-5,7
			l0,0c0.1,0.4,0.3,0.9,0.4,1.3l0,0c0.1,0.4,0.3,0.9,0.5,1.3C13.4,58.8,15.9,55.8,18.9,53.6z"/>
		
			<radialGradient id="SVGID_6_" cx="37.2878" cy="29.1886" r="58.648" gradientTransform="matrix(1 0 0 1 0 -10)" gradientUnits="userSpaceOnUse">
			<stop  offset="0" style="stop-color:#CAE1EE"/>
			<stop  offset="0.337" style="stop-color:#52E1EE"/>
			<stop  offset="0.9444" style="stop-color:#842BA7"/>
		</radialGradient>
		<path class="st19" d="M32.1,42.3c9-1,18.9-2.7,27,2.6c2.2,1.5,4.5-1.7,2.8-3.6c-7.5-8-20.2-5.6-29.9-4c-6.5,1-15.6,3-21.8,7.4
			c-0.2,1-0.3,2.1-0.4,3.1c0,0.1,0,0.2,0,0.4c0,0.3,0,0.6-0.1,0.9c2.8-1.7,5.6-3.3,8.9-4.4C23,43.3,27.5,42.8,32.1,42.3z"/>
		
			<radialGradient id="SVGID_7_" cx="37.2878" cy="29.1886" r="58.648" gradientTransform="matrix(1 0 0 1 0 -10)" gradientUnits="userSpaceOnUse">
			<stop  offset="0" style="stop-color:#CAE1EE"/>
			<stop  offset="0.337" style="stop-color:#52E1EE"/>
			<stop  offset="0.9444" style="stop-color:#842BA7"/>
		</radialGradient>
		<path class="st20" d="M45.1,55.3c-8.4-4.1-18.5-1.8-23.9,5.9c-2.3,3.3-3.3,7.3-3,11.2l0,0c0.4,0.5,0.9,0.9,1.4,1.4
			c0.1,0.1,0.1,0.1,0.2,0.2c1.5,1.4,3.1,2.7,4.8,3.8c-1.6-3.5-1.9-7.7-0.4-11c2.6-5.7,8.9-9.1,15.1-7.8c5,1.1,15,9.1,8,14.1
			c-2.1,1.5-5.4,1.7-7.8,0.5c-1-0.5-2.8-1.7-2.9-3c-0.1-1.8,1.6-0.8,2,0.3c0.9,2.2,4.8,3,5.3,0c0.8-4.5-2.2-8.5-6.9-8.5
			s-8.2,4.2-7.7,8.7c1,9.9,14.3,12.3,21,6.7C59,70.8,53.8,59.6,45.1,55.3z"/>
		
			<radialGradient id="SVGID_8_" cx="37.2879" cy="29.1887" r="58.6479" gradientTransform="matrix(1 0 0 1 0 -10)" gradientUnits="userSpaceOnUse">
			<stop  offset="0" style="stop-color:#CAE1EE"/>
			<stop  offset="0.337" style="stop-color:#52E1EE"/>
			<stop  offset="0.9444" style="stop-color:#842BA7"/>
		</radialGradient>
		<path class="st21" d="M66,49.2c-1.2-0.6-2.5,0.9-1.5,1.9c2.2,2,4.3,4,6,6.5c0.8,1.2,1.4,2.5,2.1,3.8l0,0c0.3-0.7,0.5-1.5,0.7-2.2
			c0-0.1,0.1-0.2,0.1-0.3c0.1-0.4,0.2-0.7,0.3-1.1c0-0.1,0-0.1,0-0.2c0.1-0.4,0.2-0.8,0.2-1.2l0,0C71.8,53.4,68.7,50.7,66,49.2z"/>
		
			<radialGradient id="SVGID_9_" cx="37.2878" cy="29.1887" r="58.6477" gradientTransform="matrix(1 0 0 1 0 -10)" gradientUnits="userSpaceOnUse">
			<stop  offset="0" style="stop-color:#CAE1EE"/>
			<stop  offset="0.337" style="stop-color:#52E1EE"/>
			<stop  offset="0.9444" style="stop-color:#842BA7"/>
		</radialGradient>
		<path class="st22" d="M28.6,28.6c7.3,1.7,16.8,0,20.1-7.5c0.3-0.8,0.5-1.4,0.6-2.1c-1.6-0.4-3.3-0.6-5-0.8l0,0
			c0.1,0.2,0.2,0.5,0.2,0.8c0,2-4.2,4.3-5.6,4.8c-1.9,0.7-11.7,1.6-13.5-1.2c-0.5,0.3-1,0.6-1.4,0.9l0,0c-0.5,0.3-0.9,0.6-1.4,1
			C23.5,26.9,26.2,28,28.6,28.6z"/>
		
			<radialGradient id="SVGID_10_" cx="37.2878" cy="29.1885" r="58.648" gradientTransform="matrix(1 0 0 1 0 -10)" gradientUnits="userSpaceOnUse">
			<stop  offset="0" style="stop-color:#CAE1EE"/>
			<stop  offset="0.337" style="stop-color:#52E1EE"/>
			<stop  offset="0.9444" style="stop-color:#842BA7"/>
		</radialGradient>
		<path class="st23" d="M59.9,73.5c-0.2-0.7-1-1.2-1.8-1c-2,0.6-3.2,3.1-4.3,4.7s-2.6,3-3.6,4.7l0,0c0.6-0.2,1.3-0.4,1.9-0.6
			c0.1,0,0.3-0.1,0.4-0.1c0.6-0.2,1.2-0.4,1.7-0.6h0.1c1.3-0.5,2.6-1.2,3.8-1.9l0,0C59.3,77.1,60.4,75.2,59.9,73.5z"/>
		
			<radialGradient id="SVGID_11_" cx="37.2878" cy="29.1887" r="58.6479" gradientTransform="matrix(1 0 0 1 0 -10)" gradientUnits="userSpaceOnUse">
			<stop  offset="0" style="stop-color:#CAE1EE"/>
			<stop  offset="0.337" style="stop-color:#52E1EE"/>
			<stop  offset="0.9444" style="stop-color:#842BA7"/>
		</radialGradient>
		<path class="st24" d="M67.3,70.8L67.3,70.8c0-0.3,0-0.5,0-0.8c-0.3-5.1-1.1-10.4-3.8-14.8c-2.3-3.8-5.7-6.9-9.7-8.8
			c-4.2-2-8.1-2.1-12.6-1.4c-1.2,0.2-0.9,2,0.3,2.1c6.9,0.2,14.3,4.8,17.7,10.7c3.1,5.5,3.4,12.3,2.5,18.6c0.5-0.4,1-0.8,1.5-1.2
			c0.1-0.1,0.1-0.1,0.2-0.2c0.4-0.4,0.9-0.8,1.3-1.2l0.1-0.1C65.6,72.8,66.5,71.8,67.3,70.8z"/>
		
			<radialGradient id="SVGID_12_" cx="37.2878" cy="29.1887" r="58.6478" gradientTransform="matrix(1 0 0 1 0 -10)" gradientUnits="userSpaceOnUse">
			<stop  offset="0" style="stop-color:#CAE1EE"/>
			<stop  offset="0.337" style="stop-color:#52E1EE"/>
			<stop  offset="0.9444" style="stop-color:#842BA7"/>
		</radialGradient>
		<path class="st25" d="M34,21.9c1.5,2.1,4.5,2.3,5.8-0.1c0.7-1.3-0.5-2.7-1.9-2.4c0.3-0.6,0.7-1,1.2-1.2l0,0c-0.5,0-1,0.1-1.4,0.2
			h-0.1c-0.5,0.1-0.9,0.1-1.4,0.2h-0.1c-0.5,0.1-0.9,0.2-1.4,0.3l0,0c-0.5,0.1-1,0.2-1.4,0.4C33.2,20.2,33.4,21.1,34,21.9z"/>
		
			<radialGradient id="SVGID_13_" cx="37.2876" cy="29.1887" r="58.6475" gradientTransform="matrix(1 0 0 1 0 -10)" gradientUnits="userSpaceOnUse">
			<stop  offset="0" style="stop-color:#CAE1EE"/>
			<stop  offset="0.337" style="stop-color:#52E1EE"/>
			<stop  offset="0.9444" style="stop-color:#842BA7"/>
		</radialGradient>
		<path class="st26" d="M13.4,52.3c1.8-1.3,3.8-2.3,5.2-3.9c0.6-0.6,0-1.6-0.8-1.4c-2.3,0.5-4.1,2-5.9,3.4c-0.7,0.6-1.5,1.2-2.2,1.8
			c0,1,0.1,1.9,0.3,2.8C11.1,54.1,12.2,53.1,13.4,52.3z"/>
		
			<radialGradient id="SVGID_14_" cx="37.2878" cy="29.1887" r="58.6478" gradientTransform="matrix(1 0 0 1 0 -10)" gradientUnits="userSpaceOnUse">
			<stop  offset="0" style="stop-color:#CAE1EE"/>
			<stop  offset="0.337" style="stop-color:#52E1EE"/>
			<stop  offset="0.9444" style="stop-color:#842BA7"/>
		</radialGradient>
		<path class="st27" d="M16,32.3c-0.3,0-0.6,0.1-0.9,0.2c-1,1.5-1.9,3.2-2.7,4.9c0.4,0.2,0.9,0.3,1.4,0.1c1.3-0.4,2.5-0.8,3.7-1.5
			c0.8-0.5,1.2-1.6,0.8-2.4C17.9,32.5,17,32.2,16,32.3z"/>
		
			<radialGradient id="SVGID_15_" cx="37.2878" cy="29.1887" r="58.6478" gradientTransform="matrix(1 0 0 1 0 -10)" gradientUnits="userSpaceOnUse">
			<stop  offset="0" style="stop-color:#CAE1EE"/>
			<stop  offset="0.337" style="stop-color:#52E1EE"/>
			<stop  offset="0.9444" style="stop-color:#842BA7"/>
		</radialGradient>
		<path class="st28" d="M52.2,57.3c2,2.8,2.4,5.9,3.7,9c0.3,0.7,1.6,0.6,1.8-0.2c1.1-7.9-8-14.8-14.9-15.9c-0.2,0-0.2,0.2-0.1,0.2
			C46.5,51.6,49.9,54,52.2,57.3z"/>
		
			<radialGradient id="SVGID_16_" cx="37.2879" cy="29.1886" r="58.6478" gradientTransform="matrix(1 0 0 1 0 -10)" gradientUnits="userSpaceOnUse">
			<stop  offset="0" style="stop-color:#CAE1EE"/>
			<stop  offset="0.337" style="stop-color:#52E1EE"/>
			<stop  offset="0.9444" style="stop-color:#842BA7"/>
		</radialGradient>
		<path class="st29" d="M14.4,66.4c2-4.3,4.7-8.3,8-11.7c0.3-0.3-0.1-0.7-0.4-0.5c-4.6,2.6-7.5,6.8-8.2,12c0,0.1,0,0.1,0.1,0.2l0,0
			C14,66.6,14.3,66.6,14.4,66.4z"/>
		
			<radialGradient id="SVGID_17_" cx="37.2878" cy="29.1887" r="58.6478" gradientTransform="matrix(1 0 0 1 0 -10)" gradientUnits="userSpaceOnUse">
			<stop  offset="0" style="stop-color:#CAE1EE"/>
			<stop  offset="0.337" style="stop-color:#52E1EE"/>
			<stop  offset="0.9444" style="stop-color:#842BA7"/>
		</radialGradient>
		<path class="st30" d="M49.5,24.1c-4.1,3.3-8.8,5.8-13.3,8.4c-0.5,0.3-0.3,1.1,0.3,1.1c5.9,0.4,11.6-1.8,16.3-5.2
			c1.9-1.4,4.4-3.3,6.3-5.5l0,0c-0.4-0.3-0.9-0.5-1.3-0.8l0,0c-0.4-0.2-0.9-0.5-1.3-0.7l0,0c-0.9-0.5-1.9-0.9-2.8-1.2
			C52.3,21.6,51,22.9,49.5,24.1z"/>
		
			<radialGradient id="SVGID_18_" cx="37.2878" cy="29.1887" r="58.6478" gradientTransform="matrix(1 0 0 1 0 -10)" gradientUnits="userSpaceOnUse">
			<stop  offset="0" style="stop-color:#CAE1EE"/>
			<stop  offset="0.337" style="stop-color:#52E1EE"/>
			<stop  offset="0.9444" style="stop-color:#842BA7"/>
		</radialGradient>
		<path class="st31" d="M17.4,29.5c0.9,1.5,2.5,2.7,4.1,3.5c2.3,1.2,4.4,1.7,7,1.4c0.7-0.1,0.9-1.1,0.2-1.3c-2-0.5-4.2-1.2-6-2.1
			c-1.5-0.7-2.8-1.8-4.2-2.7C18,28.8,17.7,29.1,17.4,29.5z"/>
		
			<radialGradient id="SVGID_19_" cx="37.2876" cy="29.1886" r="58.6483" gradientTransform="matrix(1 0 0 1 0 -10)" gradientUnits="userSpaceOnUse">
			<stop  offset="0" style="stop-color:#CAE1EE"/>
			<stop  offset="0.337" style="stop-color:#52E1EE"/>
			<stop  offset="0.9444" style="stop-color:#842BA7"/>
		</radialGradient>
		<path class="st32" d="M63.6,26.3L63.6,26.3c-2.4,2.3-5.8,3.3-8.6,5.1c-0.9,0.6-0.5,2,0.5,2c3.4,0.2,8.1-1.2,11.3-3.8l0,0
			c-0.5-0.6-1-1.1-1.5-1.7l-0.1-0.1C64.7,27.3,64.2,26.8,63.6,26.3z"/>
	</g>
	
		<radialGradient id="SVGID_20_" cx="32.0145" cy="45.0178" r="61.1986" gradientTransform="matrix(1 0 0 1 0 -10)" gradientUnits="userSpaceOnUse">
		<stop  offset="0" style="stop-color:#CAE1EE"/>
		<stop  offset="0.337" style="stop-color:#52E1EE"/>
		<stop  offset="0.9444" style="stop-color:#842BA7"/>
	</radialGradient>
	<path class="st33" d="M65.6,28.3c1.3,3.4,1.9,7.2,1.9,11c0,17.9-14.5,32.4-32.4,32.4c-9.3,0-17.7-3.9-23.6-10.2
		C16.1,74,28,82.9,42,82.9c17.9,0,32.4-14.5,32.4-32.4C74.5,41.9,71.1,34.1,65.6,28.3z"/>
	
		<radialGradient id="SVGID_21_" cx="29.6584" cy="42.0437" r="62.8226" gradientTransform="matrix(1 0 0 1 0 -10)" gradientUnits="userSpaceOnUse">
		<stop  offset="0" style="stop-color:#CAE1EE"/>
		<stop  offset="0.337" style="stop-color:#52E1EE"/>
		<stop  offset="0.9444" style="stop-color:#842BA7"/>
	</radialGradient>
	<path class="st34" d="M51.4,71.4c-17.9,0-32.5-14.5-32.5-32.4c0-5.1,1.2-9.9,3.2-14.1C14.5,30.8,9.6,40.1,9.6,50.5
		c0,17.9,14.5,32.4,32.4,32.4c12.8,0,23.9-7.5,29.2-18.3C65.7,68.9,58.8,71.4,51.4,71.4z"/>
	
		<radialGradient id="SVGID_22_" cx="31.4899" cy="33.972" r="57.3984" gradientTransform="matrix(1 0 0 1 0 -10)" gradientUnits="userSpaceOnUse">
		<stop  offset="0" style="stop-color:#CAE1EE"/>
		<stop  offset="0.337" style="stop-color:#52E1EE"/>
		<stop  offset="0.9444" style="stop-color:#842BA7"/>
	</radialGradient>
	<path class="st35" d="M39.3,24.9c17.9,0,32.4,14.5,32.4,32.4c0,3-0.4,5.8-1.2,8.6c2.5-4.6,3.9-9.8,3.9-15.4
		c0-17.9-14.5-32.4-32.4-32.4c-14.9,0-27.5,10.1-31.3,23.8C16.3,31.8,27,24.9,39.3,24.9z"/>
</g>
<circle class="st2" cx="110.4" cy="60.8" r="0.7"/>
<circle class="st2" cx="110.4" cy="57.6" r="0.7"/>
<circle class="st2" cx="110.4" cy="54.5" r="0.7"/>
</svg>
