<?xml version="1.0" encoding="utf-8"?>
<!-- Generator: Adobe Illustrator 25.3.1, SVG Export Plug-In . SVG Version: 6.00 Build 0)  -->
<svg version="1.1" id="Layer_1" xmlns:v="https://vecta.io/nano"
	 xmlns="http://www.w3.org/2000/svg" xmlns:xlink="http://www.w3.org/1999/xlink" x="0px" y="0px" viewBox="0 0 135 135"
	 style="enable-background:new 0 0 135 135;" xml:space="preserve">
<style type="text/css">
	.st0{fill:#1C0060;}
	.st1{fill:#FFFFFF;}
</style>
<path class="st0" d="M45.3,23L112,89.7V135L0,23H45.3z"/>
<path class="st1" d="M40,49.5l7.3-7.3l5.3,5.3l-1.4,1.4l-3.5-3.5L46.2,47l3.1,3.1l-1.4,1.4l-3.1-3.1l-2.9,2.9L40,49.5L40,49.5z
	 M52.8,49.8l1.4-1.4l2,2l-1.4,1.4L52.8,49.8z M46.7,56.2l4-4l-0.8-0.8l1.5-1.2l2.5,2.5L48.5,58L46.7,56.2L46.7,56.2z M50,59.5
	l5.4-5.4l1.7,1.7l-0.4,0.5c0.4,0.1,0.8,0.2,1.2,0.4c0.5,0.2,0.9,0.5,1.2,0.9c0.7,0.7,1,1.4,1,2s-0.4,1.3-1.1,2L55.6,65l-1.8-1.8
	l3.3-3.3c0.3-0.3,0.5-0.6,0.5-0.8s-0.2-0.5-0.5-0.9c-0.2-0.2-0.4-0.3-0.7-0.5s-0.6-0.2-0.8-0.2l-3.7,3.7L50,59.5L50,59.5z
	 M63.7,60.7l1.4-1.4l2,2l-1.4,1.4L63.7,60.7z M57.6,67.1l4-4l-0.8-0.8l1.5-1.2l2.5,2.5L59.4,69L57.6,67.1L57.6,67.1z M62.8,72.5
	c-0.4-0.4-0.8-0.9-1.1-1.3s-0.6-0.8-0.7-1.1l1.4-1.4c0.2,0.4,0.4,0.8,0.7,1.2s0.6,0.7,0.8,1c0.3,0.3,0.6,0.5,0.7,0.7
	c0.2,0.1,0.3,0.1,0.5,0c0.2-0.2,0.1-0.4,0-0.7l-0.7-1.3c-0.3-0.7-0.5-1.2-0.5-1.7s0.2-0.9,0.7-1.4s1.1-0.7,1.8-0.6
	c0.7,0.1,1.5,0.6,2.3,1.5c0.3,0.3,0.7,0.7,0.9,1.1s0.5,0.7,0.6,1l-1.4,1.4c-0.1-0.3-0.3-0.6-0.5-0.9s-0.4-0.6-0.7-0.8
	c-0.3-0.3-0.5-0.5-0.8-0.7c-0.2-0.2-0.4-0.2-0.5,0c-0.1,0.1-0.1,0.3,0,0.6L67,70c0.3,0.6,0.5,1,0.6,1.4s0.1,0.7,0,1S67.3,73,67,73.3
	c-0.5,0.5-1.2,0.7-1.9,0.6S63.6,73.3,62.8,72.5L62.8,72.5z M66.7,76.2l7.6-7.6l1.8,1.8L73.5,73c0.4,0.1,0.7,0.2,1.1,0.4
	c0.4,0.2,0.8,0.5,1.1,0.8c0.7,0.7,1.1,1.4,1.1,2.1s-0.3,1.4-1.1,2.1l-3.4,3.4L70.5,80l3.3-3.3c0.3-0.3,0.5-0.6,0.5-0.8
	s-0.2-0.6-0.5-0.9c-0.2-0.2-0.4-0.3-0.7-0.5c-0.3-0.1-0.6-0.2-0.8-0.2L68.5,78L66.7,76.2L66.7,76.2z M76.5,86.2
	c-0.9-0.9-1.5-1.9-1.6-2.9s0.3-2,1.3-3c0.9-0.9,1.8-1.3,2.7-1.3s1.9,0.4,2.9,1.3c0.9,0.9,1.3,1.7,1.3,2.6s-0.3,1.7-1.1,2.5l-1,1
	l-3.8-3.8c-0.3,0.4-0.3,0.9-0.2,1.3c0.2,0.4,0.5,0.9,1.1,1.5c0.3,0.3,0.6,0.6,1,0.8c0.4,0.3,0.7,0.4,1,0.6L78.9,88
	c-0.4-0.1-0.8-0.4-1.2-0.7C77.3,86.9,76.9,86.6,76.5,86.2L76.5,86.2z M78.3,81.5l2.2,2.2l0.2-0.2c0.3-0.3,0.4-0.6,0.4-0.9
	s-0.2-0.7-0.6-1c-0.4-0.4-0.8-0.7-1.2-0.6C79,80.9,78.7,81.1,78.3,81.5L78.3,81.5z M82.4,92.1c-0.5-0.5-0.9-1-1.1-1.6
	s-0.2-1.1,0-1.7s0.6-1.2,1.2-1.8c0.7-0.7,1.3-1.1,2-1.3c0.7-0.2,1.3-0.2,1.9-0.1c0.6,0.2,1.2,0.5,1.7,1c0.3,0.3,0.5,0.6,0.7,0.8
	c0.2,0.3,0.3,0.6,0.4,0.9l2.5-2.5l1.8,1.8l-7.6,7.6l-1.6-1.6l0.3-0.6c-0.4,0-0.8-0.1-1.2-0.3C83.1,92.7,82.7,92.4,82.4,92.1
	L82.4,92.1z M84.2,91.3c0.4,0.4,0.9,0.6,1.4,0.6l2.2-2.2c0-0.5-0.2-0.9-0.6-1.3s-0.8-0.5-1.3-0.4s-1,0.4-1.5,0.9s-0.8,0.9-0.7,1.3
	C83.6,90.5,83.8,90.9,84.2,91.3L84.2,91.3z"/>
<g>
	
		<image style="overflow:visible;opacity:0.8;" width="52" height="51" xlink:href="525430CB.png"  transform="matrix(1 0 0 1 19 -3)">
	</image>
	<g>
		<g>
			<g>
				<g>
					<path class="st1" d="M45.2,23c2.3,1.4,4.1,2.7,4,2.8C49.1,26,47,25,44.7,23.6c-2.3-1.4-4-2.7-4-2.8
						C40.8,20.7,42.8,21.6,45.2,23z"/>
					<path class="st1" d="M44.7,23.3c1.3-2.4,4.6-8.4,4.7-8.3c0.1,0.1-3.1,6.2-4.3,8.6c-1.3,2.4-3.9,7-4.1,7
						C41,30.4,43.5,25.7,44.7,23.3z"/>
				</g>
				<g>
					<path class="st1" d="M45.1,23.6c-2.6,2.1-7.4,5.6-7.5,5.5c-0.1-0.1,4.5-3.9,7.1-6.1c2.6-2.1,5.9-4.6,6-4.4
						C50.8,18.7,47.7,21.5,45.1,23.6z"/>
					<path class="st1" d="M45.2,23.1c2.1,2.6,7.7,9.8,7.6,9.9c-0.1,0.1-5.9-6.8-8-9.5c-2.1-2.6-6.1-7.5-5.9-7.6
						C38.9,15.8,43,20.5,45.2,23.1z"/>
				</g>
				<g>
					<path class="st1" d="M45.2,23.2c0.2,5.9,0.3,8.2,0.2,9.4c-0.1,1.2-0.5-3.5-0.7-9.4c-0.2-5.9-0.2-10.6-0.1-10.6
						C44.7,12.6,45,17.4,45.2,23.2z"/>
				</g>
				<g>
					<path class="st1" d="M44.9,23.5c-5.9,0.1-10.6,0.1-10.6-0.1c0-0.2,4.7-0.4,10.6-0.5c5.9-0.1,10.6-0.1,10.6,0.1
						C55.5,23.2,50.8,23.4,44.9,23.5z"/>
				</g>
			</g>
			<g>
				<path class="st1" d="M41.6,20.4c-0.1,0.1-0.1,0.3,0,0.5l0,0c0.1,0.1,0.3,0.1,0.5,0c0.1-0.1,0.1-0.3,0-0.5l0,0
					C41.9,20.3,41.7,20.3,41.6,20.4z"/>
				<path class="st1" d="M44.2,21.2c-0.1,0.1-0.1,0.3,0,0.5l0,0c0.1,0.1,0.3,0.1,0.5,0c0.1-0.1,0.1-0.3,0-0.5l0,0
					C44.5,21.1,44.3,21,44.2,21.2z"/>
				<path class="st1" d="M43.5,22.2L43.5,22.2c-0.2,0.2-0.2,0.4-0.1,0.5c0.1,0.1,0.3,0.1,0.5,0l0,0c0.1-0.1,0.1-0.3,0-0.5
					C43.8,22.1,43.6,22.1,43.5,22.2z"/>
				<path class="st1" d="M44.7,23.2c-0.1,0.1-0.1,0.3,0,0.5l0,0c0.1,0.1,0.3,0.1,0.5,0c0.1-0.1,0.1-0.3,0-0.5l0,0
					C45.1,23,44.8,23,44.7,23.2z"/>
				<path class="st1" d="M46.7,24.8c-0.1,0.1-0.1,0.3,0,0.5l0,0c0.1,0.1,0.3,0.1,0.5,0c0.1-0.1,0.1-0.3,0-0.5l0,0
					C47,24.7,46.8,24.7,46.7,24.8z"/>
				<path class="st1" d="M49,27.9c-0.3,0.3,0.2,0.8,0.5,0.5C49.7,28.1,49.3,27.6,49,27.9z"/>
				<path class="st1" d="M51.8,30.3c-0.3,0.3,0.2,0.8,0.5,0.5C52.6,30.5,52.1,30,51.8,30.3z"/>
				<path class="st1" d="M42.9,21.4c-0.2,0.2,0.1,0.5,0.3,0.3C43.4,21.5,43.1,21.2,42.9,21.4z"/>
				<path class="st1" d="M45.1,22.1c-0.2,0.2,0.1,0.5,0.3,0.3C45.5,22.2,45.3,21.9,45.1,22.1z"/>
				<path class="st1" d="M46.3,23.8C46.3,23.8,46.3,23.9,46.3,23.8c0.2,0.2,0.3,0.1,0.2,0C46.5,23.7,46.4,23.7,46.3,23.8z"/>
				<path class="st1" d="M45.8,24.6c-0.1,0-0.1,0-0.2,0.1c0,0.1,0,0.1,0,0.1c0,0.1,0.1,0,0.1-0.1c0,0,0,0,0,0
					C45.9,24.8,45.9,24.6,45.8,24.6z"/>
				<path class="st1" d="M47.7,26.4L47.7,26.4c0.1,0.1,0.2,0,0.1,0L47.7,26.4C47.7,26.3,47.6,26.4,47.7,26.4z"/>
				<path class="st1" d="M49.1,26.8C49,26.9,49.1,26.9,49.1,26.8C49.2,26.8,49.1,26.7,49.1,26.8z"/>
				<path class="st1" d="M48.6,27.2C48.5,27.2,48.6,27.3,48.6,27.2C48.7,27.2,48.7,27.1,48.6,27.2z"/>
				<path class="st1" d="M50.3,28.7c-0.2,0.2,0.1,0.5,0.3,0.3C50.7,28.8,50.5,28.5,50.3,28.7z"/>
				<path class="st1" d="M50,29.4L50,29.4c-0.1,0.1,0,0.2,0,0.1L50,29.4C50.1,29.4,50,29.3,50,29.4z"/>
				<path class="st1" d="M51,30c-0.2,0.2,0.1,0.5,0.3,0.3C51.4,30.1,51.1,29.8,51,30z"/>
				<path class="st1" d="M51.7,31.1L51.7,31.1c-0.1,0.1,0,0.2,0,0.1L51.7,31.1C51.9,31.1,51.8,31,51.7,31.1z"/>
				<path class="st1" d="M53.4,32L53.4,32c0.1,0.1,0.2,0,0.1,0L53.4,32C53.4,31.9,53.3,32,53.4,32z"/>
				<path class="st1" d="M52.8,31.2c-0.1-0.1-0.2-0.1-0.3,0c-0.2,0.2,0.1,0.5,0.3,0.3C52.9,31.5,52.9,31.4,52.8,31.2
					C52.8,31.3,52.8,31.2,52.8,31.2z"/>
				<path class="st1" d="M51.6,29.4C51.5,29.4,51.6,29.5,51.6,29.4C51.7,29.4,51.6,29.3,51.6,29.4z"/>
				<path class="st1" d="M45.7,23.9c-0.2,0.2,0.1,0.5,0.3,0.3C46.1,24.1,45.8,23.8,45.7,23.9z"/>
				<path class="st1" d="M45.9,23.3C45.8,23.4,45.9,23.5,45.9,23.3C46.1,23.4,46,23.3,45.9,23.3z"/>
				<path class="st1" d="M42.3,21.7L42.3,21.7c-0.1,0.1,0,0.2,0,0.1L42.3,21.7C42.5,21.7,42.4,21.6,42.3,21.7z"/>
				<path class="st1" d="M42.7,20.1C42.6,20.2,42.7,20.3,42.7,20.1C42.8,20.1,42.7,20.1,42.7,20.1z"/>
				<path class="st1" d="M48.4,25.8c-0.2,0.2,0.1,0.5,0.3,0.3C48.9,25.9,48.6,25.7,48.4,25.8z"/>
				<path class="st1" d="M48.1,26.6c-0.2,0.2,0.1,0.5,0.3,0.3C48.6,26.7,48.3,26.4,48.1,26.6z"/>
				<path class="st1" d="M46.8,26.2c-0.2,0.2,0.1,0.5,0.3,0.3C47.3,26.3,47,26,46.8,26.2z"/>
				<path class="st1" d="M43.5,20.6L43.5,20.6c-0.2,0.2,0,0.5,0.2,0.3l0,0C43.9,20.7,43.7,20.4,43.5,20.6z"/>
				<path class="st1" d="M43.5,19.3C43.5,19.3,43.5,19.3,43.5,19.3c-0.2,0-0.3,0.1-0.3,0.2c0,0.1,0.1,0.2,0.2,0.2c0,0,0.1,0,0.1,0
					c0.1,0,0.2-0.1,0.2-0.2C43.7,19.4,43.7,19.3,43.5,19.3z"/>
				<path class="st1" d="M42.8,20.6L42.8,20.6c0.2,0.2,0.5,0,0.3-0.2l0,0C42.9,20.1,42.6,20.4,42.8,20.6z"/>
				<path class="st1" d="M41.9,19.3c-0.2,0.2,0.1,0.5,0.3,0.3C42.4,19.5,42.1,19.2,41.9,19.3z"/>
				<path class="st1" d="M40.2,18.8c0,0.2,0.2,0.3,0.3,0.2c0.1-0.1,0.1-0.3,0-0.4C40.4,18.5,40.1,18.7,40.2,18.8z"/>
				<path class="st1" d="M41.4,20L41.4,20c0.2,0.2,0.5,0,0.3-0.2l0,0C41.5,19.5,41.2,19.8,41.4,20z"/>
				<path class="st1" d="M41.6,18.7c-0.2,0.2,0.1,0.5,0.3,0.3C42,18.8,41.8,18.5,41.6,18.7z"/>
				<path class="st1" d="M50.8,29.4L50.8,29.4c-0.2,0.2,0,0.4,0.1,0.2l0,0C51.1,29.5,50.9,29.3,50.8,29.4z"/>
				<path class="st1" d="M51,28.2c-0.1,0.1,0.1,0.3,0.2,0.2C51.3,28.3,51.2,28.1,51,28.2z"/>
				<path class="st1" d="M49.8,27.7c-0.1,0.1,0.1,0.3,0.2,0.2C50.1,27.8,49.9,27.6,49.8,27.7z"/>
				<path class="st1" d="M48.2,27.6c0,0.1,0.1,0.3,0.2,0.1c0.1-0.1,0.1-0.2,0-0.3C48.3,27.3,48.1,27.5,48.2,27.6z"/>
				<path class="st1" d="M47.6,25.8c-0.1,0.1,0.1,0.3,0.2,0.2C47.9,25.9,47.7,25.7,47.6,25.8z"/>
				<path class="st1" d="M46.4,25.5c-0.1,0.1,0.1,0.3,0.2,0.2C46.7,25.5,46.5,25.4,46.4,25.5z"/>
				<path class="st1" d="M46.1,24.5c-0.1,0.1,0.1,0.3,0.2,0.2C46.4,24.6,46.2,24.4,46.1,24.5z"/>
				<path class="st1" d="M44.3,22.5c-0.1,0.1,0.1,0.3,0.2,0.2C44.6,22.5,44.4,22.3,44.3,22.5z"/>
				<path class="st1" d="M42.8,22.4c-0.1,0-0.3,0.1-0.1,0.2c0.1,0.1,0.2,0.1,0.3,0C43.1,22.5,43,22.4,42.8,22.4z"/>
				<path class="st1" d="M42.7,21.9L42.7,21.9c-0.2,0.2,0,0.4,0.1,0.3l0.1-0.1C43,21.9,42.8,21.7,42.7,21.9z"/>
				<path class="st1" d="M40.6,20.3c-0.1,0.1,0.1,0.3,0.2,0.2C40.9,20.3,40.7,20.2,40.6,20.3z"/>
				<path class="st1" d="M40.8,19.7c-0.1,0.1,0.1,0.3,0.2,0.2C41.1,19.7,41,19.5,40.8,19.7z"/>
				<path class="st1" d="M40.9,18.7c-0.1,0.1,0.1,0.3,0.2,0.2C41.2,18.8,41,18.6,40.9,18.7z"/>
				<path class="st1" d="M39.2,17.3L39.2,17.3c0.2,0.2,0.4,0,0.2-0.1l0,0C39.3,17,39.1,17.2,39.2,17.3z"/>
			</g>
		</g>
	</g>
</g>
</svg>
