<?xml version="1.0" encoding="utf-8"?>
<!-- Generator: Adobe Illustrator 25.3.1, SVG Export Plug-In . SVG Version: 6.00 Build 0)  -->
<svg version="1.1" id="Layer_1" xmlns:v="https://vecta.io/nano" opacity="0.5"
	 xmlns="http://www.w3.org/2000/svg" xmlns:xlink="http://www.w3.org/1999/xlink" x="0px" y="0px" viewBox="0 0 64 64"
	 style="enable-background:new 0 0 64 64;" xml:space="preserve">
<style type="text/css">
	.st0{fill-rule:evenodd;clip-rule:evenodd;fill:#0084CE;}
	.st1{fill:#0084CE;}
	.st2{fill:#FFFFFF;}
</style>
<g>
	<path class="st0" d="M26,20.6c-0.6-1-1.9-1-2.4,0c-0.4,0.8-0.1,1.7,0.6,2.1l4.5,2.7L28,24.1L26,20.6z M20.4,18.4
		c1.8-3.6,6.6-3.5,8.7,0.1l2,3.6l4.1,7.6h-6.3c-0.3,0-0.7-0.1-1-0.3l-5.4-3.3C20,24.6,19,21.1,20.4,18.4z"/>
	<path class="st0" d="M38,20.6c0.6-1,1.9-1,2.4,0c0.4,0.8,0.1,1.7-0.6,2.1l-4.5,2.7l0.7-1.3C36,24.1,38,20.6,38,20.6z M43.6,18.4
		c-1.8-3.6-6.6-3.5-8.7,0.1l-2,3.6l-4.1,7.6h6.3c0.3,0,0.7-0.1,1-0.3l5.4-3.3C44,24.6,45,21.1,43.6,18.4z M17.6,38.4h28.8v13.1
		c0,1.4-1.1,2.6-2.6,2.6l0,0H20.1c-1.4,0-2.6-1.1-2.6-2.6l0,0C17.6,51.5,17.6,38.4,17.6,38.4z M48.9,35.8v15.7
		c0,2.8-2.3,5.1-5.1,5.1H20.1c-2.8,0-5.1-2.3-5.1-5.1V35.8H48.9z"/>
</g>
<path class="st1" d="M34.8,38.4h-5.6v18.2h5.6V38.4z"/>
<path class="st1" d="M15.1,41.9v6.4H49v-6.4H15.1z"/>
<path class="st0" d="M16.6,29.7h30.7c0.7,0,1.3,0.6,1.3,1.3v3.5c0,0.7-0.6,1.3-1.3,1.3H16.6c-0.7,0-1.3-0.6-1.3-1.3V31
	C15.4,30.3,15.9,29.7,16.6,29.7L16.6,29.7z M47.4,27.1c2.1,0,3.8,1.7,3.8,3.8l0,0v3.5c0,2.1-1.7,3.8-3.8,3.8l0,0H16.6
	c-2.1,0-3.8-1.7-3.8-3.8l0,0V31c0-2.1,1.7-3.8,3.8-3.8l0,0C16.6,27.1,47.4,27.1,47.4,27.1z"/>
<path class="st1" d="M34.8,27.2h-5.6v11.2h5.6V27.2z"/>
<g>
	
		<image style="overflow:visible;opacity:0.8;" width="81" height="53" xlink:href="41177267.png"  transform="matrix(1 0 0 1 -9 -10)">
	</image>
	<g>
		<g>
			<g>
				<path class="st2" d="M26.1,16.2c1.9-0.7,3.4-1.3,3.5-1.2c0,0.1-1.5,0.8-3.3,1.5c-1.9,0.7-3.4,1.3-3.5,1.2
					C22.7,17.6,24.2,16.9,26.1,16.2z"/>
				<path class="st2" d="M25.9,16.4c0-2,0.1-3.7,0.2-3.7c0.1,0,0.2,1.6,0.1,3.7c0,2-0.1,3.7-0.2,3.7C26,20,25.9,18.4,25.9,16.4z"/>
				<path class="st2" d="M26.2,16.2c1.8,0.8,3.3,1.6,3.3,1.6c0,0.1-1.6-0.5-3.4-1.3c-1.8-0.8-3.3-1.6-3.3-1.6
					C22.8,14.8,24.4,15.4,26.2,16.2z"/>
				<path class="st2" d="M26.3,16.4c-0.8,1.8-1.6,3.3-1.6,3.3c-0.1,0,0.5-1.6,1.3-3.4c0.8-1.8,1.6-3.3,1.6-3.3
					C27.7,13.1,27.1,14.6,26.3,16.4C25.5,18.3,27.1,14.6,26.3,16.4z"/>
				<path class="st2" d="M26.1,16.2c1.9-0.7,3.4-1.3,3.5-1.2c0,0.1-1.5,0.8-3.3,1.5c-1.9,0.7-3.4,1.3-3.5,1.2
					C22.7,17.6,24.2,16.9,26.1,16.2z"/>
				<path class="st2" d="M26.3,16.2c1.4,1.4,3.2,3.4,3.1,3.5c-0.1,0.1-1.9-1.8-3.4-3.2c-1.4-1.4-3-3.2-3-3.3
					C23.1,13.2,24.8,14.8,26.3,16.2z"/>
				<path class="st2" d="M26.3,16.4c-1.5,1.4-3.4,3.2-3.5,3.1c-0.1-0.1,1.7-1.8,3.1-3.3c1.4-1.5,3-2.9,3.1-2.9
					C29.2,13.4,27.8,15,26.3,16.4z"/>
				<path class="st2" d="M26.3,16.3c0.7,1.9,1.3,3.4,1.2,3.5c-0.1,0-0.8-1.5-1.5-3.3c-0.7-1.9-1.3-3.4-1.2-3.5
					C24.9,12.9,25.5,14.4,26.3,16.3C27,18.2,25.5,14.4,26.3,16.3z"/>
				<path class="st2" d="M26.1,16.2c2,0,3.7,0,3.7,0.1c0,0.1-1.6,0.2-3.7,0.2c-2,0-3.7,0-3.7-0.1C22.5,16.3,24.1,16.2,26.1,16.2
					C28.1,16.2,24.1,16.2,26.1,16.2z"/>
				<path class="st2" d="M26.3,16.1c2.8,2.9,5,5.3,4.8,5.4c-0.1,0.1-2.5-2.1-5.3-4.9c-2.8-2.9-5-5.3-4.8-5.4
					C21.1,11,23.5,13.2,26.3,16.1z"/>
				<path class="st2" d="M25.8,16.1c2.9-2.8,5.3-5,5.4-4.8c0.1,0.1-2.1,2.5-4.9,5.3c-2.9,2.8-5.3,5-5.4,4.8
					C20.7,21.3,22.9,18.9,25.8,16.1z"/>
			</g>
			<g>
				<path class="st2" d="M49.1,28c0.8,0.8,1.3,1.4,1.3,1.4c0,0-0.7-0.5-1.4-1.3c-0.8-0.8-1.3-1.4-1.3-1.4
					C47.7,26.7,48.3,27.3,49.1,28z"/>
				<path class="st2" d="M48.9,28c0.8-0.8,1.4-1.3,1.4-1.3c0,0-0.5,0.7-1.3,1.4c-0.8,0.8-1.4,1.3-1.4,1.3
					C47.6,29.4,48.2,28.8,48.9,28z"/>
				<path class="st2" d="M49,28c1.1,0,1.9,0,1.9,0.1c0,0.1-0.9,0.1-1.9,0.1c-1.1,0-1.9,0-1.9-0.1C47.1,28,47.9,28,49,28z"/>
				<path class="st2" d="M48.9,28.1c0-1.1,0-1.9,0.1-1.9c0.1,0,0.1,0.9,0.1,1.9c0,1.1,0,1.9-0.1,1.9C48.9,30,48.9,29.2,48.9,28.1z"
					/>
			</g>
			<g>
				<path class="st2" d="M7.8,27.9c1,0.8,1.7,1.5,1.7,1.6c0,0-0.9-0.6-1.8-1.4c-1-0.8-1.7-1.5-1.7-1.6C6,26.5,6.8,27.1,7.8,27.9z"/>
				<path class="st2" d="M7.6,27.9c1-0.8,1.8-1.5,1.8-1.4c0,0-0.7,0.7-1.7,1.6c-1,0.8-1.8,1.5-1.8,1.4C5.9,29.4,6.6,28.7,7.6,27.9z"
					/>
				<path class="st2" d="M7.7,27.9c1.4,0,2.5,0,2.5,0.1c0,0.1-1.1,0.1-2.5,0.1c-1.4,0-2.5,0-2.5-0.1C5.2,27.9,6.3,27.9,7.7,27.9z"/>
				<path class="st2" d="M7.5,28c0-1.2,0.1-2.1,0.1-2.1c0.1,0,0.1,0.9,0.1,2.1c0,1.2-0.1,2.1-0.1,2.1C7.6,30.1,7.5,29.1,7.5,28z"/>
			</g>
			<g>
				<path class="st2" d="M6,4.9c1,0.8,1.7,1.5,1.7,1.6c0,0-0.9-0.6-1.8-1.4c-1-0.8-1.7-1.5-1.7-1.6C4.2,3.5,5,4.1,6,4.9z"/>
				<path class="st2" d="M5.8,4.9c1-0.8,1.8-1.5,1.8-1.4c0,0-0.7,0.7-1.7,1.6C5,5.9,4.2,6.5,4.2,6.5C4.1,6.5,4.9,5.8,5.8,4.9z"/>
				<path class="st2" d="M5.9,4.9c1.4,0,2.5,0,2.5,0.1c0,0.1-1.1,0.1-2.5,0.1c-1.4,0-2.5,0-2.5-0.1C3.5,5,4.6,4.9,5.9,4.9z"/>
				<path class="st2" d="M5.8,5c0-1.2,0.1-2.1,0.1-2.1C6,2.9,6,3.9,6,5C6,6.2,6,7.1,5.9,7.1C5.9,7.1,5.8,6.2,5.8,5z"/>
			</g>
			<g>
				<path class="st2" d="M56.8,6.9c1.1,1.1,1.9,2,1.9,2.1c-0.1,0.1-1-0.8-2.1-1.9c-1.1-1.1-1.9-2-1.9-2.1C54.8,5,55.7,5.8,56.8,6.9z
					"/>
				<path class="st2" d="M56.6,6.9c1.1-1.1,2-1.9,2.1-1.9c0.1,0.1-0.8,1-1.9,2.1c-1.1,1.1-2,1.9-2.1,1.9C54.7,8.9,55.5,8,56.6,6.9z"
					/>
				<path class="st2" d="M56.7,6.8c1.5,0,2.8,0.1,2.8,0.1c0,0.1-1.2,0.1-2.8,0.1c-1.5,0-2.8-0.1-2.8-0.1C53.9,6.9,55.1,6.8,56.7,6.8
					z"/>
				<path class="st2" d="M56.5,7c0-1.5,0.1-2.8,0.1-2.8c0.1,0,0.1,1.2,0.1,2.8c0,1.5-0.1,2.8-0.1,2.8C56.6,9.8,56.5,8.5,56.5,7z"/>
			</g>
		</g>
	</g>
</g>
</svg>
