<?xml version="1.0" encoding="utf-8"?>
<!-- Generator: Adobe Illustrator 25.3.1, SVG Export Plug-In . SVG Version: 6.00 Build 0)  -->
<svg version="1.1" id="Layer_1" xmlns:v="https://vecta.io/nano"
	 xmlns="http://www.w3.org/2000/svg" xmlns:xlink="http://www.w3.org/1999/xlink" x="0px" y="0px" viewBox="0 0 64 64"
	 style="enable-background:new 0 0 64 64;" xml:space="preserve">
<style type="text/css">
	.st0{fill-rule:evenodd;clip-rule:evenodd;fill:#24007C;}
	.st1{fill:#008CFF;}
	.st2{fill:#24007C;}
	.st3{fill:#FFFFFF;}
</style>
<g>
	<g>
		<g>
			<g>
				<path class="st0" d="M18.3,17.6c-0.2-0.8,0.3-1.6,1.2-1.9c0.8-0.2,1.6,0.3,1.9,1.2c0.1,0.3,0.1,0.5,0,0.7l-1.6,6.1L18.3,17.6
					L18.3,17.6z M20.9,12.3c-2.7-0.7-5.5,1-6.2,3.7c-0.2,0.8-0.2,1.6-0.1,2.4l3,12.9c0.4,1.9,3.1,2,3.6,0.1l3.3-12.8
					C25.3,15.8,23.6,13,20.9,12.3L20.9,12.3z"/>
				<path class="st0" d="M9.7,27.7c-0.9-0.2-1.8,0.4-2,1.3C7.5,29.9,8,30.8,9,31C9.3,31,9.5,31,9.8,31l6.7-1.9
					C16.4,29,9.7,27.7,9.7,27.7z M4,30.8c-1.1-3.9,2.4-7.7,6.3-6.9l14.1,2.8c2.1,0.4,2.2,3.4,0.2,4l-13.8,3.9
					C7.9,35.4,4.9,33.7,4,30.8z"/>
			</g>
			<path class="st1" d="M51.1,29.9c-0.7-2.7-3.5-4.4-6.3-3.6l0,0l-27.2,7.3c-2.7,0.7-4.4,3.5-3.6,6.3l0,0l4.6,17
				c0.7,2.7,3.5,4.4,6.3,3.6l0,0L52,53.2c2.7-0.7,4.4-3.5,3.6-6.3l0,0L51.1,29.9z"/>
			<g>
				<path class="st0" d="M18.3,36l27.2-7.3c1.4-0.4,2.8,0.4,3.1,1.8l4.6,17c0.4,1.4-0.4,2.8-1.8,3.1L24.2,58
					c-1.4,0.4-2.8-0.4-3.1-1.8l-4.6-17C16.1,37.8,16.9,36.4,18.3,36L18.3,36z M44.8,26.3c2.7-0.7,5.5,0.9,6.3,3.6l0,0l4.6,17
					c0.7,2.7-0.9,5.5-3.6,6.3l0,0l-27.2,7.3c-2.7,0.7-5.5-0.9-6.3-3.6l0,0l-4.6-17c-0.7-2.7,0.9-5.5,3.6-6.3l0,0
					C17.6,33.6,44.8,26.3,44.8,26.3z"/>
				<path class="st2" d="M35.2,28.9l-8,2.2L34.4,58l8-2.2C42.4,55.7,35.2,28.9,35.2,28.9z"/>
				<path class="st2" d="M54.5,42.4l-2.2-8L15,44.4l2.2,8L54.5,42.4z"/>
			</g>
			<g>
				<path class="st0" d="M39.9,46.3l-8.1,2.2l0.3,1.2l8.1-2.2L39.9,46.3z M29.7,40.4l8.1-2.2L37.4,37l-8.1,2.2
					C29.4,39.2,29.7,40.4,29.7,40.4z"/>
			</g>
			<path class="st1" d="M36.3,14.4c-1.5-1.4-4-1.4-5.4,0.1L6,40.2c-1.4,1.5-1.4,4,0.1,5.4l2.5,2.4c1.5,1.4,4,1.4,5.4-0.1L39,22.3
				c1.4-1.5,1.4-4-0.1-5.4C38.8,16.8,36.3,14.4,36.3,14.4z"/>
			<g>
				<path class="st0" d="M7.8,42l24.9-25.7c0.5-0.5,1.3-0.5,1.8,0l0,0l2.5,2.4c0.5,0.5,0.5,1.3,0,1.8l0,0L12.2,46.2
					c-0.5,0.5-1.3,0.5-1.8,0l0,0l-2.5-2.4C7.4,43.3,7.4,42.5,7.8,42L7.8,42z M30.9,14.4c1.4-1.5,4-1.6,5.4-0.1l2.5,2.4
					c1.5,1.4,1.6,4,0.1,5.4L14,47.9c-1.4,1.5-4,1.6-5.4,0.1L6,45.6c-1.5-1.4-1.6-4-0.1-5.4C6,40.2,30.9,14.4,30.9,14.4z"/>
				<path class="st2" d="M21.4,24.4l-5.8,5.9l8,7.8l5.8-5.9L21.4,24.4L21.4,24.4z"/>
			</g>
			<g>
				<path class="st0" d="M38.4,18.1l-8-2.2l0.3-1.4l8.1,2.3C38.9,16.7,38.4,18.1,38.4,18.1z"/>
			</g>
		</g>
	</g>
</g>
<g>
	
		<image style="overflow:visible;opacity:0.8;" width="57" height="56" xlink:href="FE88842B.png"  transform="matrix(1 0 0 1 21 -1)">
	</image>
	<g>
		<g>
			<g>
				<g>
					<path class="st3" d="M49.4,27.4c2.8,1.7,5,3.3,4.9,3.5c-0.1,0.1-2.6-1-5.5-2.7c-2.8-1.7-4.9-3.3-4.8-3.5
						C44.1,24.6,46.6,25.7,49.4,27.4z"/>
					<path class="st3" d="M48.9,27.8c1.5-2.9,5.6-10.2,5.8-10.1c0.1,0.1-3.7,7.5-5.3,10.5c-1.5,2.9-4.8,8.6-5,8.5
						C44.3,36.5,47.4,30.7,48.9,27.8z"/>
				</g>
				<g>
					<path class="st3" d="M49.3,28.2c-3.2,2.6-9,6.9-9.2,6.7c-0.1-0.2,5.5-4.8,8.7-7.4c3.2-2.6,7.1-5.6,7.3-5.4
						C56.3,22.2,52.5,25.6,49.3,28.2z"/>
					<path class="st3" d="M49.4,27.6c2.6,3.2,9.4,11.9,9.2,12c-0.2,0.1-7.2-8.4-9.8-11.6c-2.6-3.2-7.4-9.1-7.2-9.2
						C41.8,18.7,46.8,24.4,49.4,27.6z"/>
				</g>
				<g>
					<path class="st3" d="M49.5,27.7c0.2,7.2,0.3,10,0.2,11.5c-0.1,1.5-0.6-4.3-0.9-11.4c-0.2-7.2-0.3-13-0.1-13
						C48.9,14.8,49.2,20.6,49.5,27.7z"/>
				</g>
				<g>
					<path class="st3" d="M49.1,28.1c-7.2,0.1-13,0.1-13-0.1c0-0.2,5.8-0.4,12.9-0.6c7.2-0.1,13-0.1,13,0.1
						C62.1,27.7,56.3,28,49.1,28.1z"/>
				</g>
			</g>
			<g>
				<path class="st3" d="M45,24.3c-0.2,0.2-0.2,0.4,0,0.6l0.1,0.1c0.2,0.2,0.4,0.2,0.6,0c0.2-0.2,0.2-0.4,0-0.6l-0.1-0.1
					C45.5,24.2,45.2,24.1,45,24.3z"/>
				<path class="st3" d="M48.2,25.2c-0.2,0.2-0.2,0.4,0,0.6l0.1,0.1c0.2,0.2,0.4,0.2,0.6,0c0.2-0.2,0.2-0.4,0-0.6l-0.1-0.1
					C48.6,25.1,48.4,25.1,48.2,25.2z"/>
				<path class="st3" d="M47.4,26.5L47.4,26.5c-0.2,0.2-0.2,0.5-0.1,0.6c0.2,0.2,0.4,0.2,0.6,0l0.1-0.1c0.2-0.2,0.2-0.4,0-0.6
					C47.8,26.3,47.5,26.3,47.4,26.5z"/>
				<path class="st3" d="M48.9,27.7c-0.2,0.2-0.2,0.4,0,0.6l0.1,0.1c0.2,0.2,0.4,0.2,0.6,0c0.2-0.2,0.2-0.4,0-0.6l-0.1-0.1
					C49.3,27.5,49,27.5,48.9,27.7z"/>
				<path class="st3" d="M51.3,29.7c-0.2,0.2-0.2,0.4,0,0.6l0.1,0.1c0.2,0.2,0.4,0.2,0.6,0c0.2-0.2,0.2-0.4,0-0.6l-0.1-0.1
					C51.7,29.5,51.4,29.5,51.3,29.7z"/>
				<path class="st3" d="M54,33.5c-0.4,0.4,0.2,1,0.6,0.6C55,33.7,54.4,33.1,54,33.5z"/>
				<path class="st3" d="M57.5,36.3c-0.4,0.4,0.2,1,0.6,0.6C58.5,36.6,57.9,36,57.5,36.3z"/>
				<path class="st3" d="M46.6,25.5c-0.2,0.2,0.1,0.6,0.3,0.4C47.2,25.6,46.9,25.3,46.6,25.5z"/>
				<path class="st3" d="M49.3,26.3c-0.2,0.2,0.1,0.6,0.3,0.4C49.9,26.5,49.5,26.1,49.3,26.3z"/>
				<path class="st3" d="M50.8,28.4c-0.1,0.1,0,0.2,0.1,0.1c0.1,0.1,0.2,0,0.1-0.1C51,28.3,50.9,28.3,50.8,28.4z"/>
				<path class="st3" d="M50.2,29.4c-0.1,0-0.2,0-0.2,0.1c0,0.1,0,0.1,0,0.2c0.1,0.1,0.2,0,0.1-0.1c0,0,0,0,0,0
					C50.3,29.6,50.3,29.4,50.2,29.4z"/>
				<path class="st3" d="M52.5,31.6L52.5,31.6c0.1,0.1,0.2,0,0.2-0.1l-0.1-0.1C52.5,31.5,52.4,31.6,52.5,31.6z"/>
				<path class="st3" d="M54.2,32.1c-0.1,0.1,0,0.2,0.1,0.1C54.4,32.1,54.2,32,54.2,32.1z"/>
				<path class="st3" d="M53.6,32.5c-0.1,0.1,0,0.2,0.1,0.1C53.8,32.6,53.7,32.4,53.6,32.5z"/>
				<path class="st3" d="M55.6,34.4c-0.2,0.2,0.1,0.6,0.3,0.4C56.2,34.5,55.9,34.2,55.6,34.4z"/>
				<path class="st3" d="M55.3,35.2L55.3,35.2c-0.1,0.1,0,0.2,0.1,0.2l0.1-0.1C55.5,35.3,55.4,35.1,55.3,35.2z"/>
				<path class="st3" d="M56.5,36c-0.2,0.2,0.1,0.6,0.3,0.4C57.1,36.1,56.7,35.8,56.5,36z"/>
				<path class="st3" d="M57.4,37.3L57.4,37.3c-0.1,0.1,0,0.2,0.1,0.2l0.1-0.1C57.6,37.4,57.5,37.2,57.4,37.3z"/>
				<path class="st3" d="M59.5,38.4L59.5,38.4c0.1,0.1,0.2,0,0.2-0.1l-0.1-0.1C59.5,38.3,59.4,38.4,59.5,38.4z"/>
				<path class="st3" d="M58.7,37.5c-0.1-0.1-0.2-0.1-0.3,0c-0.2,0.2,0.1,0.6,0.3,0.4C58.9,37.8,58.9,37.6,58.7,37.5
					C58.8,37.5,58.8,37.5,58.7,37.5z"/>
				<path class="st3" d="M57.2,35.2c-0.1,0.1,0,0.2,0.1,0.1C57.4,35.3,57.3,35.2,57.2,35.2z"/>
				<path class="st3" d="M50,28.6c-0.2,0.2,0.1,0.6,0.3,0.4C50.6,28.7,50.2,28.4,50,28.6z"/>
				<path class="st3" d="M50.3,27.8c-0.1,0.1,0,0.2,0.1,0.1C50.5,27.9,50.4,27.8,50.3,27.8z"/>
				<path class="st3" d="M45.9,25.8L45.9,25.8c-0.1,0.1,0,0.2,0.1,0.2l0.1-0.1C46.1,25.9,46,25.7,45.9,25.8z"/>
				<path class="st3" d="M46.4,23.9c-0.1,0.1,0,0.2,0.1,0.1C46.6,24,46.4,23.8,46.4,23.9z"/>
				<path class="st3" d="M53.4,30.9c-0.2,0.2,0.1,0.6,0.3,0.4C53.9,31,53.6,30.7,53.4,30.9z"/>
				<path class="st3" d="M53,31.8c-0.2,0.2,0.1,0.6,0.3,0.4C53.6,32,53.2,31.6,53,31.8z"/>
				<path class="st3" d="M51.4,31.3c-0.2,0.2,0.1,0.6,0.3,0.4C52,31.5,51.6,31.1,51.4,31.3z"/>
				<path class="st3" d="M47.3,24.5L47.3,24.5c-0.3,0.3,0.1,0.6,0.3,0.4l0.1-0.1C47.9,24.6,47.6,24.2,47.3,24.5z"/>
				<path class="st3" d="M47.4,22.9c0,0-0.1,0-0.1,0c-0.1,0-0.2,0.1-0.2,0.2c0,0.1,0.1,0.2,0.2,0.2c0,0,0.1,0,0.1,0
					c0.1,0,0.2-0.1,0.2-0.2C47.7,23,47.6,22.9,47.4,22.9z"/>
				<path class="st3" d="M46.5,24.5L46.5,24.5c0.3,0.3,0.6-0.1,0.4-0.3l-0.1-0.1C46.6,23.9,46.3,24.3,46.5,24.5z"/>
				<path class="st3" d="M45.5,23c-0.2,0.2,0.1,0.6,0.3,0.4C46,23.1,45.7,22.8,45.5,23z"/>
				<path class="st3" d="M43.3,22.4c-0.1,0.2,0.2,0.4,0.4,0.2c0.1-0.1,0.1-0.3,0-0.5C43.6,22,43.3,22.2,43.3,22.4z"/>
				<path class="st3" d="M44.8,23.7L44.8,23.7c0.3,0.3,0.6-0.1,0.4-0.3l-0.1-0.1C44.9,23.2,44.6,23.5,44.8,23.7z"/>
				<path class="st3" d="M45,22.2c-0.2,0.2,0.1,0.6,0.3,0.4C45.6,22.3,45.2,21.9,45,22.2z"/>
				<path class="st3" d="M56.3,35.3L56.3,35.3c-0.2,0.2,0,0.4,0.2,0.3l0.1-0.1C56.6,35.4,56.4,35.1,56.3,35.3z"/>
				<path class="st3" d="M56.6,33.8c-0.2,0.1,0.1,0.4,0.2,0.2C57,33.9,56.7,33.7,56.6,33.8z"/>
				<path class="st3" d="M55.1,33.2c-0.2,0.1,0.1,0.4,0.2,0.2C55.5,33.3,55.2,33.1,55.1,33.2z"/>
				<path class="st3" d="M53.1,33c-0.1,0.1,0.1,0.3,0.3,0.2c0.1-0.1,0.1-0.2,0-0.3C53.2,32.7,53,32.9,53.1,33z"/>
				<path class="st3" d="M52.3,30.9c-0.2,0.1,0.1,0.4,0.2,0.2C52.7,31,52.5,30.7,52.3,30.9z"/>
				<path class="st3" d="M50.9,30.5c-0.2,0.1,0.1,0.4,0.2,0.2C51.3,30.5,51.1,30.3,50.9,30.5z"/>
				<path class="st3" d="M50.6,29.3c-0.2,0.1,0.1,0.4,0.2,0.2C50.9,29.4,50.7,29.2,50.6,29.3z"/>
				<path class="st3" d="M48.4,26.8c-0.2,0.1,0.1,0.4,0.2,0.2C48.7,26.9,48.5,26.6,48.4,26.8z"/>
				<path class="st3" d="M46.6,26.7c-0.1-0.1-0.3,0.1-0.2,0.3c0.1,0.1,0.2,0.1,0.3,0C46.9,26.9,46.7,26.7,46.6,26.7z"/>
				<path class="st3" d="M46.4,26L46.4,26c-0.2,0.2,0,0.5,0.2,0.3l0.1-0.1C46.8,26.1,46.6,25.9,46.4,26z"/>
				<path class="st3" d="M43.8,24.1c-0.2,0.1,0.1,0.4,0.2,0.2C44.2,24.2,44,24,43.8,24.1z"/>
				<path class="st3" d="M44.1,23.4c-0.2,0.1,0.1,0.4,0.2,0.2C44.5,23.5,44.3,23.2,44.1,23.4z"/>
				<path class="st3" d="M44.1,22.2c-0.2,0.1,0.1,0.4,0.2,0.2C44.5,22.3,44.3,22.1,44.1,22.2z"/>
				<path class="st3" d="M42.1,20.5L42.1,20.5c0.2,0.2,0.4,0,0.3-0.2l-0.1-0.1C42.2,20.1,42,20.3,42.1,20.5z"/>
			</g>
		</g>
	</g>
</g>
</svg>
